<svg id="Layer_1" data-name="Layer 1" xmlns="http://www.w3.org/2000/svg" xmlns:xlink="http://www.w3.org/1999/xlink" viewBox="0 0 328.429 510.935"><defs><style>.cls-1{fill:url(#Naamloos_verloop_79);}</style><linearGradient id="Naamloos_verloop_79" x1="388" y1="510.967" x2="388" y2="0.033" gradientUnits="userSpaceOnUse"><stop offset="0" stop-color="#000f3d"/><stop offset="1"/></linearGradient></defs><path class="cls-1" d="M540.34,289.724c3.551-24.994,11.874-85.05,11.874-101.442C552.214,86.165,480.228,3.047,390.925.12V.033c-1.3,0-2.109.021-2.925.035-.816-.014-1.63-.035-2.075-.035V.12C295.772,3.047,223.786,86.165,223.786,188.282c0,16.392,8.323,76.448,11.874,101.442-2.188,13.526-6.8,19.094-6.8,19.094,2.664-1.419,4.731-2.558,6.385-3.523-1.839,12.989-2.784,28.4-2.786,47.529a92.023,92.023,0,0,1,8.97-26.522q2.1,11.7,4.428,22.757c2.3,40.831-12.562,54.258-12.562,54.258,11.718-4.349,13.282-5.483,16.994-8.381.657,3.576,1.654,6.509,6.362,16.423,0,0-.4-4.446,2.035-11.978-.94,6.468,8.819,40.933,14.366,51.141-.684-1.974-3.719-27.79.515-29.358,9.288-.582,6.706,30.7,2.572,39.917,3.216-4.388,9.162-12.341,11.313-15.652-.009,7.422,16.179,46.66,27.732,62.218a95.907,95.907,0,0,1-5.045-25.664c1.961,3.223,3.589,5.927,4.565,7.6,0,0-5.75-24.934,1.584-37.927,1.853,7.534,3.694,15.092,4.957,20.193,0,0,.271-5.782,1.487-13.795,7.7,2.929,10.427,44.545,2.2,52.91,4.045-2.9,14.821-11.238,27.8-26.319a68.183,68.183,0,0,1-3.957,17.32s10.358-12.573,21.652-36.333c1.758,17.224,4.673,27.085,4.673,27.085a68.222,68.222,0,0,1,3.126-17.49c6.053,18.953,12.713,30.841,15.305,35.089-2.453-6.221,2.593-20.99,8.909-32.488a65.812,65.812,0,0,1,6.508,14.9,153.627,153.627,0,0,0-1.428-23.007l.024-.033c10.5,21.138,19.685,32.281,19.685,32.281a68.183,68.183,0,0,1-3.957-17.32c12.977,15.081,23.753,23.422,27.8,26.319-8.225-8.365-5.5-49.981,2.2-52.91,1.216,8.013,1.487,13.795,1.487,13.795,1.263-5.1,3.1-12.659,4.957-20.193,7.334,12.993,1.584,37.927,1.584,37.927.976-1.676,2.6-4.38,4.565-7.6a95.907,95.907,0,0,1-5.045,25.664c11.553-15.558,27.741-54.8,27.732-62.218,2.151,3.311,8.1,11.264,11.313,15.652-4.134-9.214-6.716-40.5,2.572-39.917,4.234,1.568,1.2,27.384.515,29.358,5.547-10.208,15.306-44.673,14.366-51.141,2.432,7.532,2.035,11.978,2.035,11.978,4.708-9.914,5.705-12.847,6.362-16.423,3.712,2.9,5.276,4.032,16.994,8.381,0,0-14.864-13.427-12.562-54.258q2.327-11.04,4.428-22.757a92.023,92.023,0,0,1,8.97,26.522c0-19.124-.947-34.54-2.786-47.529,1.654.965,3.721,2.1,6.385,3.523C547.142,308.818,542.528,303.25,540.34,289.724ZM343.214,175.394c-14.306,0-25.9-16.778-25.9-37.475s11.6-37.475,25.9-37.475,25.9,16.778,25.9,37.475S357.52,175.394,343.214,175.394Zm89.572,0c-14.306,0-25.9-16.778-25.9-37.475s11.6-37.475,25.9-37.475,25.9,16.778,25.9,37.475S447.092,175.394,432.786,175.394Z" transform="translate(-223.786 -0.033)"/></svg>