<svg id="Layer_1" data-name="Layer 1" xmlns="http://www.w3.org/2000/svg" xmlns:xlink="http://www.w3.org/1999/xlink" viewBox="0 0 301 301"><defs><style>.cls-1{stroke:#000;stroke-miterlimit:10;fill:url(#radial-gradient);}</style><radialGradient id="radial-gradient" cx="150.5" cy="150.5" r="150" gradientUnits="userSpaceOnUse"><stop offset="0" stop-color="#36f"/><stop offset="1"/></radialGradient></defs><circle class="cls-1" cx="150.5" cy="150.5" r="150"/><path d="M499.12,313.67c1.79-12.63,6-43,6-51.24,0-52.51-37.69-95.07-84.18-95.07s-84.17,42.56-84.17,95.07c0,8.31,3.83,38.31,5,48.93-1.77,4.52-3.74,6.31-3.74,6.31,1.38-.52,2.48-.94,3.39-1.31a158.08,158.08,0,0,0-1.94,27.35,46.53,46.53,0,0,1,4.39-13.12c.74,6.24,1.51,12.06,2.24,17.37-1.74,16.45-6.64,20.43-6.64,20.43,6.66-2.47,4.65-1,9.08-3.72,1.34,8.77,2.27,14.31,2.26,15.44a46.08,46.08,0,0,1,3-10.51c2.13,8.42,6.1,17.7,13.08,29.68A48.71,48.71,0,0,1,364.29,385c6.74,1.76,8.26,20.49,6.91,25.85q2.58-4.51,4.61-8.54c3.38,13-1.43,25.62-1.43,25.62a134.52,134.52,0,0,0,11.22-23.48c1.76,3.64,3.85,7.53,6.31,11.77a49.05,49.05,0,0,1-2.59-17.65c1.21,2.29,2.53,4.67,4,7.18a46.68,46.68,0,0,1-2.3-10.16c6.57,15.6,13.43,23.91,13.43,23.91A41.89,41.89,0,0,1,402.09,406c10.71,14.48,20.2,20.53,20.2,20.53-3.56-4.36-6.8-12.86-9-22.61a99.58,99.58,0,0,0,9.48,13.71c-2.29-4.89-3.21-11.91-2.87-19.59,8,10.6,8.48,23.86,8.48,23.86a144.62,144.62,0,0,0,1.33-22.21c6.18,13.81,12.23,21.15,12.23,21.15a34.78,34.78,0,0,1-2-8.75C448.35,421.82,454.9,426,454.9,426c-2.24-1.94-3.8-7.6-4.44-13.76a35.27,35.27,0,0,0,2.23,3.5c-1.59-2.87-.07-11,2.46-17.06.61,4.05.75,7,.75,7,.64-2.58,1.56-6.39,2.5-10.2,3.7,6.56.8,19.16.8,19.16,2.33-4,7.49-13,8.2-13.95,3.63,3.93,6.62,4.9,6.62,4.9a26.6,26.6,0,0,1-3.67-9.14c.42-.67.82-1.33,1.18-2A64.22,64.22,0,0,0,478.8,373a19.7,19.7,0,0,1,1.69,7.35c.18,6.23-2.82,12.76-2.82,12.76a50.81,50.81,0,0,0,9.82-24,16.92,16.92,0,0,1,1,6.05c2.38-5,2.88-6.49,3.21-8.3,1.88,1.47,2.67,2,8.59,4.24,0,0-7.51-6.78-6.35-27.41.79-3.71,1.53-7.55,2.24-11.49a46.37,46.37,0,0,1,4.53,13.4,172.34,172.34,0,0,0-1.41-24c.84.49,1.88,1.06,3.23,1.78C502.56,323.31,500.23,320.5,499.12,313.67Zm-102-57.75c-7.23,0-13.08-8.47-13.08-18.92s5.85-18.93,13.08-18.93,13.08,8.47,13.08,18.93S404.31,255.92,397.09,255.92ZM431.72,237c0-10.46,5.86-18.93,13.08-18.93s13.08,8.47,13.08,18.93S452,255.92,444.8,255.92,431.72,247.45,431.72,237Z" transform="translate(-270 -147)"/></svg>