<svg id="Layer_1" data-name="Layer 1" xmlns="http://www.w3.org/2000/svg" xmlns:xlink="http://www.w3.org/1999/xlink" viewBox="0 0 301 301"><defs><style>.cls-1{stroke:#000;stroke-miterlimit:10;fill:url(#radial-gradient);}</style><radialGradient id="radial-gradient" cx="150.5" cy="150.5" r="150" gradientUnits="userSpaceOnUse"><stop offset="0" stop-color="#36f"/><stop offset="1"/></radialGradient></defs><circle class="cls-1" cx="150.5" cy="150.5" r="150"/><path d="M497.11,314.75c1.78-12.5,5.94-42.52,5.94-50.72,0-51.06-36-92.62-80.88-94.08v0l-1.23,0-1.22,0v0c-44.89,1.46-80.88,43-80.88,94.08,0,8.2,4.16,38.22,5.93,50.72-1.09,6.76-3.4,9.55-3.4,9.55,1.34-.71,2.37-1.28,3.2-1.76a170.49,170.49,0,0,0-1.4,23.76A46.15,46.15,0,0,1,347.66,333q1.05,5.85,2.21,11.38c1.15,20.41-6.28,27.13-6.28,27.13,5.86-2.18,6.64-2.75,8.5-4.19.33,1.78.83,3.25,3.18,8.21a16.69,16.69,0,0,1,1-6c-.47,3.23,4.41,20.46,7.18,25.57-.34-1-1.86-13.9.26-14.68,4.64-.29,3.35,15.35,1.28,20,1.61-2.2,4.58-6.17,5.66-7.83,0,3.71,8.09,23.33,13.87,31.11A48.2,48.2,0,0,1,382,410.88c1,1.61,1.8,3,2.29,3.8,0,0-2.88-12.47.79-19,.92,3.76,1.84,7.54,2.48,10.09,0,0,.13-2.89.74-6.89,3.85,1.46,5.21,22.27,1.1,26.45a83.14,83.14,0,0,0,13.9-13.16,34.06,34.06,0,0,1-2,8.66s5.18-6.28,10.83-18.16a82.72,82.72,0,0,0,2.33,13.54,34.23,34.23,0,0,1,1.57-8.75,82.52,82.52,0,0,0,7.65,17.55c-1.23-3.11,1.3-10.5,4.45-16.25a32.59,32.59,0,0,1,3.26,7.45,77.1,77.1,0,0,0-.72-11.5l0,0a91.69,91.69,0,0,0,9.84,16.14,34.06,34.06,0,0,1-2-8.66,83.14,83.14,0,0,0,13.9,13.16c-4.11-4.18-2.75-25,1.1-26.45.61,4,.74,6.89.74,6.89.63-2.55,1.56-6.33,2.48-10.09,3.67,6.49.79,19,.79,19,.49-.84,1.31-2.19,2.29-3.8a48.2,48.2,0,0,1-2.53,12.83c5.78-7.78,13.87-27.4,13.87-31.11,1.08,1.66,4,5.63,5.66,7.83-2.07-4.61-3.36-20.25,1.28-20,2.12.78.6,13.69.26,14.68,2.77-5.11,7.65-22.34,7.18-25.57a16.69,16.69,0,0,1,1,6c2.35-5,2.85-6.43,3.18-8.21,1.86,1.44,2.64,2,8.5,4.19,0,0-7.43-6.72-6.28-27.13q1.16-5.52,2.21-11.38a46.15,46.15,0,0,1,4.49,13.26,170.49,170.49,0,0,0-1.4-23.76c.83.48,1.86,1,3.2,1.76C500.52,324.3,498.21,321.51,497.11,314.75Zm-98.56-57.17c-7.15,0-12.95-8.38-12.95-18.73s5.8-18.74,12.95-18.74,12.95,8.39,12.95,18.74S405.7,257.58,398.55,257.58Zm44.79,0c-7.15,0-12.95-8.38-12.95-18.73s5.8-18.74,12.95-18.74,13,8.39,13,18.74S450.49,257.58,443.34,257.58Z" transform="translate(-270 -147.14)"/></svg>