<svg id="Layer_1" data-name="Layer 1" xmlns="http://www.w3.org/2000/svg" xmlns:xlink="http://www.w3.org/1999/xlink" viewBox="0 0 301 301"><defs><style>.cls-1{stroke:#000;stroke-miterlimit:10;fill:url(#radial-gradient);}</style><radialGradient id="radial-gradient" cx="150.5" cy="150.5" r="150" gradientUnits="userSpaceOnUse"><stop offset="0" stop-color="#36f"/><stop offset="1"/></radialGradient></defs><circle class="cls-1" cx="150.5" cy="150.5" r="150"/><path d="M499.12,313.67c1.79-12.63,6-43,6-51.24,0-52.51-37.69-95.07-84.18-95.07s-84.17,42.56-84.17,95.07c0,8.31,3.83,38.31,5,48.93-1.77,4.52-3.74,6.31-3.74,6.31,1.38-.52,2.48-.94,3.39-1.31a158.08,158.08,0,0,0-1.94,27.35,46.53,46.53,0,0,1,4.39-13.12c.74,6.24,1.51,12.06,2.24,17.37-1.74,16.45-6.64,20.43-6.64,20.43,6.66-2.47,4.65-1,9.08-3.72,1.34,8.77,2.27,14.31,2.26,15.44a46.08,46.08,0,0,1,3-10.51c2.13,8.42,6.1,17.7,13.08,29.68A48.71,48.71,0,0,1,364.29,385c20.48,15.67,10.09,42.93,10.09,42.93C382,414.85,386,405,388,396c1.54,3.05,3.3,6.29,5.32,9.75a49,49,0,0,1-2.58-18.15c14.25,27.94,31.56,39,31.56,39-7.11-8.7-12.93-33.85-11.39-52.56,1.15,7.68,3.44,16.6,7.31,27.88,0,0-2.24-11.77,1.49-22.49,9,15.3,1.95,33.86,1.95,33.86a162.5,162.5,0,0,0,8.17-15.75c17.87,32.54,35.3,30.4,35.3,30.4-12.61-8.28-12.82-20-10.42-36.15,6.56,9.37,1.93,21.5,1.93,21.5.51-.87,10.37-10.59,14.9-18.81A64.22,64.22,0,0,0,478.8,373a19.7,19.7,0,0,1,1.69,7.35c.18,6.23-2.82,12.76-2.82,12.76a50.81,50.81,0,0,0,9.82-24,16.92,16.92,0,0,1,1,6.05c2.38-5,2.88-6.49,3.21-8.3,1.88,1.47,2.67,2,8.59,4.24,0,0-7.51-6.78-6.35-27.41.79-3.71,1.53-7.55,2.24-11.49a46.37,46.37,0,0,1,4.53,13.4,172.34,172.34,0,0,0-1.41-24c.84.49,1.88,1.06,3.23,1.78C502.56,323.31,500.23,320.5,499.12,313.67Zm-102-57.75c-7.23,0-13.08-8.47-13.08-18.92s5.85-18.93,13.08-18.93,13.08,8.47,13.08,18.93S404.31,255.92,397.09,255.92Zm47.71,0c-7.22,0-13.08-8.47-13.08-18.92s5.86-18.93,13.08-18.93,13.08,8.47,13.08,18.93S452,255.92,444.8,255.92Z" transform="translate(-270 -147)"/></svg>