<svg id="Layer_1" data-name="Layer 1" xmlns="http://www.w3.org/2000/svg" viewBox="0 0 336.69 521.12"><defs><style>.cls-1{fill:#7a1f00;}</style></defs><path class="cls-1" d="M656.35,532.06c3.59-25.25,12-85.91,12-102.47,0-105-75.37-190.15-168.35-190.15S331.65,324.57,331.65,429.59c0,16.61,7.66,76.61,10,97.85-3.53,9-7.48,12.62-7.48,12.62,2.78-1,5-1.88,6.79-2.61-2.56,14.45-3.87,32-3.88,54.69a93.17,93.17,0,0,1,8.78-26.24c1.49,12.48,3,24.13,4.48,34.74-3.48,32.91-13.27,40.87-13.27,40.87,13.3-4.94,9.3-2,18.15-7.45,2.68,17.54,4.53,28.62,4.52,30.89a92.31,92.31,0,0,1,6-21c4.26,16.84,12.2,35.4,26.16,59.37a97.36,97.36,0,0,1-5.23-28.59c41,31.35,20.16,85.86,20.16,85.86,15.21-26.13,23.27-45.82,27.23-63.86,3.08,6.11,6.61,12.58,10.64,19.5a97.86,97.86,0,0,1-5.15-36.29,253.92,253.92,0,0,0,30.92,47.33V637h-43V578h43v-8h0l.08-46.23C470.6,489,497.44,463,521.44,463H572.5v54H547.71c-10.23,0-23.21,9.79-23.21,20.8l-.1,40.2h43.1v59h-46v69.29c34.39,58.19,66.85,54.21,66.85,54.21-25.22-16.55-25.64-39.92-20.84-72.3,13.12,18.75,3.87,43,3.87,43,1-1.74,20.73-21.18,29.79-37.61a128.22,128.22,0,0,0,14.53-42.9,39.41,39.41,0,0,1,3.39,14.69c.36,12.47-5.63,25.52-5.63,25.53a102,102,0,0,0,19.64-48.09c2.45,7.61,2,12.1,2,12.1,4.76-10,5.76-13,6.43-16.59,3.75,2.93,5.33,4.07,17.16,8.47,0,0-15-13.56-12.69-54.81,1.57-7.43,3.06-15.11,4.48-23a93.2,93.2,0,0,1,9.06,26.79c0-19.31-1-34.88-2.82-48,1.67,1,3.76,2.12,6.45,3.55C663.22,551.34,658.56,545.72,656.35,532.06ZM452.29,416.57c-14.45,0-26.17-16.95-26.17-37.85s11.72-37.85,26.17-37.85,26.16,16.94,26.16,37.85S466.74,416.57,452.29,416.57Zm95.42,0c-14.45,0-26.16-16.95-26.16-37.85s11.71-37.85,26.16-37.85,26.17,16.94,26.17,37.85S562.16,416.57,547.71,416.57Z" transform="translate(-331.65 -239.44)"/></svg>