<svg id="Layer_1" data-name="Layer 1" xmlns="http://www.w3.org/2000/svg" viewBox="0 0 336.69 521.12"><defs><style>.cls-1{fill:#7a1f00;}</style></defs><path class="cls-1" d="M656.77,547.79c1.67,1,3.76,2.12,6.45,3.55a15.8,15.8,0,0,1-1.15-1.72c-1.52-2.58-4.2-8.17-5.72-17.56,3.59-25.25,12-85.91,12-102.47,0-105-75.37-190.15-168.35-190.15-33,0-63.75,10.72-89.72,29.24L408.39,270a173.44,173.44,0,0,0-21.58,18.8c-2,2-3.94,4.14-5.85,6.29q-5.71,6.45-10.86,13.51c-.86,1.17-1.71,2.36-2.54,3.55q-2,2.9-3.91,5.87c-1.1,1.72-2.19,3.45-3.25,5.22-1.51,2.52-3,5.1-4.37,7.71-1.06,1.95-2.07,3.94-3.06,5.94s-2,4-2.9,6.09c-.62,1.37-1.22,2.75-1.82,4.13q-1.77,4.16-3.37,8.42c-1.59,4.27-3.06,8.62-4.38,13a212.3,212.3,0,0,0-8.85,61c0,14.54,5.86,62.29,8.91,88.23.05.46.1.92.16,1.36.37,3.15.69,5.93.94,8.26h0c-3.53,9-7.48,12.62-7.48,12.62,2.78-1,5-1.88,6.79-2.61h0c-.35,1.93-.66,3.92-1,6-1.92,13.27-2.92,29.05-2.92,48.72,0,0,0-.2.09-.55l0-.1c.1-.56.26-1.46.52-2.65l.06-.28q.18-.84.42-1.83c.16-.66.33-1.36.53-2.11l.37-1.33.15-.55.41-1.4c.06-.21.13-.41.19-.63.18-.58.37-1.17.57-1.78s.5-1.47.77-2.22a86,86,0,0,1,4.68-10.81h0c1.49,12.48,3,24.13,4.48,34.74-.11,1-.23,2-.35,3s-.24,1.94-.37,2.87q-.44,3-.93,5.71c-.25,1.4-.51,2.73-.79,4-.35,1.65-.72,3.22-1.1,4.68-.3,1.14-.61,2.22-.92,3.25l-.3,1c-.27.87-.55,1.71-.83,2.5-.69,2-1.38,3.67-2.06,5.15-.19.42-.38.82-.57,1.21-2.76,5.65-5.05,7.53-5.05,7.53,1.66-.62,3.05-1.11,4.23-1.51l1.62-.54,1.15-.37.34-.1,1.36-.41.55-.16,1.07-.32.42-.13c.29-.09.57-.18.85-.29l.43-.17.52-.23.34-.16.77-.4.47-.26.42-.24c.92-.52,2.07-1.21,3.61-2.16h0c2.68,17.54,4.53,28.62,4.52,30.89a92.17,92.17,0,0,1,6-21h0c4.26,16.84,12.2,35.39,26.16,59.37a97.17,97.17,0,0,1-5.23-28.59h0c2.95.77,5.41,3.19,7.41,6.59a62.21,62.21,0,0,1,15.63,28h0c5.27,20.32.55,40.17-1.77,47.87h0c-.27.92-.51,1.66-.7,2.21l0,.05c-.11.35-.21.62-.28.81v0a.82.82,0,0,0-.06.16l0,0,0,0c.85-1.45,1.66-2.87,2.46-4.28l.67-1.19c.64-1.14,1.27-2.26,1.88-3.38.16-.29.33-.58.48-.87.72-1.31,1.42-2.61,2.1-3.89l.65-1.24,1.44-2.76.66-1.3c.6-1.18,1.18-2.34,1.75-3.5.22-.45.44-.9.65-1.35.37-.77.74-1.52,1.09-2.28.25-.53.51-1.07.75-1.6.35-.74.68-1.48,1-2.21s.74-1.64,1.09-2.45c.27-.61.53-1.22.79-1.82l.77-1.82c.2-.5.4-1,.61-1.48.44-1.09.87-2.17,1.28-3.24l.48-1.24c.25-.65.48-1.29.72-1.93l.42-1.18c.23-.65.47-1.3.69-1.94a153.91,153.91,0,0,0,4.79-16.91q1.28,2.52,2.66,5.15h0l0,.06,2,3.64,1,1.82,1.54,2.77.89,1.58c.83,1.47,1.68,2.95,2.56,4.46v0l0-.07,0,0-.09-.26h0c0-.12-.1-.27-.16-.45v0c-.06-.17-.13-.37-.2-.6v0c-.16-.47-.35-1.06-.55-1.74l0,0c-.2-.69-.43-1.48-.67-2.37v0c-.6-2.22-1.27-5-1.86-8.26l0-.11c-.23-1.27-.45-2.6-.65-4l0-.16a93.81,93.81,0,0,1-.83-18.09,261.49,261.49,0,0,0,22.84,37c.53.72,1.06,1.42,1.59,2.12l.41.54,1.52,2c.16.19.31.39.46.59l1.45,1.82.51.63c.46.58.93,1.15,1.39,1.72l.53.63.22.27V669.33c.8.72,1.61,1.44,2.44,2.16l1.11,1c.77.67,1.56,1.34,2.36,2l1.07.91q1.66,1.39,3.4,2.82l.77.62c1,.81,2,1.62,3,2.43l1.07.85c1.27,1,2.56,2,3.88,3l0,0,0,0-.11-.13,0,0-.56-.64,0,0c-.38-.44-.88-1-1.48-1.78h0a99.05,99.05,0,0,1-16.82-31.32V637h-43V578h43v-8h0l.08-46.23C470.6,489,497.44,463,521.44,463H572.5v54H547.71c-10.23,0-23.21,9.79-23.21,20.8l-.1,40.2h43.1v59h-46v43.63c-4.27,16.76-13.59,29.8-17.91,35.19h0c-.6.75-1.1,1.34-1.48,1.79l0,0-.56.64,0,0-.12.13,0,0,0,0c1.32-1,2.61-2,3.88-3l1.07-.85c1-.82,2-1.62,3-2.43l.77-.63q1.74-1.41,3.4-2.81l1.07-.91c.8-.68,1.59-1.35,2.36-2l1.11-1c1-.87,2-1.73,2.93-2.59l.6-.55v4.56a180.88,180.88,0,0,0,16.78,24.07c-.06-.47-.13-.93-.18-1.41a188.42,188.42,0,0,0,20.93,21,73.84,73.84,0,0,0,6.72,4.21c-3.33-5.17-5.65-14.69-6.71-24.91a68.51,68.51,0,0,0,4.45,7c-2.42-4.36-1.24-14.85,1.69-24.93a201.14,201.14,0,0,1,2.33-23.07,38,38,0,0,1,5.9,13.54c.49-2,1-4.06,1.5-6.11,4.35,7.7,4.14,19.55,3.23,28,6-6.61,14.68-16.58,20.68-26.11.39-.61.76-1.22,1.13-1.84l.13-.22c.38-.63.74-1.26,1.09-1.89h0a127.31,127.31,0,0,0,9-20.24l.64-1.89q1.1-3.37,1.93-6.5c.13-.45.24-.91.36-1.35.78-3,1.39-5.85,1.87-8.43.3-1.59.55-3.1.76-4.49a39.41,39.41,0,0,1,3.39,14.69c0,.39,0,.78,0,1.17a52.38,52.38,0,0,1-1.4,11.34c-.14.62-.29,1.22-.44,1.81-.1.42-.21.84-.32,1.24l-.27,1c-.21.72-.42,1.42-.63,2.08-.52,1.61-1,3-1.45,4.13-.07.2-.14.38-.21.56-.56,1.42-.93,2.23-.93,2.24.68-.92,1.4-1.91,2.12-2.95a101.46,101.46,0,0,0,11.23-20.87c.62-1.55,1.16-3.07,1.67-4.58s1-3,1.43-4.51c.18-.61.34-1.2.5-1.79a103.4,103.4,0,0,0,2.69-13.39h0c2.45,7.61,2,12.1,2,12.1.76-1.59,1.41-3,2-4.25l.59-1.3c.44-1,.82-1.86,1.16-2.66.14-.32.26-.62.38-.91s.34-.82.48-1.2c.22-.55.4-1.06.57-1.54.33-.93.58-1.75.78-2.53l.24-1c.07-.36.15-.71.21-1.07l0-.13c3.75,2.93,5.33,4.07,17.16,8.47,0,0-15-13.57-12.69-54.81.32-1.47.62-3,.93-4.46.15-.76.31-1.52.46-2.29q1.6-8,3.09-16.24h0a87.86,87.86,0,0,1,5.24,12.15c.13.38.26.75.38,1.12a87.68,87.68,0,0,1,3.44,13.52c0-19.31-1-34.88-2.82-48ZM478.45,378.72a54.42,54.42,0,0,1-.3,5.76c-.06.63-.14,1.25-.23,1.87-.17,1.23-.39,2.44-.64,3.63a51.12,51.12,0,0,1-1.41,5.15,42.61,42.61,0,0,1-2.62,6.24c-.5,1-1,1.9-1.59,2.8s-1.16,1.75-1.78,2.57c-4.65,6.11-10.82,9.83-17.59,9.83s-13-3.72-17.59-9.83c-.62-.82-1.22-1.67-1.78-2.57s-1.1-1.83-1.6-2.8a44.91,44.91,0,0,1-2.62-6.24,48.59,48.59,0,0,1-1.4-5.15c-.26-1.19-.47-2.4-.65-3.63-.08-.62-.16-1.24-.23-1.87a57.22,57.22,0,0,1-.3-5.76h0c0-20.91,11.72-37.85,26.17-37.85s26.16,16.94,26.16,37.85Zm69.26,37.85h0c-14.45,0-26.16-16.95-26.16-37.85,0-13.07,4.57-24.59,11.53-31.39,4.18-4.08,9.21-6.46,14.63-6.46,14.45,0,26.17,16.94,26.17,37.85S562.16,416.57,547.71,416.57Z" transform="translate(-331.65 -239.44)"/></svg>