<svg id="Layer_1" data-name="Layer 1" xmlns="http://www.w3.org/2000/svg" viewBox="0 0 336.69 521.12"><defs><style>.cls-1{fill:#7a1f00;}</style></defs><path class="cls-1" d="M658.69,646.75l-.24-.24a18.47,18.47,0,0,1-1.52-1.81l-.12-.16c-.44-.59-.94-1.3-1.48-2.15-.08-.12-.16-.27-.25-.4s-.23-.37-.35-.57l-.47-.83c0-.09-.1-.17-.14-.26-.15-.25-.29-.53-.43-.8l-.21-.39c-.1-.19-.19-.39-.29-.58l-.36-.73q-.24-.51-.48-1.05l-.17-.38c-.16-.36-.32-.75-.49-1.14-.05-.14-.11-.26-.16-.4l-.27-.68c-.34-.88-.68-1.79-1-2.77s-.71-2.22-1-3.42l-.15-.53c-.06-.21-.11-.44-.17-.65-.32-1.22-.63-2.49-.91-3.83,0-.11-.05-.23-.07-.33-.14-.69-.28-1.39-.41-2.12,0-.25-.09-.53-.14-.8-.1-.58-.2-1.17-.29-1.78s-.14-1-.21-1.5-.12-.8-.17-1.22-.11-1-.17-1.49-.1-.9-.15-1.38a126.3,126.3,0,0,1-.55-12.82v-.14c0-2.12.09-4.35.21-6.65l0-.76c.32-1.48.62-3,.93-4.47.15-.76.31-1.51.46-2.27v0c.49-2.4,1-4.83,1.43-7.28.08-.45.17-.9.26-1.35.47-2.51.94-5,1.4-7.59h0c.53,1,1,2,1.51,3l.12.26c.47,1,.91,2,1.33,3h0c.42,1,.81,1.95,1.17,2.9a2.44,2.44,0,0,1,.1.24c.36.94.7,1.87,1,2.77h0c.13.38.26.75.38,1.12v0c.15.43.28.84.41,1.26,0,.13.09.27.13.4l.27.88.12.4c.1.33.2.66.29,1l.06.21c.11.38.21.76.31,1.12l.09.34.21.76.09.35c.07.27.13.52.19.78l.06.23c.08.31.15.62.22.92l.06.25c.05.21.09.42.14.62l.06.29c0,.19.08.37.12.55s0,.15,0,.22c.05.23.09.45.14.66l0,.19c0,.14.06.28.08.41a2.07,2.07,0,0,1,0,.22c0,.11,0,.21.06.31s0,.12,0,.18,0,.25.06.35,0,.09,0,.13,0,.13,0,.18l0,.1v.1l0,.1c0-1.2,0-2.4,0-3.57,0-5.9-.17-11.43-.39-16.65q-.27-6.26-.71-11.92c-.07-.95-.15-1.88-.23-2.81-.4-4.62-.9-9-1.48-13.05h0c1.67,1,3.76,2.12,6.45,3.55h0l0,0,0,0-.13-.18,0-.05-.18-.26,0-.06c-.09-.12-.18-.26-.28-.42l-.07-.11c-.11-.17-.22-.35-.34-.56v0c-.12-.2-.25-.43-.38-.67a2,2,0,0,1-.11-.2c-.13-.23-.26-.48-.39-.74l-.06-.11c-.15-.3-.3-.62-.46-1l-.12-.26c-.14-.3-.27-.6-.41-.93a2.29,2.29,0,0,1-.1-.23c-.17-.39-.33-.8-.5-1.24l-.12-.31c-.14-.37-.27-.75-.41-1.15l-.12-.34c-.17-.5-.34-1-.5-1.55l-.1-.31c-.14-.46-.27-.94-.41-1.43l-.12-.45c-.16-.6-.31-1.22-.46-1.87l-.06-.25c-.13-.57-.26-1.17-.38-1.79,0-.18-.08-.37-.11-.55-.14-.72-.27-1.45-.4-2.21h0c3.59-25.25,12-85.91,12-102.47a212.3,212.3,0,0,0-8.85-61c-.44-1.47-.9-2.93-1.37-4.39q-1.7-5.22-3.65-10.28-1.87-4.89-4-9.65c-.47-1.06-1-2.11-1.44-3.16q-1.9-4.1-4-8.06-1.11-2.13-2.27-4.22-2.24-4-4.62-7.9c-.8-1.28-1.6-2.55-2.42-3.81a187.43,187.43,0,0,0-16.71-22c-1.91-2.15-3.85-4.25-5.85-6.29s-4-4-6.11-6q-1.56-1.46-3.15-2.86-5.45-4.85-11.25-9.16c-1.77-1.32-3.57-2.62-5.39-3.87s-3.8-2.54-5.74-3.75c-1.62-1-3.25-2-4.91-3-1.21-.7-2.43-1.38-3.65-2.05A157.13,157.13,0,0,0,557.88,251c-2.58-1.07-5.18-2.07-7.82-3s-5.3-1.78-8-2.56a148.9,148.9,0,0,0-16.43-3.8A150.9,150.9,0,0,0,500,239.44c-1.3,0-2.59,0-3.88.06-.36,0-.71,0-1.07,0-1,0-2.07.08-3.11.13l-.83,0c-1.26.08-2.52.17-3.77.27l-1,.09-2.9.29-1.15.13c-1.22.15-2.44.3-3.65.47l-.64.1c-1,.15-2,.31-3.07.49l-1.29.22-2.64.49-1.1.22c-1.13.23-2.26.47-3.39.73l-1.4.33-2.22.55-1.5.38q-1.47.39-2.94.81l-1.71.51-2,.61-1.72.55-1.79.6-2.75,1-1.8.66-1.91.74-1.38.55c-.66.27-1.32.53-2,.81l-.85.36c-1.33.57-2.65,1.15-4,1.75l-1,.48c-.72.33-1.43.67-2.13,1l-.8.4q-2.24,1.09-4.42,2.27l-.33.17c-.76.4-1.51.82-2.27,1.24l-.66.37c-2.37,1.33-4.71,2.73-7,4.18l-.46.3c-.78.49-1.55,1-2.33,1.5h0c-1.66,1.1-3.3,2.22-4.92,3.38h0L408.39,270c-2.72,2-5.4,4.1-8,6.27l-.49.4c-.65.54-1.29,1.09-1.93,1.64l-1.12,1-1.63,1.45-1.42,1.3c-.47.42-.93.85-1.38,1.28s-1.17,1.11-1.75,1.67l-1.06,1c-.94.92-1.87,1.85-2.79,2.8-2,2-3.94,4.14-5.85,6.29q-5.71,6.45-10.86,13.51c-.86,1.17-1.71,2.36-2.54,3.55-.69,1-1.37,2-2,3s-1.25,1.9-1.87,2.86c-1.1,1.72-2.19,3.45-3.25,5.22s-2.15,3.69-3.19,5.56c-.39.72-.8,1.43-1.18,2.15l0,0c-.55,1-1.09,2.06-1.62,3.1s-.95,1.87-1.42,2.81-.93,1.9-1.38,2.85-1,2.14-1.51,3.22v0c-.62,1.37-1.22,2.75-1.82,4.13q-1.77,4.16-3.37,8.42c-.71,1.9-1.38,3.82-2,5.74l-.48,1.45q-1,2.89-1.86,5.84c-.41,1.36-.79,2.72-1.17,4.08-.12.43-.24.87-.35,1.3-.26.95-.51,1.9-.76,2.86l-.37,1.48c-.23.94-.45,1.88-.67,2.82-.11.47-.23.94-.33,1.42-.26,1.13-.5,2.26-.74,3.4-.05.27-.11.54-.17.81-.29,1.41-.56,2.82-.82,4.24-.07.39-.13.78-.2,1.17-.19,1-.36,2.09-.53,3.13l-.24,1.52c-.15,1-.29,1.93-.42,2.9-.07.5-.15,1-.21,1.52-.14,1.06-.27,2.12-.4,3.18,0,.4-.1.8-.14,1.21-.16,1.45-.31,2.91-.44,4.37,0,.29-.05.58-.07.86-.11,1.19-.2,2.38-.29,3.58l-.09,1.49c-.06,1-.12,2-.17,3,0,.53-.05,1.06-.07,1.6-.05,1-.08,2.07-.11,3.1,0,.48,0,.95,0,1.42,0,1.5-.05,3-.05,4.51h0c0,.42,0,.87,0,1.34v.2c0,.45,0,.93.05,1.42,0,.1,0,.2,0,.3,0,.5,0,1,.07,1.57,0,.09,0,.18,0,.26,0,.59.06,1.18.1,1.81h0c0,.63.08,1.29.13,1.95,0,.1,0,.2,0,.3,0,.64.09,1.3.14,2l0,.41c0,.68.11,1.38.17,2.09l0,.33c.06.75.13,1.52.2,2.31v0c.07.79.14,1.6.21,2.42l0,.36c.07.78.15,1.58.22,2.39,0,.16,0,.32.05.48.08.81.15,1.63.23,2.46,0,.13,0,.27,0,.41q.14,1.31.27,2.64v.05c.09.88.18,1.78.27,2.69,0,.15,0,.31.05.46l.27,2.64.06.53c.09.89.19,1.79.28,2.69l.06.48.3,2.82v.08c.1.95.21,1.91.31,2.87,0,.15,0,.3.05.45.11.94.21,1.89.32,2.83,0,.16,0,.33.05.49.11.94.21,1.88.32,2.82,0,.16,0,.31.05.46l.33,2.92v.05l.33,3,.05.41.33,2.81.06.54c.1.91.21,1.81.31,2.71l.06.53q.17,1.4.33,2.76v.11c.1.89.21,1.78.31,2.65,0,.24.06.49.08.73.1.82.2,1.63.29,2.44l.08.66c.1.82.19,1.63.29,2.44l.15,1.29,0,.19c.13,1,.25,2.05.36,3.05l.18,1.48c.32,2.72.63,5.3.91,7.7.05.46.1.92.16,1.36.09.75.17,1.48.25,2.18l0,.16c.08.65.15,1.28.22,1.89,0,.13,0,.25,0,.38.07.58.13,1.14.19,1.68,0,.11,0,.23,0,.34.07.57.13,1.11.18,1.63h0c-.14.36-.28.7-.43,1q-.57,1.38-1.14,2.58c-2.8,5.87-5.45,8.55-5.85,8.94l0,0,0,0c2.08-.77,3.84-1.44,5.35-2l1.44-.57h0c-.17,1-.34,1.94-.5,2.94v0c-.16,1-.31,2-.46,3q-.5,3.42-.91,7.08l-.09.86c-.07.6-.13,1.22-.2,1.84,0,.36-.07.72-.11,1.09-.06.59-.11,1.19-.17,1.79,0,.4-.07.81-.11,1.22-.05.59-.1,1.18-.14,1.78,0,.44-.07.88-.11,1.32,0,.59-.09,1.18-.13,1.77s-.06,1-.1,1.47-.07,1.14-.11,1.72c-.06,1-.12,2.06-.17,3.11,0,.48-.05,1-.07,1.46l-.09,2-.06,1.55c0,.66-.05,1.31-.08,2s0,1.05-.05,1.58,0,1.37-.05,2.06c0,.52,0,1.05,0,1.58,0,.73,0,1.48-.05,2.22,0,.5,0,1,0,1.51,0,.83,0,1.68,0,2.54,0,.43,0,.86,0,1.29,0,1.3,0,2.61,0,3.94V592c0-.1,0-.27.08-.49h0c0-.13.05-.28.08-.44V591c.06-.35.15-.78.25-1.27v-.07c.11-.56.25-1.2.42-1.91l0-.09c.06-.29.13-.59.21-.91h0c.16-.65.33-1.35.53-2.09h0c.12-.43.24-.87.36-1.33h0l.15-.53h0l.41-1.4h0c.06-.21.13-.42.19-.63h0c.63-2,1.38-4.22,2.28-6.52a1.8,1.8,0,0,1,.08-.21c.31-.79.64-1.6,1-2.42l.12-.27c.35-.82.72-1.65,1.11-2.48,0-.07.07-.14.1-.22.42-.89.87-1.79,1.33-2.69h0c1.49,12.48,3,24.13,4.48,34.74-.11,1-.23,2-.35,3s-.24,1.94-.37,2.87-.29,2-.45,2.92c0,0,0,.07,0,.11q-.59,3.57-1.25,6.66v0h0c-.17.82-.35,1.62-.53,2.38v0c-.19.77-.37,1.53-.56,2.26s-.31,1.15-.47,1.7c-.68,2.4-1.38,4.52-2.08,6.39l0,.06c-.17.44-.33.86-.49,1.26l0,.08c-.16.41-.32.8-.48,1.18l0,.06c-.36.84-.72,1.62-1.07,2.34h0c-2.66,5.45-4.88,7.38-5,7.52h0l1.67-.61c1.69-.61,3.06-1.08,4.18-1.44l.62-.2.86-.27h0l.68-.2.06,0,.6-.18h0l.55-.16.52-.15.07,0,.48-.14h0l.42-.13c.29-.09.57-.18.85-.29l.43-.17.52-.23h0l.34-.16h0l.76-.4h0l.47-.26h0l.41-.24h0c.67-.38,1.46-.85,2.44-1.44l.17-.11,1-.61h0c.24,1.59.48,3.1.7,4.58.54,3.44,1,6.6,1.47,9.42l.54,3.5c.16,1,.3,2,.44,2.9.2,1.25.37,2.4.52,3.45.09.63.18,1.21.26,1.76.17,1.21.31,2.26.41,3.09h0a21.52,21.52,0,0,1,.18,2.18l0-.1v0c0-.3.18-1.18.43-2.49l0-.08c.12-.61.26-1.31.43-2.09l.06-.27c.13-.61.29-1.27.46-2a1,1,0,0,1,0-.17q.27-1.11.6-2.34l0-.08c0-.17.09-.34.14-.51l.09-.34c.16-.57.33-1.14.51-1.73v0c.17-.55.35-1.11.53-1.68l.06-.18c.37-1.13.77-2.29,1.21-3.48.14-.35.27-.71.41-1.06.31-.79.63-1.59,1-2.39h0c.26,1.06.54,2.11.84,3.18.39,1.4.81,2.82,1.25,4.25s.82,2.59,1.27,3.9.93,2.73,1.44,4.13c.37,1,.76,2,1.15,3.06q2,5.22,4.52,10.79c.36.8.73,1.61,1.11,2.42,1.31,2.84,2.74,5.76,4.26,8.77s3.08,6,4.78,9.06,3.57,6.43,5.54,9.81a96.21,96.21,0,0,1-5.05-25.13c-.08-1.08-.14-2.19-.18-3.31v-.15h0a8.38,8.38,0,0,1,1.16.4l.37.19c.25.12.5.24.74.38l.43.28.63.45.43.36.58.52.42.42.54.61.4.47c.18.23.35.46.52.7l.36.5c.2.29.39.6.58.91.09.14.17.26.25.4a62.21,62.21,0,0,1,15.63,28h0c.19.73.36,1.47.53,2.21.05.23.1.45.14.68.12.52.22,1,.32,1.57,0,.24.1.49.14.73.1.56.2,1.12.29,1.68,0,.17,0,.35.08.52.11.73.21,1.46.3,2.18,0,.15,0,.29,0,.43.07.59.14,1.18.19,1.76l.06.65.12,1.6c0,.19,0,.39,0,.58,0,.7.07,1.4.09,2.09h0c0,.72,0,1.44,0,2.15v.44c0,.56,0,1.11,0,1.66,0,.18,0,.35,0,.52,0,.58,0,1.16-.05,1.73,0,.09,0,.19,0,.29-.05,1.37-.14,2.71-.25,4l0,.34c0,.56-.1,1.1-.16,1.64l0,.3c-.13,1.29-.29,2.54-.47,3.74v0c-.09.58-.18,1.14-.27,1.69l0,.22q-.13.81-.27,1.59l0,.07c-.2,1.12-.41,2.19-.63,3.2l0,.1c-.1.47-.2.92-.3,1.36l0,.13c-.32,1.4-.65,2.66-1,3.77a1.46,1.46,0,0,0,0,.2c-.09.29-.17.58-.24.86l-.06.19c-.09.32-.18.62-.27.91h0c-.08.28-.16.53-.23.77a2.58,2.58,0,0,0-.08.26l-.15.46-.06.19c-.07.19-.12.37-.18.53h0c-.12.37-.22.66-.29.85h0c0,.08-.05.13-.06.18v0h0l0,.09c.85-1.45,1.66-2.87,2.46-4.28l.41-.72c.09-.16.17-.32.26-.47.64-1.14,1.27-2.26,1.88-3.37.16-.29.33-.59.48-.88.72-1.31,1.42-2.61,2.1-3.89l.65-1.24c.49-.93,1-1.84,1.43-2.75l.67-1.31c.6-1.18,1.18-2.34,1.75-3.5l.66-1.36c.36-.76.73-1.51,1.08-2.26.25-.54.51-1.08.75-1.61.35-.74.68-1.47,1-2.21h0l1.09-2.44h0c.27-.61.54-1.22.79-1.82l.77-1.82c.2-.5.4-1,.61-1.48.44-1.09.87-2.17,1.28-3.24h0c.15-.41.32-.82.47-1.23.1-.26.2-.53.29-.79s.29-.77.43-1.15l.42-1.17c.23-.65.47-1.3.69-1.94a153.91,153.91,0,0,0,4.79-16.91q1.28,2.52,2.66,5.15h0l0,.06,2,3.64,1,1.82,1.54,2.77.89,1.58c.83,1.47,1.68,2.95,2.56,4.46v0l0-.07,0,0-.09-.26h0c0-.12-.1-.27-.16-.45v0c-.06-.17-.13-.37-.2-.6v0c-.16-.47-.35-1.06-.55-1.74l0,0c-.2-.69-.43-1.48-.67-2.37v0c-.6-2.22-1.27-5-1.86-8.26l0-.11c-.14-.77-.28-1.57-.41-2.39h0l0-.19-.21-1.41,0-.16s0-.08,0-.11c-.09-.66-.18-1.33-.26-2h0a93.62,93.62,0,0,1-.55-16,261.49,261.49,0,0,0,22.84,37c.53.72,1.06,1.42,1.59,2.12l.41.54.71.92.82,1.06.45.58,1.45,1.82.5.63,1.41,1.72.52.63.14.17.08.1V669.33c.8.72,1.61,1.44,2.44,2.16l1.11,1c.77.67,1.56,1.34,2.36,2l1.07.91q1.66,1.39,3.4,2.82l.77.62c1,.81,2,1.62,3,2.43l1.07.85c1.27,1,2.56,2,3.88,3l0,0,0,0-.11-.13,0,0-.56-.64,0,0c-.38-.44-.88-1-1.48-1.78h0a99.05,99.05,0,0,1-16.82-31.32V637h-43V578h43v-8h0l.08-46.23C470.6,489,497.44,463,521.44,463H572.5v54H547.71c-10.23,0-23.21,9.79-23.21,20.8l-.1,40.2h43.1v59h-46v43.63c-3.7,14.53-11.18,26.24-15.93,32.62l.66,1.4,0,0c1-.82,2-1.62,3-2.43l.77-.63q1.74-1.41,3.4-2.81l1.07-.91c.8-.68,1.59-1.35,2.36-2l.8-.7c0-.33,0-.66,0-1l.33.73c1-.87,2-1.73,2.93-2.59l.6-.55v4.56a180.88,180.88,0,0,0,16.78,24.07c-.06-.47-.13-.93-.18-1.41h0l.34.39,1.2,1.38.65.73.87,1,.72.79.78.86.73.79c.25.27.49.54.74.8l.77.81.67.71.82.85.58.6.85.86.54.54c.29.29.57.58.86.86l.48.47.89.87.42.41.92.89c.12.1.23.21.34.32l1,.91.26.24,1,.91a1.8,1.8,0,0,1,.2.19l1,.91.13.12,1,.92.06.06,1,.91h0l1,.87a73.54,73.54,0,0,0,6.71,4.2,20.71,20.71,0,0,1-1.15-2.06.54.54,0,0,1-.07-.13c-.17-.34-.33-.69-.5-1.06l-.09-.21c-.15-.36-.31-.72-.46-1.1a2.77,2.77,0,0,0-.1-.26c-.14-.38-.29-.76-.43-1.16,0-.07-.05-.15-.08-.23-.29-.82-.56-1.68-.83-2.58,0-.06,0-.12,0-.18l-.21-.74c-.09-.34-.19-.68-.28-1l-.15-.64c-.11-.4-.21-.82-.3-1.23l-.12-.53c-.11-.48-.22-1-.32-1.46,0-.13-.05-.26-.08-.38-.11-.59-.23-1.18-.34-1.78a.51.51,0,0,0,0-.13c-.46-2.57-.84-5.26-1.12-8a68.51,68.51,0,0,0,4.45,7c-2.42-4.36-1.24-14.85,1.69-24.93a201.14,201.14,0,0,1,2.33-23.07,38,38,0,0,1,5.9,13.54c.49-2,1-4.06,1.5-6.11h0c.25.44.48.91.7,1.38.08.16.14.32.21.48q.23.5.42,1c.08.19.15.39.22.59s.22.63.33,1,.13.41.19.62.19.67.28,1,.11.4.16.61c.09.38.17.77.25,1.17,0,.16.08.32.11.48.11.56.2,1.12.29,1.69l0,.25c.08.49.14,1,.2,1.48l.06.57c0,.4.07.79.11,1.18,0,.21,0,.43,0,.64,0,.38.05.77.07,1.16l0,.6c0,.42,0,.83,0,1.24,0,.17,0,.34,0,.51,0,.52,0,1,0,1.55V715c0,.61,0,1.21,0,1.8v0c0,.57,0,1.13-.07,1.69,0,.1,0,.2,0,.31,0,.47,0,.93-.09,1.39,0,.11,0,.22,0,.32,0,.47-.07.92-.11,1.37l0,.25c0,.51-.09,1-.15,1.51h0c6-6.61,14.68-16.58,20.68-26.11.39-.61.76-1.22,1.13-1.84l.13-.22c.38-.63.74-1.26,1.09-1.89h0a127.31,127.31,0,0,0,9-20.24l.64-1.89q1.1-3.37,1.93-6.5c.13-.45.24-.91.36-1.35.78-3,1.39-5.85,1.87-8.43.3-1.59.55-3.1.76-4.49a39.41,39.41,0,0,1,3.39,14.69c0,.18,0,.36,0,.53,1.29,2.55,1.36,8.88,1,15a101.76,101.76,0,0,0,6.69-13.77c.62-1.55,1.16-3.07,1.67-4.58s1-3,1.43-4.51c.18-.61.34-1.2.5-1.79a103.4,103.4,0,0,0,2.69-13.39h0c.3.95.56,1.86.79,2.71h0a30.21,30.21,0,0,1,1.26,9.39l.71-1.5.28-.6.27-.58.71-1.53,0-.06.57-1.27v0c.22-.48.42-.93.61-1.37v0l.54-1.24v0l.37-.89v0l.47-1.18h0c.22-.55.4-1.06.57-1.53h0c.33-.93.58-1.75.78-2.53h0l.24-1h0c.07-.35.15-.7.21-1l0-.14h0c3.75,2.93,5.33,4.07,17.16,8.47Zm-180.24-268h0c0,.87,0,1.73-.06,2.59,0,.21,0,.43,0,.64-.05.85-.11,1.7-.2,2.53h0c-.06.63-.14,1.25-.23,1.87-.17,1.23-.39,2.44-.64,3.63h0c-.17.79-.37,1.56-.57,2.33,0,.19-.1.38-.16.57-.21.76-.43,1.51-.68,2.25h0a42.61,42.61,0,0,1-2.62,6.24c-.5,1-1,1.9-1.59,2.8-.29.45-.57.89-.87,1.32s-.6.84-.91,1.25-.61.78-.92,1.15c-.1.13-.21.25-.32.37s-.42.49-.64.72l-.39.41-.6.62-.43.41c-.2.19-.4.38-.6.55l-.46.4c-.2.17-.39.34-.6.5l-.48.37c-.2.15-.4.31-.61.45l-.5.35-.62.4-.51.32-.64.36-.53.28-.64.32-.54.24-.67.28-.54.2c-.23.09-.46.16-.69.23l-.54.17-.72.19-.53.13-.77.14-.51.09c-.28,0-.57.06-.86.09l-.43,0c-.43,0-.86.05-1.3.05s-.88,0-1.31-.05l-.43,0-.86-.09-.5-.09-.77-.14-.53-.13-.72-.19-.55-.17c-.23-.07-.46-.14-.68-.23a5.2,5.2,0,0,1-.55-.21l-.66-.27-.54-.24-.65-.32-.53-.28-.63-.36-.52-.32-.62-.4-.5-.35-.6-.45-.49-.37-.6-.5-.46-.4c-.2-.17-.4-.36-.59-.55s-.29-.27-.43-.41-.41-.41-.61-.62l-.39-.41-.64-.72c-.1-.13-.21-.24-.31-.37-.32-.37-.62-.76-.92-1.15-.5-.65-1-1.34-1.44-2.05-.11-.17-.23-.34-.34-.52-.28-.45-.56-.91-.82-1.37s-.53-.95-.78-1.43a44.91,44.91,0,0,1-2.62-6.24h0c-.24-.74-.46-1.49-.68-2.25l-.15-.57c-.21-.77-.4-1.54-.57-2.33h0c-.26-1.19-.47-2.4-.65-3.63-.08-.62-.16-1.24-.23-1.87h0c-.08-.83-.15-1.68-.2-2.53l0-.64c0-.86-.07-1.72-.07-2.59h0c0-20.91,11.72-37.85,26.17-37.85s26.16,16.94,26.16,37.85Zm69.26,37.85h0A20.05,20.05,0,0,1,535.24,412a28,28,0,0,1-4.17-4.07c-.32-.39-.64-.78-1-1.19a35.81,35.81,0,0,1-2.6-3.94c-.26-.47-.52-.95-.77-1.43a49.61,49.61,0,0,1-5.2-22.65h0c0-.75,0-1.49.05-2.23,0-.23,0-.45,0-.68,0-.52.06-1,.1-1.53,0-.26,0-.51.07-.76.05-.5.1-1,.16-1.51l.09-.65c.19-1.42.43-2.8.73-4.15l.15-.63c.11-.47.22-.93.35-1.39l.18-.69c.13-.46.27-.91.41-1.36l.18-.59c.42-1.27.88-2.5,1.38-3.68l.24-.55c.19-.41.37-.81.57-1.21.09-.2.19-.4.29-.59.19-.4.4-.78.6-1.17.1-.17.19-.34.28-.51.61-1.07,1.25-2.1,1.93-3.07.11-.15.22-.29.32-.44.25-.34.49-.67.74-1l.38-.47c.26-.32.52-.62.78-.92l.35-.4a27.84,27.84,0,0,1,2.6-2.51l.36-.3a24.62,24.62,0,0,1,3-2.13l.4-.22a20.74,20.74,0,0,1,3.27-1.47l.43-.14a18.43,18.43,0,0,1,3.46-.77l.44-.05c.59,0,1.19-.09,1.79-.09h0c14.45,0,26.17,16.94,26.17,37.85S562.16,416.57,547.71,416.57Z" transform="translate(-331.65 -239.44)"/></svg>