<svg id="Layer_1" data-name="Layer 1" xmlns="http://www.w3.org/2000/svg" viewBox="0 0 510.01 595.83"><defs><style>.cls-1{fill:#7a1f00;}</style></defs><path class="cls-1" d="M448.76,768.46c-16.3,7.63-36.85,11.45-59.36,11l-8.54-.15,8,3.06a224.13,224.13,0,0,0,89.62,14.28V742.4C472.63,753.12,462.48,762,448.76,768.46Z" transform="translate(-242.25 -209)"/><path class="cls-1" d="M752.22,428.55c-.79-20-16.44-36.37-35.62-37.22a36.53,36.53,0,0,0-27.38,10.76l-.21.22c-.06.06-.12.11-.17.17l-.67.68-3.09,3.27a171.72,171.72,0,0,0,3.24-38.91,166.06,166.06,0,0,0-47.66-112.14C611.22,225.57,572.56,209.1,531.8,209h-1.14c-42,0-81.44,17-111.16,47.89s-46.22,72.19-46.22,116.05a172.32,172.32,0,0,0,1,18.41l-26.9-25.23a36.31,36.31,0,0,0-25.57-8.61c-18.88,1.05-34.39,17.28-35.32,36.95a39.46,39.46,0,0,0,13.42,31.93l51.78,48.84a73.8,73.8,0,0,1,13.23,20.51l.3.71a75.2,75.2,0,0,1,5,17.71l0,.22c.16,1.09.31,2.25.43,3.46l.05.47c.11,1.16.2,2.31.26,3.43v.46c.07,1.31.1,2.49.1,3.59s0,2.16-.09,3.43v.57c-.06,1-.14,2.12-.24,3.21l-.07.66c-.12,1.16-.24,2.2-.39,3.18l-.06.42c-.16,1-.31,2-.5,2.92s-.5,2.46-.73,3.39l-.23.95c-.23.93-.49,1.86-.76,2.78-.07.25-.14.49-.22.74l0,.13c-.26.83-.52,1.65-.81,2.46-.1.33-.23.66-.34,1-.26.72-.53,1.42-.81,2.12l-.11.3c-.1.24-.2.49-.29.73-.32.78-.66,1.55-1,2.32-.17.39-.36.78-.55,1.18-.3.65-.63,1.31-1,2s-.51,1-.76,1.45-.47.86-.71,1.28c-.39.69-.78,1.36-1.2,2l-.65,1.06c-.31.49-.6,1-.92,1.44l-.12.18c-.67,1-1.38,2-2.1,3l-.4.54c-.66.88-1.36,1.76-2.07,2.62l-.29.35a73.77,73.77,0,0,1-6.77,7l-.09.08c-1,.89-2,1.75-3,2.57a68,68,0,0,1-43.24,15.45c-1,0-2.07,0-3.29-.09a69.64,69.64,0,0,1-52.05-27.87l-2.94-3.87.37,4.91a115.44,115.44,0,0,0,34.61,74.53,106.12,106.12,0,0,0,95.32,28.38c-7.06,3.24-52.77,12.47-85.05-6.72l-8.45-5,6.7,7.36c31.7,34.86,70.39,62.3,106.15,75.31,34.91,12.7,65,11.16,85.6-4.15V651h-43V592h43l.1-54.23C477.6,503,504.44,477,528.44,477H579.5v54H554.71c-10.23,0-23.21,9.79-23.21,20.8l-.1,40.2h43.1v59h-43V785.54c3.2-1.34,6.3-2.78,9.25-4.35,16-8.48,27.82-20.21,34.77-34.33,1.5,27.37-17.32,49.2-37.24,58,51.81-8.68,83.85-27.05,100.83-57.8,27.22-41.11,32.79-85.86,38.18-129.14,6.87-55.23,13.36-107.39,63.54-159.65l1-1.06h0A40,40,0,0,0,752.22,428.55Z" transform="translate(-242.25 -209)"/></svg>