<svg id="Layer_1" data-name="Layer 1" xmlns="http://www.w3.org/2000/svg" xmlns:xlink="http://www.w3.org/1999/xlink" viewBox="0 0 650 650"><defs><style>.cls-1{fill:none;stroke-miterlimit:10;stroke-width:50px;stroke:url(#Naamloos_verloop_9);}.cls-2{fill:url(#Naamloos_verloop_22);}</style><linearGradient id="Naamloos_verloop_9" x1="325" y1="650" x2="325" gradientUnits="userSpaceOnUse"><stop offset="0" stop-color="#000f3d"/><stop offset="1"/></linearGradient><linearGradient id="Naamloos_verloop_22" x1="500" y1="755.467" x2="500" y2="244.533" xlink:href="#Naamloos_verloop_9"/></defs><rect class="cls-1" x="25" y="25" width="600" height="600" rx="5"/><path class="cls-2" d="M652.34,534.224c3.551-24.994,11.874-85.05,11.874-101.442,0-102.117-71.986-185.235-161.765-188.162v-.087c-.819,0-1.633.021-2.449.035-.816-.014-1.63-.035-2.449-.035v.087c-89.779,2.927-161.765,86.045-161.765,188.162,0,16.392,8.323,76.448,11.874,101.442-2.188,13.526-6.8,19.094-6.8,19.094,2.664-1.419,4.731-2.558,6.385-3.523-1.839,12.989-2.784,28.405-2.786,47.529a92.023,92.023,0,0,1,8.97-26.522q2.1,11.7,4.428,22.757c2.3,40.831-12.562,54.258-12.562,54.258,11.718-4.349,13.282-5.483,16.994-8.381.657,3.576,1.654,6.509,6.362,16.423,0,0-.4-4.446,2.035-11.978-.94,6.468,8.819,40.933,14.366,51.141-.684-1.974-3.719-27.79.515-29.358,9.288-.582,6.706,30.7,2.572,39.917,3.216-4.388,9.162-12.341,11.313-15.652-.009,7.422,16.179,46.66,27.732,62.218a95.907,95.907,0,0,1-5.045-25.664c1.961,3.223,3.589,5.926,4.565,7.6,0,0-5.75-24.934,1.584-37.927,1.853,7.534,3.694,15.091,4.957,20.193,0,0,.271-5.782,1.487-13.795,7.7,2.929,10.427,44.545,2.2,52.91,4.045-2.9,14.821-11.238,27.8-26.319a68.183,68.183,0,0,1-3.957,17.32,137.109,137.109,0,0,0,9.727-14.215V623h-43V564h43l.1-54.229c0-34.782,26.838-60.771,50.834-60.771H572.5v54H547.706c-10.23,0-23.206,9.792-23.206,20.8l-.1,40.2h43.1v59h-46v95.046c9.659,18.633,17.727,28.422,17.727,28.422a68.183,68.183,0,0,1-3.957-17.32c12.977,15.081,23.753,23.422,27.8,26.319-8.225-8.365-5.5-49.981,2.2-52.91,1.216,8.013,1.487,13.795,1.487,13.795,1.263-5.1,3.1-12.659,4.957-20.193,7.334,12.993,1.584,37.927,1.584,37.927.976-1.677,2.6-4.38,4.565-7.6a95.907,95.907,0,0,1-5.045,25.664c11.553-15.558,27.741-54.8,27.732-62.218,2.151,3.311,8.1,11.264,11.313,15.652-4.134-9.214-6.716-40.5,2.572-39.917,4.234,1.568,1.2,27.384.515,29.358,5.547-10.208,15.306-44.673,14.366-51.141,2.432,7.532,2.035,11.978,2.035,11.978,4.708-9.914,5.705-12.847,6.362-16.423,3.712,2.9,5.276,4.032,16.994,8.381,0,0-14.864-13.427-12.562-54.258q2.327-11.04,4.428-22.757a92.023,92.023,0,0,1,8.97,26.522c0-19.124-.947-34.54-2.786-47.529,1.654.965,3.721,2.1,6.385,3.523C659.142,553.318,654.528,547.75,652.34,534.224ZM455.214,419.894c-14.306,0-25.9-16.778-25.9-37.475s11.6-37.475,25.9-37.475,25.9,16.778,25.9,37.475S469.52,419.894,455.214,419.894Zm89.572,0c-14.306,0-25.9-16.778-25.9-37.475s11.6-37.475,25.9-37.475,25.9,16.778,25.9,37.475S559.092,419.894,544.786,419.894Z" transform="translate(-175 -174.5)"/></svg>