<svg id="Layer_1" data-name="Layer 1" xmlns="http://www.w3.org/2000/svg" viewBox="0 0 328.43 510.93"><defs><style>.cls-1{fill:#7a1f00;}</style></defs><path class="cls-1" d="M652.34,534.22c3.55-25,11.87-85.05,11.87-101.44,0-102.11-72-185.23-161.76-188.16v-.09c-.82,0-1.63,0-2.45,0s-1.63,0-2.45,0v.09c-89.78,2.93-161.76,86.05-161.76,188.16,0,16.39,8.32,76.45,11.87,101.44-2.19,13.53-6.8,19.1-6.8,19.1,2.66-1.42,4.73-2.56,6.38-3.53-1.84,13-2.78,28.41-2.78,47.53a91.82,91.82,0,0,1,9-26.52q2.1,11.7,4.42,22.76c2.31,40.83-12.56,54.26-12.56,54.26,11.72-4.35,13.28-5.49,17-8.38.65,3.57,1.65,6.51,6.36,16.42,0,0-.4-4.45,2-12-.94,6.47,8.82,40.93,14.37,51.14-.68-2-3.72-27.79.52-29.36,9.28-.58,6.7,30.71,2.57,39.92,3.21-4.39,9.16-12.34,11.31-15.65,0,7.42,16.18,46.66,27.73,62.22a96,96,0,0,1-5-25.67c2,3.23,3.59,5.93,4.56,7.61,0,0-5.75-24.94,1.59-37.93,1.85,7.53,3.69,15.09,4.95,20.19,0,0,.27-5.78,1.49-13.79,7.7,2.93,10.43,44.54,2.2,52.91,4.05-2.9,14.82-11.24,27.8-26.32a68.33,68.33,0,0,1-4,17.32,136,136,0,0,0,9.73-14.22V623h-43V564h43l.1-54.23C470.6,475,497.44,449,521.44,449H572.5v54H547.71c-10.23,0-23.21,9.79-23.21,20.8l-.1,40.2h43.1v59h-46v95c9.66,18.63,17.73,28.42,17.73,28.42a68.33,68.33,0,0,1-4-17.32c13,15.08,23.75,23.42,27.8,26.32-8.23-8.37-5.5-50,2.2-52.91,1.22,8,1.49,13.79,1.49,13.79,1.26-5.1,3.1-12.66,5-20.19,7.34,13,1.59,37.93,1.59,37.93,1-1.68,2.6-4.38,4.56-7.61a96,96,0,0,1-5,25.67c11.55-15.56,27.74-54.8,27.73-62.22,2.15,3.31,8.1,11.26,11.31,15.65-4.13-9.21-6.71-40.5,2.57-39.92,4.24,1.57,1.2,27.39.52,29.36,5.55-10.21,15.31-44.67,14.37-51.14,2.43,7.53,2,12,2,12,4.71-9.91,5.71-12.85,6.36-16.42,3.72,2.89,5.28,4,17,8.38,0,0-14.87-13.43-12.56-54.26q2.33-11,4.42-22.76a91.82,91.82,0,0,1,9,26.52c0-19.12-.94-34.54-2.78-47.53,1.65,1,3.72,2.11,6.38,3.53C659.14,553.32,654.53,547.75,652.34,534.22ZM455.21,419.89c-14.3,0-25.9-16.77-25.9-37.47s11.6-37.48,25.9-37.48,25.91,16.78,25.91,37.48S469.52,419.89,455.21,419.89Zm89.58,0c-14.31,0-25.91-16.77-25.91-37.47s11.6-37.48,25.91-37.48,25.9,16.78,25.9,37.48S559.09,419.89,544.79,419.89Z" transform="translate(-335.79 -244.53)"/></svg>