<svg width="450" height="620" viewBox="0 0 450 620" fill="none" xmlns="http://www.w3.org/2000/svg">
<path fill-rule="evenodd" clip-rule="evenodd" d="M338.467 547.834C380.816 495.85 408 415.297 408 324.869C408 168.093 326.292 41 225.5 41C124.708 41 43 168.093 43 324.869C43 410.801 67.5474 487.814 106.33 539.87C138.849 473.292 178.159 434.363 220.5 434.363C264.503 434.363 305.232 476.407 338.467 547.834Z" fill="#7180B9"/>
<mask id="path-2-inside-1_55_2" fill="white">
<path fill-rule="evenodd" clip-rule="evenodd" d="M368.148 620C418.138 555.809 450 458.68 450 349.977C450 156.69 349.264 0 225 0C100.736 0 0 156.69 0 349.977C0 458.68 31.8617 555.809 81.8515 620C122.401 534.897 171.757 484.967 225 484.967C278.243 484.967 327.599 534.897 368.148 620Z"/>
</mask>
<path d="M368.148 620L341.066 632.904L361.965 676.767L391.818 638.433L368.148 620ZM81.8515 620L58.1822 638.433L88.0352 676.767L108.934 632.904L81.8515 620ZM420 349.977C420 453.349 389.609 543.616 344.479 601.567L391.818 638.433C446.667 568.001 480 464.012 480 349.977H420ZM225 30C273.465 30 321.491 60.5978 358.864 118.729C396.031 176.54 420 258.216 420 349.977H480C480 248.45 453.601 155.138 409.334 86.2823C365.273 17.7471 300.799 -30 225 -30V30ZM30 349.977C30 258.216 53.9692 176.54 91.1358 118.729C128.509 60.5978 176.535 30 225 30V-30C149.201 -30 84.7274 17.7471 40.6661 86.2823C-3.60122 155.138 -30 248.45 -30 349.977H30ZM105.521 601.567C60.3907 543.616 30 453.349 30 349.977H-30C-30 464.012 3.3328 568.001 58.1822 638.433L105.521 601.567ZM108.934 632.904C128.312 592.236 148.91 561.939 169.451 542.203C189.854 522.599 208.442 514.967 225 514.967V454.967C188.314 454.967 155.603 472.301 127.88 498.938C100.295 525.442 75.9403 562.662 54.7686 607.096L108.934 632.904ZM225 514.967C241.558 514.967 260.146 522.599 280.549 542.203C301.09 561.939 321.688 592.236 341.066 632.904L395.231 607.096C374.06 562.662 349.705 525.442 322.12 498.938C294.397 472.301 261.686 454.967 225 454.967V514.967Z" fill="#000F3D" mask="url(#path-2-inside-1_55_2)"/>
<ellipse cx="165.5" cy="181.5" rx="44.5" ry="66.5" fill="#000F3D"/>
<ellipse cx="284.5" cy="181.5" rx="44.5" ry="66.5" fill="#000F3D"/>
</svg>
