<svg width="800" height="800" viewBox="0 0 800 800" fill="none" xmlns="http://www.w3.org/2000/svg">
<circle cx="400" cy="400" r="400" fill="url(#paint0_linear_35_14)"/>
<circle cx="400" cy="400" r="400" stroke="#00005F"/>
<path fill-rule="evenodd" clip-rule="evenodd" d="M513.467 637.834C555.816 585.85 583 505.297 583 414.869C583 258.093 501.292 131 400.5 131C299.708 131 218 258.093 218 414.869C218 500.801 242.547 577.814 281.33 629.87C313.849 563.292 353.159 524.363 395.5 524.363C439.503 524.363 480.232 566.407 513.467 637.834Z" fill="#7180B9"/>
<mask id="path-3-inside-1_35_14" fill="white">
<path fill-rule="evenodd" clip-rule="evenodd" d="M543.148 710C593.138 645.809 625 548.68 625 439.977C625 246.69 524.264 90 400 90C275.736 90 175 246.69 175 439.977C175 548.68 206.862 645.809 256.851 710C297.401 624.897 346.757 574.967 400 574.967C453.243 574.967 502.599 624.897 543.148 710Z"/>
</mask>
<path d="M543.148 710L516.066 722.904L536.965 766.767L566.818 728.433L543.148 710ZM256.851 710L233.182 728.433L263.035 766.766L283.934 722.904L256.851 710ZM595 439.977C595 543.349 564.609 633.616 519.479 691.567L566.818 728.433C621.667 658.001 655 554.012 655 439.977H595ZM400 120C448.465 120 496.491 150.598 533.864 208.729C571.031 266.54 595 348.216 595 439.977H655C655 338.45 628.601 245.138 584.334 176.282C540.273 107.747 475.799 60 400 60V120ZM205 439.977C205 348.216 228.969 266.54 266.136 208.729C303.509 150.598 351.535 120 400 120V60C324.201 60 259.727 107.747 215.666 176.282C171.399 245.138 145 338.45 145 439.977H205ZM280.521 691.567C235.391 633.616 205 543.349 205 439.977H145C145 554.012 178.333 658.001 233.182 728.433L280.521 691.567ZM283.934 722.904C303.312 682.236 323.91 651.939 344.451 632.203C364.854 612.599 383.442 604.968 400 604.968V544.967C363.314 544.967 330.603 562.301 302.88 588.938C275.295 615.442 250.94 652.662 229.769 697.096L283.934 722.904ZM400 604.968C416.558 604.968 435.146 612.599 455.549 632.203C476.09 651.939 496.688 682.236 516.066 722.904L570.231 697.096C549.06 652.662 524.705 615.442 497.12 588.938C469.397 562.301 436.686 544.967 400 544.967V604.968Z" fill="#000F3D" mask="url(#path-3-inside-1_35_14)"/>
<ellipse cx="340.5" cy="271.5" rx="44.5" ry="66.5" fill="#000F3D"/>
<ellipse cx="459.5" cy="271.5" rx="44.5" ry="66.5" fill="#000F3D"/>
<defs>
<linearGradient id="paint0_linear_35_14" x1="400" y1="0" x2="400" y2="800" gradientUnits="userSpaceOnUse">
<stop stop-color="#D7DBEA"/>
<stop offset="1" stop-color="white"/>
</linearGradient>
</defs>
</svg>
