<svg id="Layer_1" data-name="Layer 1" xmlns="http://www.w3.org/2000/svg" xmlns:xlink="http://www.w3.org/1999/xlink" viewBox="0 0 1366 775"><defs><style>.cls-1{fill:url(#radial-gradient);}</style><radialGradient id="radial-gradient" cx="683" cy="387.5" r="555.27" gradientUnits="userSpaceOnUse"><stop offset="0" stop-color="#f63"/><stop offset="1"/></radialGradient></defs><rect class="cls-1" width="1366" height="775"/><path d="M1083.43,406.86h0l-46.8-44.36h0a6.19,6.19,0,0,0-8.52,0h0l-36.3,34.41V367.35a6.82,6.82,0,0,0-4.95-6.39,6.34,6.34,0,0,0-7.72,6.19v38H944V367.29a6.38,6.38,0,0,0-10.74-4.79h0l-47.87,44.36h0a6.31,6.31,0,0,0,0,9.27h0l47.87,44.35h0a6.4,6.4,0,0,0,8.71,0h0l37.13-34.4v29.3a6.51,6.51,0,0,0,6.31,6.55,6.22,6.22,0,0,0,4.18-1.68l0-.05,36.26-33.83v29.29a6.83,6.83,0,0,0,4.94,6.4,6.35,6.35,0,0,0,7.73-6.19v-38h16.85a6.71,6.71,0,0,0,6.5-5.53,6.3,6.3,0,0,0-6.19-7.14h-17.16V381.72l36.26,34.36,0,.05a6.3,6.3,0,0,0,7,1.09,5.63,5.63,0,0,0,2.82-2.81A6.53,6.53,0,0,0,1083.43,406.86Zm-152.07-1.7H914.14a6.82,6.82,0,0,0-6.4,4.94,6.35,6.35,0,0,0,6.19,7.73h17.43v23.44l-31.9-29.78,31.9-29.77ZM944,441.27V417.83h25.11Zm82.87-59.55v23.44H1001.8Zm-35.1,59.55V417.83h25.11Z" transform="translate(-3 -3)"/></svg>