<svg id="Layer_1" data-name="Layer 1" xmlns="http://www.w3.org/2000/svg" viewBox="0 0 509.82 596.28"><defs><style>.cls-1{fill:#7a1f00;}</style></defs><path class="cls-1" d="M545.5,384h-150a41,41,0,0,0-41,41V575a41,41,0,0,0,41,41h150a41,41,0,0,0,41-41V425A41,41,0,0,0,545.5,384ZM471,571a71.5,71.5,0,1,1,71.5-71.5A71.58,71.58,0,0,1,471,571Zm75-129a21.5,21.5,0,1,1,21.5-21.5A21.52,21.52,0,0,1,546,442Z" transform="translate(-245.09 -202)"/><path class="cls-1" d="M752,564.31a69.66,69.66,0,0,1-52.06,27.87c-1.22.06-2.29.09-3.29.09a68,68,0,0,1-43.24-15.45c-1-.82-2-1.68-3-2.57l-.09-.08a71.39,71.39,0,0,1-6.77-7l-.29-.35c-.71-.86-1.41-1.74-2.08-2.62l-.92-1.23c-.55-.74-1.08-1.5-1.58-2.28l-.11-.18c-.32-.47-.63-1-.93-1.43s-.53-.87-.84-1.37-.74-1.23-1.08-1.87c-.21-.37-.43-.75-.64-1.15s-.51-1-.76-1.45-.65-1.29-1-2c-.19-.39-.37-.8-.56-1.19-.37-.79-.71-1.59-1-2.4-.08-.21-.16-.42-.25-.64l-.11-.29c-.28-.71-.55-1.41-.81-2.12-.11-.33-.23-.66-.34-1-.28-.82-.55-1.64-.8-2.47l-.05-.13c-.07-.25-.14-.49-.22-.74-.27-.92-.52-1.85-.76-2.78l-.23-.95c-.22-.93-.56-2.45-.73-3.39s-.34-1.94-.5-2.92l-.07-.42c-.13-1-.26-2-.38-3.18l-.07-.66c-.09-1.09-.18-2.18-.23-3.21l0-.56c0-1.28-.07-2.4-.07-3.44s0-2.28.08-3.59l0-.46c.06-1.12.15-2.27.26-3.43l0-.47c.13-1.2.27-2.37.43-3.46l0-.22a75.61,75.61,0,0,1,5-17.7l.3-.72a73.94,73.94,0,0,1,13.23-20.51l51.78-48.84a39.46,39.46,0,0,0,13.43-31.93c-.94-19.67-16.45-35.9-35.33-36.95a36.32,36.32,0,0,0-25.57,8.61l-26.9,25.23a172.3,172.3,0,0,0,1-18.4c0-43.87-16.42-85.08-46.22-116.06S508.48,202,466.51,202h-.38c-40.86.1-79.62,16.58-109.14,46.41a166.18,166.18,0,0,0-47.8,112.23,172,172,0,0,0,3.25,38.94l-3.09-3.27-.68-.68-.16-.17-.22-.22a36.59,36.59,0,0,0-27.45-10.76c-19.24.84-34.92,17.2-35.72,37.24a39.93,39.93,0,0,0,10.42,28.64h0l1,1.06c50.31,52.3,56.82,104.5,63.71,159.77,5.4,43.31,11,88.1,38.28,129.25,17,30.76,49.15,49.14,101.09,57.83-20-8.78-38.84-30.62-37.32-58,7,14.13,18.82,25.86,34.85,34.36,38.93,20.63,100.07,21.15,152.12,1.28l8-3.06-8.54.15c-22.51.41-43.06-3.41-59.36-11-14.34-6.72-24.77-16.15-30.52-27.51,20.66,15.85,51,17.58,86.39,4.72,35.76-13,74.44-40.45,106.14-75.3l6.7-7.37-8.45,5c-32.27,19.19-78,10-85,6.72a106.12,106.12,0,0,0,95.32-28.38,115.46,115.46,0,0,0,34.61-74.53l.36-4.91ZM604.5,575a59.07,59.07,0,0,1-59,59h-150a59.07,59.07,0,0,1-59-59V425a59.07,59.07,0,0,1,59-59h150a59.07,59.07,0,0,1,59,59Z" transform="translate(-245.09 -202)"/><circle class="cls-1" cx="225.91" cy="297.5" r="53.5"/><circle class="cls-1" cx="300.91" cy="218.5" r="3.5"/></svg>