<svg id="Layer_1" data-name="Layer 1" xmlns="http://www.w3.org/2000/svg" viewBox="0 0 370.36 573.23"><defs><style>.cls-1{fill:#7a1f00;}</style></defs><path class="cls-1" d="M672,535.26c3.94-27.77,13.19-94.5,13.19-112.71C685.18,307,602.27,213.38,500,213.38S314.82,307,314.82,422.55c0,18.27,8.42,84.27,11,107.63-3.89,10-8.23,13.89-8.23,13.89,3-1.14,5.47-2.07,7.46-2.88-2.81,15.9-4.26,35.19-4.26,60.16a102.66,102.66,0,0,1,9.65-28.87c1.64,13.74,3.32,26.55,4.93,38.22-3.83,36.2-14.6,45-14.6,45,14.64-5.43,10.24-2.21,20-8.19,3,19.3,5,31.48,5,34a101.17,101.17,0,0,1,6.61-23.12c4.7,18.52,13.42,38.93,28.78,65.3a107,107,0,0,1-5.75-31.45c45.05,34.48,22.18,94.45,22.18,94.45,16.73-28.74,25.6-50.4,29.95-70.25,3.39,6.72,7.26,13.83,11.7,21.45a107.78,107.78,0,0,1-5.67-39.92C464.87,759.37,503,783.61,503,783.61,487.32,764.48,474.52,709.14,477.9,668c2.53,16.89,7.57,36.52,16.08,61.34,0,0-4.93-25.89,3.28-49.48,19.86,33.65,4.29,74.48,4.29,74.48a354.89,354.89,0,0,0,18-34.65c39.32,71.59,77.66,66.88,77.66,66.88C569.45,768.34,569,742.64,574.26,707c14.44,20.62,4.26,47.3,4.26,47.3,1.11-1.92,22.8-23.3,32.77-41.37a141.3,141.3,0,0,0,16-47.19A43.37,43.37,0,0,1,631,681.92c.39,13.72-6.2,28.08-6.2,28.08a112.07,112.07,0,0,0,21.6-52.9c2.71,8.37,2.27,13.31,2.27,13.31,5.23-11,6.33-14.27,7.07-18.24,4.12,3.22,5.86,4.47,18.88,9.31,0,0-16.52-14.92-14-60.29q2.58-12.27,4.92-25.29a102.58,102.58,0,0,1,10,29.47c0-21.25-1.06-38.37-3.1-52.81,1.84,1.08,4.13,2.34,7.09,3.92C679.54,556.48,674.42,550.29,672,535.26ZM552.48,325c15.9,0,28.78,18.64,28.78,41.64s-12.88,41.64-28.78,41.64-28.78-18.64-28.78-41.64S536.59,325,552.48,325Zm-105,0c15.89,0,28.78,18.64,28.78,41.64s-12.89,41.64-28.78,41.64-28.79-18.64-28.79-41.64S431.62,325,447.52,325Zm153,281.3a44.3,44.3,0,0,1-44.25,44.25H443.75a44.3,44.3,0,0,1-44.25-44.25V493.75a44.3,44.3,0,0,1,44.25-44.25h112.5a44.3,44.3,0,0,1,44.25,44.25Z" transform="translate(-314.82 -213.38)"/><circle class="cls-1" cx="185.56" cy="336.24" r="40.13"/><path class="cls-1" d="M556.25,463H443.75A30.78,30.78,0,0,0,413,493.75v112.5A30.78,30.78,0,0,0,443.75,637h112.5A30.78,30.78,0,0,0,587,606.25V493.75A30.78,30.78,0,0,0,556.25,463ZM500.38,603.25A53.63,53.63,0,1,1,554,549.63,53.69,53.69,0,0,1,500.38,603.25Zm56.25-96.75a16.13,16.13,0,1,1,16.12-16.12A16.14,16.14,0,0,1,556.63,506.5Z" transform="translate(-314.82 -213.38)"/><circle class="cls-1" cx="241.81" cy="276.99" r="2.62"/></svg>