<svg id="Layer_1" data-name="Layer 1" xmlns="http://www.w3.org/2000/svg" viewBox="0 0 328.43 510.93"><defs><style>.cls-1{fill:#7a1f00;}</style></defs><ellipse class="cls-1" cx="164.56" cy="311.28" rx="36.7" ry="36.51"/><path class="cls-1" d="M551.79,499.5a2.39,2.39,0,1,0,2.4,2.39A2.39,2.39,0,0,0,551.79,499.5Z" transform="translate(-335.79 -244.53)"/><path class="cls-1" d="M652.34,534.22c3.55-25,11.87-85.05,11.87-101.44,0-102.11-72-185.23-161.76-188.16v-.09c-.82,0-1.63,0-2.45,0s-1.63,0-2.45,0v.09c-89.78,2.93-161.76,86.05-161.76,188.16,0,16.39,8.32,76.45,11.87,101.44-2.19,13.53-6.8,19.1-6.8,19.1,2.66-1.42,4.73-2.56,6.38-3.53-1.84,13-2.78,28.41-2.78,47.53a91.82,91.82,0,0,1,9-26.52q2.1,11.7,4.42,22.76c2.31,40.83-12.56,54.26-12.56,54.26,11.72-4.35,13.28-5.49,17-8.38.65,3.57,1.65,6.51,6.36,16.42,0,0-.4-4.45,2-12-.94,6.47,8.82,40.93,14.37,51.14-.68-2-3.72-27.79.52-29.36,9.28-.58,6.7,30.71,2.57,39.92,3.21-4.39,9.16-12.34,11.31-15.65,0,7.42,16.18,46.66,27.73,62.22a96,96,0,0,1-5-25.67c2,3.23,3.59,5.93,4.56,7.61,0,0-5.75-24.94,1.59-37.93,1.85,7.53,3.69,15.09,4.95,20.19,0,0,.27-5.78,1.49-13.79,7.7,2.93,10.43,44.54,2.2,52.91,4.05-2.9,14.82-11.24,27.8-26.32a68.33,68.33,0,0,1-4,17.32s10.36-12.58,21.66-36.34c1.75,17.23,4.67,27.09,4.67,27.09a67.93,67.93,0,0,1,3.12-17.49c6.06,18.95,12.72,30.84,15.31,35.09-2.45-6.22,2.59-21,8.91-32.49a66,66,0,0,1,6.51,14.9,154.93,154.93,0,0,0-1.43-23l0,0c10.5,21.14,19.69,32.28,19.69,32.28a68.33,68.33,0,0,1-4-17.32c13,15.08,23.75,23.42,27.8,26.32-8.23-8.37-5.5-50,2.2-52.91,1.22,8,1.49,13.79,1.49,13.79,1.26-5.1,3.1-12.66,5-20.19,7.34,13,1.59,37.93,1.59,37.93,1-1.68,2.6-4.38,4.56-7.61a96,96,0,0,1-5,25.67c11.55-15.56,27.74-54.8,27.73-62.22,2.15,3.31,8.1,11.26,11.31,15.65-4.13-9.21-6.71-40.5,2.57-39.92,4.24,1.57,1.2,27.39.52,29.36,5.55-10.21,15.31-44.67,14.37-51.14,2.43,7.53,2,12,2,12,4.71-9.91,5.71-12.85,6.36-16.42,3.72,2.89,5.28,4,17,8.38,0,0-14.87-13.43-12.56-54.26q2.33-11,4.42-22.76a91.82,91.82,0,0,1,9,26.52c0-19.12-.94-34.54-2.78-47.53,1.65,1,3.72,2.11,6.38,3.53C659.14,553.32,654.53,547.75,652.34,534.22ZM544.79,344.94c14.3,0,25.9,16.78,25.9,37.48s-11.6,37.47-25.9,37.47-25.91-16.77-25.91-37.47S530.48,344.94,544.79,344.94Zm-89.58,0c14.31,0,25.91,16.78,25.91,37.48s-11.6,37.47-25.91,37.47-25.9-16.77-25.9-37.47S440.91,344.94,455.21,344.94Zm136.7,262.4a40.41,40.41,0,0,1-40.47,40.26H448.56a40.41,40.41,0,0,1-40.47-40.26V505a40.41,40.41,0,0,1,40.47-40.26H551.44A40.41,40.41,0,0,1,591.91,505Z" transform="translate(-335.79 -244.53)"/><path class="cls-1" d="M551.44,477H448.56a28.09,28.09,0,0,0-28.13,28V607.34a28.09,28.09,0,0,0,28.13,28H551.44a28.09,28.09,0,0,0,28.13-28V505A28.09,28.09,0,0,0,551.44,477Zm-51.1,127.63a48.8,48.8,0,1,1,49.05-48.8A49,49,0,0,1,500.34,604.61Zm51.45-88a14.68,14.68,0,1,1,14.74-14.68A14.73,14.73,0,0,1,551.79,516.57Z" transform="translate(-335.79 -244.53)"/></svg>