<svg id="Layer_1" data-name="Layer 1" xmlns="http://www.w3.org/2000/svg" viewBox="0 0 336.69 521.12"><defs><style>.cls-1{fill:#7a1f00;}</style></defs><ellipse class="cls-1" cx="168.69" cy="316.37" rx="36.7" ry="36.51"/><path class="cls-1" d="M618.58,694.48l-.06.13S618.56,694.55,618.58,694.48Z" transform="translate(-331.65 -239.44)"/><path class="cls-1" d="M551.44,477H448.56a28.09,28.09,0,0,0-28.13,28V607.34a28.09,28.09,0,0,0,28.13,28H551.44a28.09,28.09,0,0,0,28.13-28V505A28.09,28.09,0,0,0,551.44,477Zm-51.1,127.63a48.8,48.8,0,1,1,49.05-48.8A49,49,0,0,1,500.34,604.61Zm51.45-88a14.68,14.68,0,1,1,14.74-14.68A14.73,14.73,0,0,1,551.79,516.57Z" transform="translate(-331.65 -239.44)"/><path class="cls-1" d="M656.35,532.06c3.59-25.25,12-85.91,12-102.47,0-105-75.37-190.15-168.35-190.15S331.65,324.57,331.65,429.59c0,16.61,7.66,76.61,10,97.85-3.53,9-7.48,12.62-7.48,12.62,2.78-1,5-1.88,6.79-2.61-2.56,14.45-3.87,32-3.88,54.69a93.17,93.17,0,0,1,8.78-26.24c1.49,12.48,3,24.13,4.48,34.74-3.48,32.91-13.27,40.87-13.27,40.87,13.3-4.94,9.3-2,18.15-7.45,2.68,17.54,4.53,28.62,4.52,30.89a92.31,92.31,0,0,1,6-21c4.26,16.84,12.2,35.4,26.16,59.37a97.36,97.36,0,0,1-5.23-28.59c13.47,3.53,16.52,41,13.82,51.7q5.16-9,9.22-17.08c6.74,26-2.88,51.24-2.88,51.24,10.63-18.25,17.76-33.36,22.44-47,3.53,7.28,7.7,15.07,12.64,23.54a97.83,97.83,0,0,1-5.26-30.34c3.94,5.24,8.33,10.73,13.25,16.54a96.25,96.25,0,0,1-9.26-23.58c-.19-1.24-.38-2.53-.54-3.88,13.15,31.2,26.86,47.83,26.86,47.83-2.77-6.93-4.3-16.26-4.7-26.94,21.42,29,40.4,41.05,40.4,41.05-7.13-8.72-13.6-25.71-17.9-45.21,10.45,17.67,19,27.42,19,27.42-4.58-9.79-6.42-23.83-5.73-39.19,16,21.21,17,47.72,17,47.72,2.2-17.37,3-31.81,2.67-44.42,12.36,27.63,24.46,42.31,24.46,42.31a69.12,69.12,0,0,1-4-17.5c16.71,19.42,29.81,27.78,29.81,27.78-4.28-3.71-7.31-14.2-8.69-25.87,2.29,5.59,4.89,11.48,7.84,17.74-.15-.51-5-13.15-2.09-35.61,0,0,1.94-7.33,3.43-10.9,1.23,8.09,1.5,13.94,1.5,13.94,1.28-5.16,3.14-12.79,5-20.4,7.41,13.12,1.6,38.31,1.6,38.31,1-1.7,2.63-4.43,4.61-7.68A96.87,96.87,0,0,1,576,752.18c11.67-15.71,28-55.35,28-62.85,3.57,5.51,7.7,11.35,12.49,17.65-5.17-6.9-10.33-47.58,1.53-42.15,4.28,1.58,1.21,27.66.52,29.65,5.61-10.31,15.47-45.13,14.52-51.66,2.45,7.61,2,12.1,2,12.1,4.76-10,5.76-13,6.43-16.59,3.75,2.93,5.33,4.07,17.16,8.47,0,0-15-13.56-12.69-54.81,1.57-7.43,3.06-15.11,4.48-23a93.2,93.2,0,0,1,9.06,26.79c0-19.31-1-34.88-2.82-48,1.67,1,3.76,2.12,6.45,3.55C663.22,551.34,658.56,545.72,656.35,532.06ZM547.71,340.87c14.45,0,26.17,16.94,26.17,37.85s-11.72,37.85-26.17,37.85-26.16-16.95-26.16-37.85S533.26,340.87,547.71,340.87Zm-95.42,0c14.45,0,26.16,16.94,26.16,37.85s-11.71,37.85-26.16,37.85-26.17-16.95-26.17-37.85S437.84,340.87,452.29,340.87ZM591.91,607.34a40.41,40.41,0,0,1-40.47,40.26H448.56a40.41,40.41,0,0,1-40.47-40.26V505a40.41,40.41,0,0,1,40.47-40.26H551.44A40.41,40.41,0,0,1,591.91,505Z" transform="translate(-331.65 -239.44)"/><path class="cls-1" d="M551.79,499.5a2.39,2.39,0,1,0,2.4,2.39A2.39,2.39,0,0,0,551.79,499.5Z" transform="translate(-331.65 -239.44)"/></svg>