<svg id="Layer_1" data-name="Layer 1" xmlns="http://www.w3.org/2000/svg" xmlns:xlink="http://www.w3.org/1999/xlink" viewBox="0 0 776 511"><defs><style>.cls-1{fill:url(#Naamloos_verloop_79);}.cls-2{fill:url(#Naamloos_verloop_83);}</style><linearGradient id="Naamloos_verloop_79" x1="164.075" y1="510.967" x2="164.075" y2="0.033" gradientUnits="userSpaceOnUse"><stop offset="0" stop-color="#000f3d"/><stop offset="1"/></linearGradient><linearGradient id="Naamloos_verloop_83" x1="568.5" y1="380" x2="568.5" y2="145" gradientUnits="userSpaceOnUse"><stop offset="0" stop-color="#7a001f"/><stop offset="1"/></linearGradient></defs><path class="cls-1" d="M316.415,289.724c3.551-24.994,11.874-85.05,11.874-101.442C328.289,86.165,256.3,3.047,167,.12V.033c-1.295,0-2.109.021-2.925.035-.816-.014-1.63-.035-2.075-.035V.12C71.847,3.047-.14,86.165-.14,188.282c0,16.392,8.324,76.448,11.875,101.442-2.188,13.526-6.8,19.094-6.8,19.094,2.664-1.419,4.73-2.558,6.385-3.523-1.839,12.989-2.784,28.4-2.786,47.529A92.038,92.038,0,0,1,17.5,326.3q2.1,11.7,4.429,22.757c2.3,40.831-12.563,54.258-12.563,54.258,11.719-4.349,13.282-5.483,16.995-8.381.657,3.576,1.654,6.509,6.362,16.423,0,0-.4-4.446,2.035-11.978-.94,6.468,8.818,40.933,14.366,51.141-.684-1.974-3.719-27.79.515-29.358,9.288-.582,6.706,30.7,2.572,39.917,3.216-4.388,9.162-12.341,11.313-15.652-.009,7.422,16.179,46.66,27.732,62.218a95.907,95.907,0,0,1-5.045-25.664c1.96,3.223,3.589,5.927,4.565,7.6,0,0-5.75-24.934,1.584-37.927,1.853,7.534,3.694,15.092,4.957,20.193,0,0,.271-5.782,1.487-13.795,7.7,2.929,10.427,44.545,2.2,52.91,4.045-2.9,14.82-11.238,27.8-26.319a68.183,68.183,0,0,1-3.957,17.32S135.206,489.4,146.5,465.635c1.757,17.224,4.673,27.085,4.673,27.085a68.26,68.26,0,0,1,3.125-17.49c6.054,18.953,12.714,30.841,15.305,35.089-2.452-6.221,2.594-20.99,8.91-32.488a65.857,65.857,0,0,1,6.508,14.9,153.8,153.8,0,0,0-1.428-23.007l.024-.033c10.5,21.138,19.685,32.281,19.685,32.281a68.183,68.183,0,0,1-3.957-17.32c12.977,15.081,23.753,23.422,27.8,26.319-8.225-8.365-5.5-49.981,2.2-52.91,1.217,8.013,1.488,13.795,1.488,13.795,1.263-5.1,3.1-12.659,4.956-20.193,7.335,12.993,1.585,37.927,1.585,37.927.976-1.676,2.6-4.38,4.565-7.6a95.953,95.953,0,0,1-5.045,25.664c11.553-15.558,27.741-54.8,27.732-62.218,2.151,3.311,8.1,11.264,11.312,15.652-4.134-9.214-6.715-40.5,2.572-39.917,4.235,1.568,1.2,27.384.516,29.358,5.547-10.208,15.306-44.673,14.365-51.141,2.433,7.532,2.036,11.978,2.036,11.978,4.707-9.914,5.7-12.847,6.362-16.423,3.712,2.9,5.276,4.032,16.994,8.381,0,0-14.865-13.427-12.562-54.258q2.327-11.04,4.428-22.757a92.023,92.023,0,0,1,8.97,26.522c0-19.124-.947-34.54-2.786-47.529,1.654.965,3.72,2.1,6.385,3.523C323.217,308.818,318.6,303.25,316.415,289.724ZM119.288,175.394c-14.306,0-25.9-16.778-25.9-37.475s11.6-37.475,25.9-37.475,25.9,16.778,25.9,37.475S133.6,175.394,119.288,175.394Zm89.573,0c-14.306,0-25.9-16.778-25.9-37.475s11.6-37.475,25.9-37.475,25.9,16.778,25.9,37.475S223.167,175.394,208.861,175.394Z"/><path class="cls-2" d="M768.2,263.776q-5.979,0-8.085-2.39T758,253.494V205h17V186H759V162H732v23H718v10.041a31.836,31.836,0,0,0-3.316-3.056q-10.948-8.8-29.2-8.8-17.115,0-27.7,8.764-10.6,8.76-10.6,21.831,0,22.434,34.21,29.781,10.287,2.187,14.932,4.945c3.1,1.85,4.65,4.372,4.65,7.589a8.97,8.97,0,0,1-3.767,7.488q-3.768,2.849-11.116,2.854-7.887,0-12.587-3.719T668.465,252H644.888a64.829,64.829,0,0,0,2.057-16.8l-.179-6.69q-1.446-20.775-13.876-32.88t-32.1-12.1q-13.837,0-24.294,6.23a40.88,40.88,0,0,0-16.023,17.62A56.382,56.382,0,0,0,555,229.71v-9.24q-.447-36.93-32.057-36.94-15.611,0-25.943,12.46V145H471V284h26V214.54q5.1-8.85,16.491-8.85,8.336,0,11.917,4.02T529,222.13V283h26V238.891q.957,20.3,12.462,32.545,12.552,13.343,33.611,13.347T634.634,271.4a43.849,43.849,0,0,0,8.517-13.318,28.126,28.126,0,0,0,4.791,10.56,36.379,36.379,0,0,0,14.893,11.83,52.02,52.02,0,0,0,21.736,4.314q18.081,0,29.517-8.136,11.417-8.142,11.426-21.316,0-18.41-20.611-25.9a115.394,115.394,0,0,0-16.377-4.314q-9.712-1.907-13.807-4.531c-2.739-1.753-4.094-4.048-4.094-6.9a9.218,9.218,0,0,1,3.6-7.476q3.6-2.94,10.171-2.935,7.636,0,11.247,3.605a12.33,12.33,0,0,1,3.6,9.111h26.8s-.62-7.97-1.86-11H732v52.46c.89,18.49,10.23,27.73,28.54,27.73,5.42,0,15.46-2.35,15.46-2.35v-19.7A42.346,42.346,0,0,1,768.2,263.776Zm-152-6.916q-5.325,7.29-14.81,7.28-9.765,0-15-7.37t-5.24-21.31q0-15.645,5.24-23.11t14.82-7.46q9.66,0,14.99,7.51t5.33,21.17Q621.53,249.575,616.2,256.86Z"/><path class="cls-2" d="M367.159,256.653Q360.175,242.2,360,222.659v-9.118q0-20.086,6.62-34.779t19.093-22.479q12.473-7.786,29.223-7.792,23.329,0,36.481,11.382T467,193H440.724q-1.825-11.3-8.05-16.54t-17.126-5.23q-13.917,0-21.182,10.38T387,212.51v8.4q0,20.685,7.909,31.25t23.185,10.57q15.349,0,21.906-6.5V234H415V214h52v53.525q-7.3,8.951-20.628,13.871a84.66,84.66,0,0,1-29.542,4.926q-17.019,0-29.851-7.6A50.256,50.256,0,0,1,367.159,256.653Z"/><path class="cls-2" d="M425.861,318.45a19.931,19.931,0,0,0-10.574,2.82,18.75,18.75,0,0,0-7.168,8.02,24.521,24.521,0,0,0-2.139,6.88c.01-.39.02-.78.02-1.18v-2.83a30.245,30.245,0,0,0-3.518-14.69,24.708,24.708,0,0,0-9.769-9.97,28.675,28.675,0,0,0-14.205-3.5H360v59h18.4a28.2,28.2,0,0,0,13.993-3.538,24.22,24.22,0,0,0,9.6-9.87,28.216,28.216,0,0,0,3.02-9.224c-.02.259-.02.507-.02.766v1.123q0,9.795,6.1,15.674t15.805,5.884a23.81,23.81,0,0,0,10.037-2.077,17.665,17.665,0,0,0,7.188-5.785l-5.8-6.4a12.78,12.78,0,0,1-10.651,4.87,10.486,10.486,0,0,1-7.278-2.574A10.751,10.751,0,0,1,416.96,345H445v-4.78q0-10.425-5.119-16.09T425.861,318.45ZM393,335.183q-.077,8.6-3.911,13.2T377.978,353H372V314h6.1q7.318,0,11.111,4.6Q393,323.19,393,332.094ZM433,337H416.71a12.192,12.192,0,0,1,2.77-6.76,7.309,7.309,0,0,1,5.66-2.36,7.561,7.561,0,0,1,5.75,2.13,8.767,8.767,0,0,1,2.11,6.05Z"/><path class="cls-2" d="M671.5,322.361q3.488,4.17,3.5,12.543V363H663V335.04c0-2.48-.483-4.3-1.471-5.45s-2.7-1.72-5.176-1.72A7.365,7.365,0,0,0,649,332.89l.04,30.11H638V335.08q0-3.81-1.52-5.51c-1.013-1.14-2.735-1.7-5.166-1.7A7.7,7.7,0,0,0,624,332v31H612V319h11l.371,4.927A15.419,15.419,0,0,1,636,318.187q8.495,0,11.656,6.713,4.63-6.712,13.2-6.713Q668.014,318.187,671.5,322.361Z"/><polygon class="cls-2" points="468.588 319 480.87 319 466.029 363 454.801 363 439.96 319 452.242 319 460.41 348.651 468.588 319"/><path class="cls-2" d="M497.568,318.45a20.472,20.472,0,0,0-10.736,2.82,18.757,18.757,0,0,0-7.268,8.02A26.435,26.435,0,0,0,477,341.11v1.13q0,9.855,6.082,15.77t15.793,5.92a23.645,23.645,0,0,0,10.022-2.09,17.627,17.627,0,0,0,7.168-5.82l-5.78-6.44a12.738,12.738,0,0,1-10.636,4.9,10.454,10.454,0,0,1-7.278-2.59,10.9,10.9,0,0,1-3.438-6.89H517v-4.78q0-10.425-5.187-16.09T497.568,318.45ZM506,337H489.71a12.2,12.2,0,0,1,2.78-6.76,7.287,7.287,0,0,1,5.65-2.36,7.584,7.584,0,0,1,5.76,2.13,8.716,8.716,0,0,1,2.1,6.05Z"/><path class="cls-2" d="M565.2,324.15q-5.61-5.43-14.49-5.43a21.146,21.146,0,0,0-10.96,2.8,18.333,18.333,0,0,0-7.23,7.9A25.954,25.954,0,0,0,530,341.05v.53q0,10.455,5.66,16.54t15.13,6.08q9.5,0,15.12-6.1,5.64-6.105,5.63-16.19l-.08-3Q570.815,329.58,565.2,324.15Zm-7.44,27.34a8.445,8.445,0,0,1-13.37-.05c-1.57-2.2-2.35-5.39-2.35-9.55q0-7.02,2.35-10.38a7.629,7.629,0,0,1,6.64-3.34,7.765,7.765,0,0,1,6.73,3.37c1.6,2.24,2.39,5.41,2.39,9.49Q560.15,348.215,557.76,351.49Z"/><rect class="cls-2" x="518" y="301" width="12" height="62"/><path class="cls-2" d="M773.09,354.55q-2.64,0-3.57-1.05a16.478,16.478,0,0,1-1.52-3.49V328h8v-9h-7V309H757v10h-6v5.38a11.456,11.456,0,0,0-1.39-2.09q-3.431-4.1-10.445-4.1a15.479,15.479,0,0,0-12.7,5.88L726.1,319H715v15.365a19.637,19.637,0,0,0-4.652-10.108q-5.118-5.636-14.045-5.646a20.1,20.1,0,0,0-10.593,2.8,18.61,18.61,0,0,0-7.171,7.972A26.436,26.436,0,0,0,676,341.134v1.123q0,9.795,6.011,15.674t15.582,5.884a23.232,23.232,0,0,0,9.889-2.077,17.43,17.43,0,0,0,7.072-5.785l-5.7-6.4a12.533,12.533,0,0,1-10.494,4.87,10.264,10.264,0,0,1-7.181-2.574A10.859,10.859,0,0,1,687.783,345H715v18h12V332.08a7.775,7.775,0,0,1,7.2-4.21c2.435,0,4.172.56,5.229,1.68S741,332.47,741,334.96V363h12V334.881a26.312,26.312,0,0,0-.892-6.881H757v23.62q.245,12.45,12.784,12.45A25,25,0,0,0,777,363.01v-8.74S774.38,354.55,773.09,354.55ZM704,337H687.71a12.2,12.2,0,0,1,2.78-6.76,7.287,7.287,0,0,1,5.65-2.36,7.546,7.546,0,0,1,5.75,2.13,8.674,8.674,0,0,1,2.11,6.05Z"/><path class="cls-2" d="M594.752,318.186a13.912,13.912,0,0,0-11.2,5.135L583.143,319H572v61h12V359.241a13.808,13.808,0,0,0,10.833,4.642,14.891,14.891,0,0,0,12.527-6.129q4.645-6.134,4.64-16.307v-.613q0-10.6-4.529-16.619T594.752,318.186ZM591.66,354.75c-3.67,0-6.23-1.44-7.66-4.33V332.46q2.07-4.215,7.58-4.21a7.057,7.057,0,0,1,6.3,3.32c1.45,2.22,2.17,5.36,2.17,9.44Q600.05,354.75,591.66,354.75Z"/></svg>