<svg id="Layer_1" data-name="Layer 1" xmlns="http://www.w3.org/2000/svg" viewBox="0 0 336.69 521.12"><path d="M577.3,329.69c3.58-25.24,12-85.9,12-102.46,0-105-75.37-190.15-168.35-190.15S252.6,122.21,252.6,227.23c0,16.61,7.65,76.6,10,97.85-3.54,9-7.48,12.62-7.48,12.62,2.77-1,5-1.88,6.78-2.62-2.55,14.46-3.87,32-3.87,54.69a93,93,0,0,1,8.77-26.24c1.49,12.49,3,24.14,4.48,34.74C267.81,431.19,258,439.15,258,439.15c13.31-4.94,9.3-2,18.15-7.45,2.69,17.54,4.54,28.62,4.53,30.89a92,92,0,0,1,6-21c4.27,16.84,12.2,35.39,26.16,59.37a97.75,97.75,0,0,1-5.23-28.59c13.48,3.53,16.53,41,13.82,51.7q5.16-9,9.22-17.08c6.75,26-2.87,51.24-2.87,51.24,10.62-18.25,17.75-33.36,22.44-47,3.53,7.28,7.7,15.07,12.63,23.54a98,98,0,0,1-5.25-30.34c3.94,5.24,8.32,10.72,13.24,16.54a96.49,96.49,0,0,1-9.25-23.58c-.2-1.25-.38-2.54-.54-3.88,13.14,31.2,26.86,47.83,26.86,47.83-2.77-6.93-4.31-16.26-4.71-26.94,21.42,29,40.41,41.05,40.41,41.05-7.13-8.72-13.61-25.71-17.91-45.21,10.45,17.67,19,27.42,19,27.42-4.58-9.79-6.41-23.83-5.73-39.19,16,21.21,17,47.72,17,47.72,2.2-17.38,3-31.81,2.67-44.42,12.36,27.63,24.46,42.3,24.46,42.3a68.94,68.94,0,0,1-4-17.49c16.72,19.42,29.82,27.78,29.82,27.78-4.29-3.72-7.31-14.21-8.69-25.87,2.29,5.59,4.88,11.47,7.83,17.74-.14-.51-5-13.15-2.09-35.62,0,0,1.95-7.33,3.44-10.89,1.23,8.09,1.5,13.93,1.5,13.93,1.28-5.15,3.14-12.78,5-20.39,7.4,13.12,1.6,38.31,1.6,38.31,1-1.7,2.63-4.43,4.61-7.68a96.62,96.62,0,0,1-5.1,25.92c11.67-15.72,28-55.35,28-62.85,3.58,5.51,7.71,11.35,12.49,17.65-5.16-6.9-10.33-47.58,1.54-42.16,4.44,1.65,1,29.67.45,29.79C545.05,482.09,555,447,554,440.46c2.46,7.61,2.06,12.1,2.06,12.1,4.75-10,5.76-13,6.42-16.59,3.75,2.93,5.33,4.07,17.17,8.47,0,0-15-13.57-12.69-54.81q2.36-11.16,4.47-23a92.74,92.74,0,0,1,9.06,26.79c0-19.32-.95-34.89-2.81-48,1.67,1,3.76,2.13,6.45,3.56C584.17,349,579.51,343.36,577.3,329.69ZM373.23,214.21c-14.45,0-26.16-17-26.16-37.85s11.71-37.86,26.16-37.86,26.17,16.95,26.17,37.86S387.68,214.21,373.23,214.21Zm95.43,0c-14.45,0-26.17-17-26.17-37.85s11.72-37.86,26.17-37.86,26.16,16.95,26.16,37.86S483.11,214.21,468.66,214.21Z" transform="translate(-252.6 -37.08)"/></svg>