<svg id="Layer_1" data-name="Layer 1" xmlns="http://www.w3.org/2000/svg" viewBox="0 0 336.69 521.12"><path d="M577.3,329.69c3.58-25.24,12-85.9,12-102.46,0-105-75.37-190.15-168.35-190.15S252.6,122.21,252.6,227.23c0,16.61,7.65,76.6,10,97.85-3.54,9-7.48,12.62-7.48,12.62,2.77-1,5-1.88,6.78-2.62-2.55,14.46-3.87,32-3.87,54.69a93,93,0,0,1,8.77-26.24c1.49,12.49,3,24.14,4.48,34.74C267.81,431.19,258,439.15,258,439.15c13.31-4.94,9.3-2,18.15-7.45,2.69,17.54,4.54,28.62,4.53,30.89a92,92,0,0,1,6-21c4.27,16.84,12.2,35.39,26.16,59.37a97.75,97.75,0,0,1-5.23-28.59c41,31.34,20.17,85.86,20.17,85.86C343,532.07,351.08,512.38,355,494.34c3.09,6.11,6.61,12.57,10.64,19.5a98.1,98.1,0,0,1-5.15-36.29c28.49,55.88,63.12,77.91,63.12,77.91-14.22-17.39-25.86-67.69-22.79-105.12,2.3,15.37,6.89,33.21,14.62,55.77,0,0-4.48-23.54,3-45,18.06,30.59,3.9,67.71,3.9,67.71a321.63,321.63,0,0,0,16.34-31.5c35.74,65.08,70.6,60.8,70.6,60.8-25.21-16.55-25.64-39.92-20.83-72.3,13.12,18.74,3.86,43,3.86,43,1-1.74,20.74-21.18,29.8-37.61a128.49,128.49,0,0,0,14.53-42.91A39.7,39.7,0,0,1,540,463c.35,12.47-5.64,25.52-5.64,25.52A101.73,101.73,0,0,0,554,440.46c2.46,7.61,2.06,12.1,2.06,12.1,4.75-10,5.76-13,6.42-16.59,3.75,2.93,5.33,4.07,17.17,8.47,0,0-15-13.57-12.69-54.81q2.36-11.16,4.47-23a92.74,92.74,0,0,1,9.06,26.79c0-19.31-.95-34.89-2.81-48,1.67,1,3.76,2.13,6.45,3.56C584.17,349,579.51,343.36,577.3,329.69ZM373.23,214.21c-14.45,0-26.16-17-26.16-37.85s11.71-37.86,26.16-37.86,26.17,16.95,26.17,37.86S387.68,214.21,373.23,214.21Zm95.43,0c-14.45,0-26.17-17-26.17-37.85s11.72-37.86,26.17-37.86,26.16,16.95,26.16,37.86S483.11,214.21,468.66,214.21Z" transform="translate(-252.6 -37.08)"/></svg>