<svg width="1141" height="620" viewBox="0 0 1141 620" fill="none" xmlns="http://www.w3.org/2000/svg">
<path fill-rule="evenodd" clip-rule="evenodd" d="M683.467 547.834C725.816 495.85 753 415.297 753 324.869C753 168.093 671.292 41 570.5 41C469.708 41 388 168.093 388 324.869C388 410.801 412.547 487.814 451.33 539.87C483.849 473.292 523.159 434.363 565.5 434.363C609.503 434.363 650.232 476.407 683.467 547.834Z" fill="#7180B9"/>
<mask id="path-2-inside-1_35_3" fill="white">
<path fill-rule="evenodd" clip-rule="evenodd" d="M713.148 620C763.138 555.809 795 458.68 795 349.977C795 156.69 694.264 0 570 0C445.736 0 345 156.69 345 349.977C345 458.68 376.862 555.809 426.851 620C467.401 534.897 516.757 484.967 570 484.967C623.243 484.967 672.599 534.897 713.148 620Z"/>
</mask>
<path d="M713.148 620L686.066 632.904L706.965 676.767L736.818 638.433L713.148 620ZM426.851 620L403.182 638.433L433.035 676.766L453.934 632.904L426.851 620ZM765 349.977C765 453.349 734.609 543.616 689.479 601.567L736.818 638.433C791.667 568.001 825 464.012 825 349.977H765ZM570 30C618.465 30 666.491 60.5978 703.864 118.729C741.031 176.54 765 258.216 765 349.977H825C825 248.45 798.601 155.138 754.334 86.2823C710.273 17.7471 645.799 -30 570 -30V30ZM375 349.977C375 258.216 398.969 176.54 436.136 118.729C473.509 60.5978 521.535 30 570 30V-30C494.201 -30 429.727 17.7471 385.666 86.2823C341.399 155.138 315 248.45 315 349.977H375ZM450.521 601.567C405.391 543.616 375 453.349 375 349.977H315C315 464.012 348.333 568.001 403.182 638.433L450.521 601.567ZM453.934 632.904C473.312 592.236 493.91 561.939 514.451 542.203C534.854 522.599 553.442 514.968 570 514.968V454.967C533.314 454.967 500.603 472.301 472.88 498.938C445.295 525.442 420.94 562.662 399.769 607.096L453.934 632.904ZM570 514.968C586.558 514.968 605.146 522.599 625.549 542.203C646.09 561.939 666.688 592.236 686.066 632.904L740.231 607.096C719.06 562.662 694.705 525.442 667.12 498.938C639.397 472.301 606.686 454.967 570 454.967V514.968Z" fill="#000F3D" mask="url(#path-2-inside-1_35_3)"/>
<ellipse cx="510.5" cy="181.5" rx="44.5" ry="66.5" fill="#000F3D"/>
<ellipse cx="629.5" cy="181.5" rx="44.5" ry="66.5" fill="#000F3D"/>
<path fill-rule="evenodd" clip-rule="evenodd" d="M165.126 152.505C165.122 152.509 165.124 152.516 165.13 152.516H165.137C165.142 152.516 165.146 152.52 165.146 152.525V300.253C165.146 300.806 165.594 301.253 166.146 301.253H313C313.552 301.253 314 300.806 314 300.253V153.016C314 152.74 314.224 152.516 314.5 152.516C314.776 152.516 315 152.74 315 153.016V451.491C315 451.767 314.776 451.991 314.5 451.991C314.224 451.991 314 451.767 314 451.491V305.665C314 304.775 312.923 304.328 312.293 304.958L165.838 451.3L165.146 451.991L165.142 451.996C165.135 452.002 165.125 452.002 165.119 451.996C165.116 451.993 165.112 451.991 165.108 451.991H164.83C164.453 451.991 164.146 451.685 164.146 451.307C164.146 451.126 164.074 450.952 163.946 450.823L15.2929 302.253C14.9024 301.863 14.9024 301.23 15.2929 300.84L164.07 152.146C164.265 151.951 164.581 151.951 164.777 152.146L165.126 152.495C165.128 152.498 165.128 152.502 165.126 152.505ZM164.146 447.197C164.146 448.087 163.07 448.534 162.44 447.904L16.7079 302.254C16.3171 301.863 16.3171 301.23 16.7079 300.839L162.44 155.189C163.07 154.56 164.146 155.006 164.146 155.897V300.253C164.146 300.806 163.699 301.253 163.146 301.253H90.7197C90.4436 301.253 90.2197 301.477 90.2197 301.753C90.2197 302.03 90.4436 302.253 90.7197 302.253H163.146C163.699 302.253 164.146 302.701 164.146 303.253V447.197ZM311.876 303.961C312.507 303.331 312.061 302.253 311.169 302.253H166.146C165.594 302.253 165.146 302.701 165.146 303.253V448.164C165.146 449.055 166.223 449.501 166.853 448.872L311.876 303.961ZM1124.98 317.814C1125.18 318.009 1125.5 318.01 1125.69 317.814C1125.89 317.619 1125.89 317.302 1125.69 317.107L976.914 168.414C976.524 168.023 975.891 168.024 975.5 168.414C975.396 168.414 975.296 168.373 975.222 168.299L975.13 168.207C974.854 167.931 974.406 167.931 974.13 168.207L825.293 316.961C825.017 317.237 825.017 317.685 825.293 317.961L825.449 318.117C825.482 318.149 825.5 318.194 825.5 318.24C825.5 318.336 825.578 318.414 825.674 318.414H971.508C972.399 318.414 972.845 319.492 972.215 320.121L825.147 467.107C824.951 467.302 824.951 467.619 825.147 467.814C825.342 468.009 825.658 468.009 825.853 467.814L972.793 320.957C973.423 320.327 974.5 320.774 974.5 321.664V467.914C974.5 468.19 974.724 468.414 975 468.414C975.276 468.414 975.5 468.19 975.5 467.914V319.414C975.5 318.862 975.948 318.414 976.5 318.414H1050C1050.28 318.414 1050.5 318.19 1050.5 317.914C1050.5 317.638 1050.28 317.414 1050 317.414H976.5C975.948 317.414 975.5 316.966 975.5 316.414V168.414L1124.98 317.814ZM828.669 317.414C827.778 317.414 827.332 316.337 827.962 315.707L972.793 170.957C973.423 170.327 974.5 170.774 974.5 171.664V316.414C974.5 316.966 974.052 317.414 973.5 317.414H828.669Z" fill="#000F3D"/>
<path d="M165.126 152.505L154.522 141.895L154.516 141.901L154.511 141.906L165.126 152.505ZM312.293 304.958L301.691 294.347L301.691 294.347L312.293 304.958ZM165.838 451.3L155.235 440.689L155.233 440.691L165.838 451.3ZM165.146 451.991L154.542 441.382L154.54 441.384L165.146 451.991ZM165.142 451.996L175.722 462.628L175.735 462.615L175.748 462.602L165.142 451.996ZM165.119 451.996L175.713 441.376L175.706 441.369L175.699 441.362L165.119 451.996ZM163.946 450.823L174.55 440.214L174.55 440.214L163.946 450.823ZM15.2929 302.253L25.8966 291.644L25.8966 291.644L15.2929 302.253ZM15.2929 300.84L25.8965 311.449L25.8966 311.449L15.2929 300.84ZM164.07 152.146L153.466 141.537L153.466 141.537L164.07 152.146ZM164.777 152.146L175.38 141.537L175.38 141.537L164.777 152.146ZM165.126 152.495L175.73 141.886L175.729 141.886L165.126 152.495ZM162.44 447.904L173.043 437.294L173.043 437.294L162.44 447.904ZM16.7079 302.254L6.10418 312.863L6.10431 312.863L16.7079 302.254ZM16.7079 300.839L27.3115 311.449L27.3116 311.449L16.7079 300.839ZM162.44 155.189L151.836 144.58L151.836 144.58L162.44 155.189ZM311.876 303.961L322.479 314.572L322.479 314.571L311.876 303.961ZM166.853 448.872L156.251 438.261L156.251 438.261L166.853 448.872ZM1125.69 317.814L1115.09 307.204L1115.09 307.206L1125.69 317.814ZM1124.98 317.814L1135.59 307.206L1135.59 307.205L1124.98 317.814ZM1125.69 317.107L1115.09 327.717L1115.09 327.718L1125.69 317.107ZM976.914 168.414L966.31 179.023L966.311 179.023L976.914 168.414ZM975.222 168.299L985.827 157.69L985.826 157.689L975.222 168.299ZM975.13 168.207L964.527 178.817L964.527 178.817L975.13 168.207ZM974.13 168.207L984.734 178.817L984.734 178.817L974.13 168.207ZM825.293 316.961L814.689 306.351L814.689 306.352L825.293 316.961ZM825.293 317.961L814.689 328.57L814.689 328.57L825.293 317.961ZM825.449 318.117L814.845 328.726L814.847 328.728L825.449 318.117ZM972.215 320.121L961.611 309.512L961.611 309.512L972.215 320.121ZM825.147 467.107L814.543 456.498L814.542 456.498L825.147 467.107ZM825.147 467.814L814.542 478.423L814.543 478.424L825.147 467.814ZM825.853 467.814L836.457 478.424L836.457 478.424L825.853 467.814ZM972.793 320.957L962.19 310.347L962.189 310.348L972.793 320.957ZM827.962 315.707L838.566 326.317L838.566 326.316L827.962 315.707ZM972.793 170.957L962.19 160.347L962.189 160.348L972.793 170.957ZM165.13 137.516C178.498 137.516 185.164 153.666 175.74 163.103L154.511 141.906C145.08 151.352 151.751 167.516 165.13 167.516V137.516ZM165.137 137.516H165.13V167.516H165.137V137.516ZM180.146 152.525C180.146 144.234 173.425 137.516 165.137 137.516V167.516C156.86 167.516 150.146 160.806 150.146 152.525H180.146ZM180.146 300.253V152.525H150.146V300.253H180.146ZM166.146 286.253C173.878 286.253 180.146 292.521 180.146 300.253H150.146C150.146 309.09 157.31 316.253 166.146 316.253V286.253ZM313 286.253H166.146V316.253H313V286.253ZM299 300.253C299 292.521 305.268 286.253 313 286.253V316.253C321.837 316.253 329 309.09 329 300.253H299ZM299 153.016V300.253H329V153.016H299ZM314.5 137.516C305.939 137.516 299 144.456 299 153.016H329C329 161.024 322.508 167.516 314.5 167.516V137.516ZM330 153.016C330 144.455 323.06 137.516 314.5 137.516V167.516C306.492 167.516 300 161.024 300 153.016H330ZM330 451.491V153.016H300V451.491H330ZM314.5 466.991C323.06 466.991 330 460.052 330 451.491H300C300 443.482 306.492 436.991 314.5 436.991V466.991ZM299 451.491C299 460.051 305.94 466.991 314.5 466.991V436.991C322.508 436.991 329 443.483 329 451.491H299ZM299 305.665V451.491H329V305.665H299ZM322.895 315.569C314.075 324.383 299 318.136 299 305.665H329C329 291.414 311.772 284.274 301.691 294.347L322.895 315.569ZM176.44 461.911L322.896 315.569L301.691 294.347L155.235 440.689L176.44 461.911ZM175.751 462.6L176.442 461.909L155.233 440.691L154.542 441.382L175.751 462.6ZM175.748 462.602L175.753 462.598L154.54 441.384L154.535 441.389L175.748 462.602ZM154.525 462.615C160.356 468.432 169.834 468.488 175.722 462.628L154.561 441.363C160.437 435.516 169.894 435.572 175.713 441.376L154.525 462.615ZM165.108 466.991C161.082 466.991 157.301 465.377 154.54 462.629L175.699 441.362C172.931 438.609 169.142 436.991 165.108 436.991V466.991ZM164.83 466.991H165.108V436.991H164.83V466.991ZM149.146 451.307C149.146 459.97 156.169 466.991 164.83 466.991V436.991C172.736 436.991 179.146 443.4 179.146 451.307H149.146ZM153.342 461.432C150.656 458.748 149.146 455.106 149.146 451.307H179.146C179.146 447.145 177.493 443.155 174.55 440.214L153.342 461.432ZM4.6893 312.863L153.342 461.433L174.55 440.214L25.8966 291.644L4.6893 312.863ZM4.68931 290.23C-1.5631 296.479 -1.5631 306.614 4.6893 312.863L25.8966 291.644C31.3678 297.112 31.3678 305.981 25.8965 311.449L4.68931 290.23ZM153.466 141.537L4.6893 290.23L25.8966 311.449L174.673 162.756L153.466 141.537ZM175.38 141.537C169.328 135.488 159.518 135.488 153.466 141.537L174.673 162.756C169.011 168.415 159.835 168.415 154.173 162.756L175.38 141.537ZM175.729 141.886L175.38 141.537L154.173 162.756L154.522 163.105L175.729 141.886ZM175.73 163.114C181.594 157.253 181.593 147.747 175.73 141.886L154.521 163.104C148.663 157.249 148.663 147.752 154.522 141.895L175.73 163.114ZM151.836 458.513C161.917 468.589 179.146 461.448 179.146 447.197H149.146C149.146 434.726 164.222 428.478 173.043 437.294L151.836 458.513ZM6.10431 312.863L151.836 458.513L173.043 437.294L27.3116 291.644L6.10431 312.863ZM6.10438 290.23C-0.148374 296.479 -0.148229 306.614 6.10418 312.863L27.3117 291.644C32.7825 297.112 32.7827 305.981 27.3115 311.449L6.10438 290.23ZM151.836 144.58L6.10431 290.23L27.3116 311.449L173.043 165.799L151.836 144.58ZM179.146 155.897C179.146 141.644 161.917 134.505 151.836 144.58L173.043 165.799C164.223 174.614 149.146 168.368 149.146 155.897H179.146ZM179.146 300.253V155.897H149.146V300.253H179.146ZM163.146 316.253C171.983 316.253 179.146 309.09 179.146 300.253H149.146C149.146 292.522 155.414 286.253 163.146 286.253V316.253ZM90.7197 316.253H163.146V286.253H90.7197V316.253ZM105.22 301.753C105.22 309.761 98.728 316.253 90.7197 316.253V286.253C82.1591 286.253 75.2197 293.193 75.2197 301.753H105.22ZM90.7197 287.253C98.728 287.253 105.22 293.746 105.22 301.753H75.2197C75.2197 310.314 82.1591 317.253 90.7197 317.253V287.253ZM163.146 287.253H90.7197V317.253H163.146V287.253ZM179.146 303.253C179.146 294.417 171.983 287.253 163.146 287.253V317.253C155.414 317.253 149.146 310.985 149.146 303.253H179.146ZM179.146 447.197V303.253H149.146V447.197H179.146ZM311.169 317.253C298.694 317.253 292.449 302.168 301.274 293.35L322.479 314.571C332.564 304.494 325.427 287.253 311.169 287.253V317.253ZM166.146 317.253H311.169V287.253H166.146V317.253ZM180.146 303.253C180.146 310.986 173.878 317.253 166.146 317.253V287.253C157.31 287.253 150.146 294.417 150.146 303.253H180.146ZM180.146 448.164V303.253H150.146V448.164H180.146ZM156.251 438.261C165.072 429.446 180.146 435.695 180.146 448.164H150.146C150.146 462.416 167.375 469.556 177.456 459.482L156.251 438.261ZM301.274 293.35L156.251 438.261L177.456 459.482L322.479 314.572L301.274 293.35ZM1115.09 307.206C1120.75 301.545 1129.93 301.546 1135.59 307.206L1114.38 328.423C1120.43 334.473 1130.24 334.474 1136.3 328.423L1115.09 307.206ZM1115.09 327.718C1109.42 322.054 1109.42 312.867 1115.09 307.204L1136.29 328.425C1142.35 322.371 1142.35 312.55 1136.29 306.496L1115.09 327.718ZM966.311 179.023L1115.09 327.717L1136.29 306.497L987.518 157.804L966.311 179.023ZM986.103 179.024C980.645 184.479 971.785 184.495 966.31 179.023L987.518 157.805C981.262 151.552 971.136 151.569 964.897 157.804L986.103 179.024ZM975.5 153.414C979.372 153.414 983.087 154.951 985.827 157.69L964.618 178.908C967.506 181.794 971.42 183.414 975.5 183.414V153.414ZM985.826 157.689L985.733 157.597L964.527 178.817L964.619 178.909L985.826 157.689ZM985.734 157.598C979.601 151.468 969.66 151.467 963.526 157.598L984.734 178.817C979.153 184.395 970.107 184.394 964.527 178.817L985.734 157.598ZM963.526 157.597L814.689 306.351L835.896 327.57L984.734 178.817L963.526 157.597ZM814.689 306.352C808.551 312.486 808.551 322.435 814.689 328.57L835.897 307.351C841.482 312.934 841.482 321.988 835.897 327.57L814.689 306.352ZM814.689 328.57L814.845 328.726L836.052 307.507L835.896 307.351L814.689 328.57ZM814.847 328.728C812.062 325.946 810.5 322.172 810.5 318.24H840.5C840.5 314.216 838.901 310.353 836.051 307.505L814.847 328.728ZM810.5 318.24C810.5 326.623 817.296 333.414 825.674 333.414V303.414C833.86 303.414 840.5 310.049 840.5 318.24H810.5ZM825.674 333.414H971.508V303.414H825.674V333.414ZM971.508 333.414C959.033 333.414 952.787 318.33 961.611 309.512L982.818 330.731C992.902 320.653 985.764 303.414 971.508 303.414V333.414ZM961.611 309.512L814.543 456.498L835.75 477.717L982.818 330.731L961.611 309.512ZM814.542 456.498C808.486 462.552 808.486 472.37 814.542 478.423L835.751 457.205C841.416 462.868 841.416 472.053 835.751 477.716L814.542 456.498ZM814.543 478.424C820.596 484.473 830.404 484.473 836.457 478.424L815.25 457.204C820.912 451.546 830.088 451.546 835.75 457.204L814.543 478.424ZM836.457 478.424L983.397 331.567L962.189 310.348L815.25 457.205L836.457 478.424ZM983.396 331.567C974.576 340.382 959.5 334.135 959.5 321.664H989.5C989.5 307.412 972.27 300.273 962.19 310.347L983.396 331.567ZM959.5 321.664V467.914H989.5V321.664H959.5ZM959.5 467.914C959.5 476.475 966.44 483.414 975 483.414V453.414C983.008 453.414 989.5 459.905 989.5 467.914H959.5ZM975 483.414C983.56 483.414 990.5 476.475 990.5 467.914H960.5C960.5 459.905 966.992 453.414 975 453.414V483.414ZM990.5 467.914V319.414H960.5V467.914H990.5ZM990.5 319.414C990.5 327.146 984.232 333.414 976.5 333.414V303.414C967.663 303.414 960.5 310.578 960.5 319.414H990.5ZM976.5 333.414H1050V303.414H976.5V333.414ZM1050 333.414C1058.56 333.414 1065.5 326.475 1065.5 317.914H1035.5C1035.5 309.906 1041.99 303.414 1050 303.414V333.414ZM1065.5 317.914C1065.5 309.353 1058.56 302.414 1050 302.414V332.414C1041.99 332.414 1035.5 325.923 1035.5 317.914H1065.5ZM1050 302.414H976.5V332.414H1050V302.414ZM976.5 302.414C984.232 302.414 990.5 308.682 990.5 316.414H960.5C960.5 325.25 967.663 332.414 976.5 332.414V302.414ZM990.5 316.414V168.414H960.5V316.414H990.5ZM1135.59 307.205L986.104 157.805L964.896 179.024L1114.38 328.424L1135.59 307.205ZM817.359 305.097C807.274 315.175 814.413 332.414 828.669 332.414V302.414C841.143 302.414 847.389 317.498 838.566 326.317L817.359 305.097ZM962.189 160.348L817.359 305.097L838.566 326.316L983.397 181.567L962.189 160.348ZM989.5 171.664C989.5 157.412 972.27 150.273 962.19 160.347L983.397 181.567C974.576 190.382 959.5 184.135 959.5 171.664H989.5ZM989.5 316.414V171.664H959.5V316.414H989.5ZM973.5 332.414C982.337 332.414 989.5 325.25 989.5 316.414H959.5C959.5 308.682 965.768 302.414 973.5 302.414V332.414ZM828.669 332.414H973.5V302.414H828.669V332.414Z" fill="#000F3D"/>
</svg>
