<svg id="Layer_1" data-name="Layer 1" xmlns="http://www.w3.org/2000/svg" viewBox="0 0 510 253"><defs><style>.cls-1{fill:#1f7a00;}</style></defs><path class="cls-1" d="M391.92,481.79h-8.71v16.1h8.71c6.54,0,9.84-3,9.84-8.05S398.46,481.79,391.92,481.79Z" transform="translate(-245 -373.5)"/><path class="cls-1" d="M443.4,481.39c-8.25,0-14.45,6-14.45,14.78S435.15,511,443.4,511s14.46-6,14.46-14.79S451.65,481.39,443.4,481.39Z" transform="translate(-245 -373.5)"/><path class="cls-1" d="M740,373.5H260a15,15,0,0,0-15,15v223a15,15,0,0,0,15,15H740a15,15,0,0,0,15-15v-223A15,15,0,0,0,740,373.5Zm-395.13,133h-9.31v12.74H324.87V473.08h20c12.34,0,20.06,6.4,20.06,16.76S357.21,506.53,344.87,506.53ZM402,519.27l-8.91-12.87h-9.84v12.87H372.52V473.08h20c12.34,0,20.06,6.4,20.06,16.76,0,6.93-3.5,12-9.5,14.58l10.36,14.85Zm41.44.79c-14.58,0-25.27-10.16-25.27-23.89s10.69-23.89,25.27-23.89,25.28,10.1,25.28,23.89S457.92,520.06,443.4,520.06Zm57.49-17c0,11.41-5.74,17-16.63,17-6.21,0-11.68-2.37-15.05-6.73l5.94-7.13c2.51,3.37,5.28,5.09,8.58,5.09,4.29,0,6.53-2.58,6.53-7.66v-22H474v-8.57h26.86Zm46.33,16.23H511.45V473.08h34.91v8.57H522.08v10h21.44V500H522.08v10.69h25.14ZM578.31,511a14.72,14.72,0,0,0,11.61-5.48l6.86,6.33c-4.35,5.35-11,8.25-19.07,8.25-14.32,0-25-10-25-23.89s10.69-23.89,25.08-23.89c8,0,14.65,2.91,19,8.19l-6.86,6.33a14.87,14.87,0,0,0-11.61-5.41c-8.65,0-14.79,6.07-14.79,14.78S569.66,511,578.31,511Zm60.25-29.17H623.78v37.48H613.09V481.79H598.31v-8.71h40.25Zm20.6,38.27c-7.33,0-14.72-2.17-18.81-5.34l3.63-8.05a27.21,27.21,0,0,0,15.24,4.81c6.34,0,8.91-2.11,8.91-5,0-8.64-26.86-2.7-26.86-19.86,0-7.85,6.34-14.39,19.47-14.39,5.81,0,11.75,1.39,16,4.1l-3.3,8.11a26.11,26.11,0,0,0-12.81-3.63c-6.33,0-8.77,2.38-8.77,5.28,0,8.52,26.86,2.64,26.86,19.6C678.76,513.46,672.36,520.06,659.16,520.06Z" transform="translate(-245 -373.5)"/><path class="cls-1" d="M344.27,481.79h-8.71v16h8.71c6.54,0,9.84-3,9.84-8S350.81,481.79,344.27,481.79Z" transform="translate(-245 -373.5)"/></svg>