<svg id="Layer_1" data-name="Layer 1" xmlns="http://www.w3.org/2000/svg" xmlns:xlink="http://www.w3.org/1999/xlink" viewBox="0 0 1125 2436"><defs><style>.cls-1{fill:url(#radial-gradient);}.cls-2,.cls-3{fill:none;stroke:#000;stroke-miterlimit:10;}.cls-2{stroke-width:10px;}.cls-3{stroke-width:6px;}</style><radialGradient id="radial-gradient" cx="562.5" cy="1218" r="948.66" gradientUnits="userSpaceOnUse"><stop offset="0" stop-color="#36f"/><stop offset="0.02" stop-color="#3264fa"/><stop offset="0.39" stop-color="#1d3a90"/><stop offset="0.69" stop-color="#0d1b43"/><stop offset="0.9" stop-color="#040713"/><stop offset="1"/></radialGradient></defs><rect class="cls-1" width="1125" height="2436"/><path class="cls-2" d="M546,982.93" transform="translate(-1 0)"/><path class="cls-3" d="M936.8,2316.8" transform="translate(-1 0)"/><path class="cls-3" d="M773.44,1851.67" transform="translate(-1 0)"/><path d="M733.36,1864.52h0l-81.12-76.44h0a10.73,10.73,0,0,0-14.76,0h0l-62.93,59.3v-50.72a11.06,11.06,0,0,0-9.07-11,10.93,10.93,0,0,0-12.77,10.77v65.17H492.39v-65a11,11,0,0,0-18.44-8.23h0l-82.25,76.19h0a10.82,10.82,0,0,0,0,15.92h0l82.25,76.19h0a11,11,0,0,0,15,0h0l63.8-59.1v50.74c0,5.88,4.81,11.13,10.69,11.2a10.76,10.76,0,0,0,7.51-2.9l.08-.08,62.84-58.65v50.67a11.09,11.09,0,0,0,9.08,11,10.92,10.92,0,0,0,12.76-10.77v-65.34h29.41a11.05,11.05,0,0,0,11-9.07,10.9,10.9,0,0,0-10.67-12.77H655.67v-40.39l62.85,59.22.08.08a10.79,10.79,0,0,0,17.9-5.38A11,11,0,0,0,733.36,1864.52Zm-261.77-2.94H441.82a11.07,11.07,0,0,0-11,9.08,10.92,10.92,0,0,0,10.77,12.76h30v40.39l-55-51.31,55-51.31Zm21.84,62.1v-40.26h43.14Zm141.44-102.36v40.26H591.74Zm-60.32,102.36v-40.26h43.14Z" transform="translate(-1 0)"/><path d="M833.67,1278.92c6.32-44.49,21.13-151.39,21.13-180.57,0-181.77-128.13-329.72-287.94-334.93v-.15c-1.46,0-2.91,0-4.36.06s-2.9-.06-4.36-.06v.15C398.33,768.63,270.2,916.58,270.2,1098.35c0,29.18,14.81,136.08,21.13,180.57-3.89,24.08-12.1,34-12.1,34,4.74-2.53,8.42-4.56,11.36-6.28-3.27,23.13-4.95,50.57-5,84.61a164,164,0,0,1,16-47.21q3.73,20.82,7.88,40.51c4.1,72.67-22.36,96.58-22.36,96.58,20.86-7.75,23.64-9.77,30.25-14.92,1.17,6.36,2.95,11.58,11.33,29.23,0,0-.71-7.91,3.62-21.32-1.68,11.51,15.69,72.86,25.57,91-1.22-3.52-6.62-49.47.92-52.26,16.53-1,11.93,54.65,4.57,71,5.73-7.81,16.31-22,20.14-27.86,0,13.21,28.8,83.06,49.36,110.75a170.77,170.77,0,0,1-9-45.68c3.49,5.74,6.39,10.55,8.13,13.53,0,0-10.24-44.38,2.82-67.51,3.3,13.41,6.57,26.87,8.82,35.95,0,0,.48-10.3,2.65-24.56,13.7,5.22,18.56,79.29,3.92,94.18,7.2-5.15,26.38-20,49.48-46.85-1.35,11.89-3.66,22.39-7,30.83,0,0,18.43-22.38,38.54-64.67,3.13,30.66,8.32,48.21,8.32,48.21.18-9.09,2.16-19.67,5.56-31.13,10.77,33.74,22.63,54.9,27.24,62.46-4.36-11.08,4.62-37.36,15.86-57.83,5.38,9.44,9.38,18.4,11.58,26.51,0,0,.66-15.18-2.54-41l0-.06c18.7,37.63,35,57.46,35,57.46-3.38-8.44-5.69-18.94-7-30.83,23.1,26.85,42.28,41.7,49.48,46.85-14.64-14.89-9.78-89,3.92-94.18,2.17,14.26,2.65,24.56,2.65,24.56,2.25-9.08,5.52-22.54,8.82-35.95,13.06,23.13,2.82,67.51,2.82,67.51,1.74-3,4.64-7.79,8.13-13.53a170.77,170.77,0,0,1-9,45.68c20.56-27.69,49.38-97.54,49.36-110.75,3.83,5.9,14.41,20,20.14,27.86-7.36-16.4-12-72.08,4.57-71,7.54,2.79,2.14,48.74.92,52.26,9.88-18.17,27.25-79.52,25.57-91,4.33,13.41,3.62,21.32,3.62,21.32,8.38-17.65,10.16-22.87,11.33-29.23,6.61,5.15,9.39,7.17,30.25,14.92,0,0-26.46-23.91-22.36-96.58q4.14-19.66,7.88-40.51a164,164,0,0,1,16,47.21c0-34-1.69-61.48-5-84.61,2.94,1.72,6.62,3.75,11.36,6.28C845.77,1312.91,837.56,1303,833.67,1278.92ZM482.78,1075.41c-25.46,0-46.11-29.86-46.11-66.7S457.32,942,482.78,942s46.11,29.87,46.11,66.71S508.25,1075.41,482.78,1075.41Zm159.44,0c-25.47,0-46.11-29.86-46.11-66.7S616.75,942,642.22,942s46.11,29.87,46.11,66.71S667.68,1075.41,642.22,1075.41Z" transform="translate(-1 0)"/></svg>