<svg id="Layer_1" data-name="Layer 1" xmlns="http://www.w3.org/2000/svg" xmlns:xlink="http://www.w3.org/1999/xlink" viewBox="0 0 1125 2436"><defs><style>.cls-1{fill:url(#radial-gradient);}.cls-2,.cls-3{fill:none;stroke:#000;stroke-miterlimit:10;}.cls-2{stroke-width:10px;}.cls-3{stroke-width:6px;}</style><radialGradient id="radial-gradient" cx="562.5" cy="1218" r="948.66" gradientUnits="userSpaceOnUse"><stop offset="0" stop-color="#36f"/><stop offset="0.02" stop-color="#3264fa"/><stop offset="0.39" stop-color="#1d3a90"/><stop offset="0.69" stop-color="#0d1b43"/><stop offset="0.9" stop-color="#040713"/><stop offset="1"/></radialGradient></defs><rect class="cls-1" width="1125" height="2436"/><path class="cls-2" d="M546,982.93" transform="translate(-1 0)"/><path class="cls-3" d="M936.8,2316.8" transform="translate(-1 0)"/><path class="cls-3" d="M773.44,1851.67" transform="translate(-1 0)"/><path d="M733.36,1864.52h0l-81.12-76.44h0a10.73,10.73,0,0,0-14.76,0h0l-62.93,59.3v-50.72a11.06,11.06,0,0,0-9.07-11,10.93,10.93,0,0,0-12.77,10.77v65.17H492.39v-65a11,11,0,0,0-18.44-8.23h0l-82.25,76.19h0a10.82,10.82,0,0,0,0,15.92h0l82.25,76.19h0a11,11,0,0,0,15,0h0l63.8-59.1v50.74c0,5.88,4.81,11.13,10.69,11.2a10.76,10.76,0,0,0,7.51-2.9l.08-.08,62.84-58.65v50.67a11.09,11.09,0,0,0,9.08,11,10.92,10.92,0,0,0,12.76-10.77v-65.34h29.41a11.05,11.05,0,0,0,11-9.07,10.9,10.9,0,0,0-10.67-12.77H655.67v-40.39l62.85,59.22.08.08a10.79,10.79,0,0,0,17.9-5.38A11,11,0,0,0,733.36,1864.52Zm-261.77-2.94H441.82a11.07,11.07,0,0,0-11,9.08,10.92,10.92,0,0,0,10.77,12.76h30v40.39l-55-51.31,55-51.31Zm21.84,62.1v-40.26h43.14Zm141.44-102.36v40.26H591.74Zm-60.32,102.36v-40.26h43.14Z" transform="translate(-1 0)"/><path d="M836.12,1274.1c6.27-44.18,21-150.34,21-179.32C857.11,911,725.21,762,562.5,762S267.89,911,267.89,1094.78c0,29.08,13.4,134.06,17.52,171.24-6.18,15.82-13.09,22.09-13.09,22.09,4.85-1.8,8.71-3.29,11.87-4.58-4.47,25.3-6.77,56-6.78,95.71a162.82,162.82,0,0,1,15.36-45.92c2.61,21.84,5.27,42.23,7.84,60.79-6.09,57.6-23.23,71.54-23.23,71.54,23.29-8.65,16.28-3.53,31.77-13,4.7,30.7,7.94,50.08,7.92,54.05a161.21,161.21,0,0,1,10.52-36.79c7.47,29.46,21.35,61.93,45.78,103.89a170.91,170.91,0,0,1-9.15-50C435.9,1578.58,399.51,1674,399.51,1674c26.62-45.72,40.72-80.18,47.64-111.76,5.4,10.69,11.57,22,18.62,34.13a171.43,171.43,0,0,1-9-63.5c49.86,97.78,110.45,136.34,110.45,136.34-24.89-30.43-45.25-118.47-39.87-184,4,26.89,12,58.11,25.58,97.6,0,0-7.84-41.2,5.22-78.72,31.6,53.54,6.83,118.49,6.83,118.49a564.35,564.35,0,0,0,28.58-55.12c62.56,113.88,123.56,106.4,123.56,106.4-44.13-29-44.87-69.86-36.47-126.53,23,32.81,6.77,75.25,6.77,75.25,1.78-3,36.28-37.07,52.14-65.81A224.84,224.84,0,0,0,765,1481.7a69.21,69.21,0,0,1,5.93,25.71c.62,21.83-9.86,44.67-9.86,44.67a178.21,178.21,0,0,0,34.37-84.14c4.3,13.31,3.59,21.17,3.59,21.17,8.33-17.52,10.09-22.71,11.25-29,6.56,5.12,9.33,7.13,30,14.82,0,0-26.28-23.74-22.2-95.91q4.11-19.53,7.82-40.23a162.63,162.63,0,0,1,15.86,46.88c0-33.8-1.68-61.06-4.93-84,2.93,1.71,6.58,3.72,11.29,6.23C848.14,1307.85,840,1298,836.12,1274.1ZM479,1072c-25.28,0-45.79-29.66-45.79-66.24s20.51-66.25,45.79-66.25,45.79,29.66,45.79,66.25S504.29,1072,479,1072Zm167,0c-25.29,0-45.79-29.66-45.79-66.24s20.5-66.25,45.79-66.25,45.79,29.66,45.79,66.25S671.28,1072,646,1072Z" transform="translate(-1 0)"/></svg>