<svg id="Layer_1" data-name="Layer 1" xmlns="http://www.w3.org/2000/svg" xmlns:xlink="http://www.w3.org/1999/xlink" viewBox="0 0 1125 2436"><defs><style>.cls-1{fill:url(#radial-gradient);}.cls-2,.cls-3{fill:none;stroke:#000;stroke-miterlimit:10;}.cls-2{stroke-width:10px;}.cls-3{stroke-width:6px;}</style><radialGradient id="radial-gradient" cx="562.5" cy="1218" r="948.66" gradientUnits="userSpaceOnUse"><stop offset="0" stop-color="#36f"/><stop offset="0.02" stop-color="#3264fa"/><stop offset="0.39" stop-color="#1d3a90"/><stop offset="0.69" stop-color="#0d1b43"/><stop offset="0.9" stop-color="#040713"/><stop offset="1"/></radialGradient></defs><rect class="cls-1" width="1125" height="2436"/><path class="cls-2" d="M546,982.93" transform="translate(-1 0)"/><path class="cls-3" d="M936.8,2316.8" transform="translate(-1 0)"/><path class="cls-3" d="M773.44,1851.67" transform="translate(-1 0)"/><path d="M733.36,1864.52h0l-81.12-76.44h0a10.73,10.73,0,0,0-14.76,0h0l-62.93,59.3v-50.72a11.06,11.06,0,0,0-9.07-11,10.93,10.93,0,0,0-12.77,10.77v65.17H492.39v-65a11,11,0,0,0-18.44-8.23h0l-82.25,76.19h0a10.82,10.82,0,0,0,0,15.92h0l82.25,76.19h0a11,11,0,0,0,15,0h0l63.8-59.1v50.74c0,5.88,4.81,11.13,10.69,11.2a10.76,10.76,0,0,0,7.51-2.9l.08-.08,62.84-58.65v50.67a11.09,11.09,0,0,0,9.08,11,10.92,10.92,0,0,0,12.76-10.77v-65.34h29.41a11.05,11.05,0,0,0,11-9.07,10.9,10.9,0,0,0-10.67-12.77H655.67v-40.39l62.85,59.22.08.08a10.79,10.79,0,0,0,17.9-5.38A11,11,0,0,0,733.36,1864.52Zm-261.77-2.94H441.82a11.07,11.07,0,0,0-11,9.08,10.92,10.92,0,0,0,10.77,12.76h30v40.39l-55-51.31,55-51.31Zm21.84,62.1v-40.26h43.14Zm141.44-102.36v40.26H591.74Zm-60.32,102.36v-40.26h43.14Z" transform="translate(-1 0)"/><path d="M836.12,1274.1c6.27-44.18,21-150.34,21-179.32C857.11,911,725.21,762,562.5,762S267.89,911,267.89,1094.78c0,29.08,13.4,134.06,17.52,171.24-6.18,15.82-13.09,22.09-13.09,22.09,4.85-1.8,8.71-3.29,11.87-4.58-4.47,25.3-6.77,56-6.78,95.71a162.82,162.82,0,0,1,15.36-45.92c2.61,21.84,5.27,42.23,7.84,60.79-6.09,57.6-23.23,71.54-23.23,71.54,23.29-8.65,16.28-3.53,31.77-13,4.7,30.7,7.94,50.08,7.92,54.05a161.21,161.21,0,0,1,10.52-36.79c7.47,29.46,21.35,61.93,45.78,103.89a170.91,170.91,0,0,1-9.15-50c23.58,6.18,28.92,71.74,24.19,90.48q9-15.77,16.13-29.89c11.8,45.51-5,89.67-5,89.67,18.6-31.94,31.07-58.37,39.27-82.18,6.18,12.75,13.47,26.38,22.11,41.2a171.56,171.56,0,0,1-9.2-53.1c6.9,9.17,14.57,18.77,23.18,28.95a168.78,168.78,0,0,1-16.19-41.27c-.35-2.18-.67-4.43-.95-6.79,23,54.61,47,83.7,47,83.7-4.85-12.12-7.54-28.45-8.24-47.14,37.49,50.67,70.71,71.84,70.71,71.84-12.48-15.26-23.81-45-31.34-79.11,18.29,30.92,33.19,48,33.19,48-8-17.13-11.23-41.7-10-68.57,27.92,37.11,29.66,83.5,29.66,83.5,3.85-30.41,5.29-55.67,4.68-77.74,21.63,48.36,42.8,74,42.8,74-3.36-8.39-5.65-18.82-7-30.62,29.25,34,52.18,48.62,52.18,48.62-7.51-6.5-12.8-24.86-15.21-45.27,4,9.78,8.55,20.08,13.71,31-.26-.9-8.8-23-3.66-62.32,0,0,3.4-12.83,6-19.07,2.15,14.16,2.63,24.38,2.63,24.38,2.24-9,5.49-22.37,8.76-35.69,13,23,2.81,67,2.81,67,1.72-3,4.6-7.74,8.06-13.44a169.42,169.42,0,0,1-8.91,45.37c20.42-27.5,49-96.86,49-110,6.26,9.63,13.48,19.85,21.85,30.88-9-12.07-18.08-83.26,2.69-73.78,7.77,2.88,1.7,51.92.79,52.13,9.79-17.77,27.19-79.15,25.52-90.63,4.3,13.31,3.59,21.17,3.59,21.17,8.33-17.52,10.09-22.71,11.25-29,6.56,5.12,9.33,7.13,30,14.82,0,0-26.28-23.74-22.2-95.91q4.11-19.53,7.82-40.23a162.63,162.63,0,0,1,15.86,46.88c0-33.8-1.68-61.06-4.93-84,2.93,1.71,6.58,3.72,11.29,6.23C848.14,1307.85,840,1298,836.12,1274.1ZM479,1072c-25.28,0-45.79-29.66-45.79-66.24s20.51-66.25,45.79-66.25,45.79,29.66,45.79,66.25S504.29,1072,479,1072Zm167,0c-25.29,0-45.79-29.66-45.79-66.24s20.5-66.25,45.79-66.25,45.79,29.66,45.79,66.25S671.28,1072,646,1072Z" transform="translate(-1 0)"/></svg>