<svg id="Layer_1" data-name="Layer 1" xmlns="http://www.w3.org/2000/svg" xmlns:xlink="http://www.w3.org/1999/xlink" viewBox="0 0 1366 775"><defs><style>.cls-1{fill:url(#radial-gradient);}</style><radialGradient id="radial-gradient" cx="683" cy="387.5" r="555.27" gradientUnits="userSpaceOnUse"><stop offset="0" stop-color="#36f"/><stop offset="0.13" stop-color="#2953cf"/><stop offset="0.3" stop-color="#1d3a91"/><stop offset="0.48" stop-color="#13255d"/><stop offset="0.64" stop-color="#0b1535"/><stop offset="0.78" stop-color="#050a18"/><stop offset="0.91" stop-color="#010206"/><stop offset="1"/></radialGradient></defs><rect class="cls-1" width="1366" height="775"/><path d="M1083.43,406.86h0l-46.8-44.36h0a6.19,6.19,0,0,0-8.52,0h0l-36.3,34.41V367.35a6.82,6.82,0,0,0-4.95-6.39,6.34,6.34,0,0,0-7.72,6.19v38H944V367.29a6.38,6.38,0,0,0-10.74-4.79h0l-47.87,44.36h0a6.31,6.31,0,0,0,0,9.27h0l47.87,44.35h0a6.4,6.4,0,0,0,8.71,0h0l37.13-34.4v29.3a6.51,6.51,0,0,0,6.31,6.55,6.22,6.22,0,0,0,4.18-1.68l0-.05,36.26-33.83v29.29a6.83,6.83,0,0,0,4.94,6.4,6.35,6.35,0,0,0,7.73-6.19v-38h16.85a6.71,6.71,0,0,0,6.5-5.53,6.3,6.3,0,0,0-6.19-7.14h-17.16V381.72l36.26,34.36,0,.05a6.3,6.3,0,0,0,7,1.09,5.63,5.63,0,0,0,2.82-2.81A6.53,6.53,0,0,0,1083.43,406.86Zm-152.07-1.7H914.14a6.82,6.82,0,0,0-6.4,4.94,6.35,6.35,0,0,0,6.19,7.73h17.43v23.44l-31.9-29.78,31.9-29.77ZM944,441.27V417.83h25.11Zm82.87-59.55v23.44H1001.8Zm-35.1,59.55V417.83h25.11Z" transform="translate(-3 -3)"/><path d="M838.34,424.72c3.55-25,11.87-85.05,11.87-101.44,0-102.11-72-185.23-161.76-188.16V135c-.82,0-1.63,0-2.45,0s-1.63,0-2.45,0v.09c-89.78,2.93-161.76,86-161.76,188.16,0,16.39,8.32,76.45,11.87,101.44-2.19,13.53-6.8,19.1-6.8,19.1,2.66-1.42,4.73-2.56,6.38-3.53-1.84,13-2.78,28.41-2.78,47.53a91.82,91.82,0,0,1,9-26.52q2.1,11.7,4.42,22.76c2.31,40.83-12.56,54.26-12.56,54.26,11.72-4.35,13.28-5.49,17-8.38.65,3.57,1.65,6.51,6.36,16.42,0,0-.4-4.45,2-12-.94,6.47,8.82,40.93,14.37,51.14-.68-2-3.72-27.79.52-29.36,9.28-.58,6.7,30.71,2.57,39.92,3.21-4.39,9.16-12.34,11.31-15.65,0,7.42,16.18,46.66,27.73,62.22a96,96,0,0,1-5-25.67c2,3.23,3.59,5.93,4.56,7.61,0,0-5.75-24.94,1.59-37.93,1.85,7.53,3.69,15.09,5,20.19,0,0,.27-5.78,1.49-13.79,7.7,2.93,10.43,44.54,2.2,52.91,4.05-2.9,14.82-11.24,27.8-26.32a68.33,68.33,0,0,1-4,17.32s10.36-12.58,21.66-36.34c1.75,17.23,4.67,27.09,4.67,27.09a67.93,67.93,0,0,1,3.12-17.49c6.06,18.95,12.72,30.84,15.31,35.09-2.45-6.22,2.59-21,8.91-32.49a66,66,0,0,1,6.51,14.9,154.93,154.93,0,0,0-1.43-23l0,0C716,625.83,725.23,637,725.23,637a68.33,68.33,0,0,1-4-17.32c13,15.08,23.75,23.42,27.8,26.32-8.23-8.37-5.5-50,2.2-52.91,1.22,8,1.49,13.79,1.49,13.79,1.26-5.1,3.1-12.66,5-20.19,7.34,13,1.59,37.93,1.59,37.93,1-1.68,2.6-4.38,4.56-7.61a96,96,0,0,1-5,25.67c11.55-15.56,27.74-54.8,27.73-62.22,2.15,3.31,8.1,11.26,11.31,15.65-4.13-9.21-6.71-40.5,2.57-39.92,4.24,1.57,1.2,27.39.52,29.36,5.55-10.21,15.31-44.67,14.37-51.14,2.43,7.53,2,12,2,12,4.71-9.91,5.71-12.85,6.36-16.42,3.72,2.89,5.28,4,17,8.38,0,0-14.87-13.43-12.56-54.26q2.33-11,4.42-22.76a91.82,91.82,0,0,1,9,26.52c0-19.12-.94-34.54-2.78-47.53,1.65,1,3.72,2.11,6.38,3.53C845.14,443.82,840.53,438.25,838.34,424.72ZM641.21,310.39c-14.3,0-25.9-16.77-25.9-37.47s11.6-37.48,25.9-37.48,25.91,16.78,25.91,37.48S655.52,310.39,641.21,310.39Zm89.58,0c-14.31,0-25.91-16.77-25.91-37.47s11.6-37.48,25.91-37.48,25.9,16.78,25.9,37.48S745.09,310.39,730.79,310.39Z" transform="translate(-3 -3)"/></svg>