<svg id="Layer_1" data-name="Layer 1" xmlns="http://www.w3.org/2000/svg" viewBox="0 0 328.43 510.93"><path d="M573.28,331.86c3.56-25,11.88-85.05,11.88-101.44,0-102.12-72-185.24-161.77-188.16v-.09c-.82,0-1.63,0-2.45,0s-1.63,0-2.44,0v.09c-89.78,2.92-161.77,86-161.77,188.16,0,16.39,8.32,76.45,11.87,101.44-2.18,13.53-6.8,19.1-6.8,19.1,2.67-1.42,4.73-2.56,6.39-3.53-1.84,13-2.79,28.41-2.79,47.53a92.19,92.19,0,0,1,9-26.52q2.1,11.7,4.43,22.76c2.3,40.83-12.56,54.26-12.56,54.26,11.72-4.35,13.28-5.49,17-8.39.66,3.58,1.66,6.51,6.36,16.43,0,0-.39-4.45,2-12-.94,6.47,8.82,40.93,14.36,51.14-.68-2-3.71-27.79.52-29.36,9.29-.58,6.71,30.7,2.57,39.92,3.22-4.39,9.16-12.34,11.32-15.65,0,7.42,16.17,46.66,27.73,62.21a96.06,96.06,0,0,1-5.05-25.66c2,3.22,3.59,5.93,4.57,7.6,0,0-5.75-24.93,1.58-37.92,1.85,7.53,3.69,15.09,5,20.19,0,0,.27-5.78,1.49-13.79,7.69,2.92,10.42,44.54,2.2,52.91,4-2.9,14.82-11.24,27.8-26.32a68.33,68.33,0,0,1-4,17.32s10.36-12.58,21.65-36.34C405.13,525,408,534.86,408,534.86a68.41,68.41,0,0,1,3.13-17.49c6.05,19,12.71,30.84,15.3,35.09-2.45-6.22,2.6-21,8.91-32.49a65.69,65.69,0,0,1,6.51,14.89,153.06,153.06,0,0,0-1.43-23l0,0c10.5,21.13,19.68,32.28,19.68,32.28a68.33,68.33,0,0,1-4-17.32c13,15.08,23.76,23.42,27.8,26.32-8.22-8.37-5.49-50,2.2-52.91,1.22,8,1.49,13.79,1.49,13.79,1.26-5.1,3.11-12.66,5-20.19,7.33,13,1.58,37.92,1.58,37.92,1-1.67,2.61-4.38,4.57-7.6a96.06,96.06,0,0,1-5.05,25.66c11.56-15.55,27.74-54.79,27.73-62.21,2.16,3.31,8.1,11.26,11.32,15.65-4.14-9.22-6.72-40.5,2.57-39.92,4.23,1.57,1.2,27.39.52,29.36,5.54-10.21,15.3-44.67,14.36-51.14,2.43,7.53,2,12,2,12,4.7-9.92,5.7-12.85,6.36-16.43,3.71,2.9,5.27,4,17,8.39,0,0-14.86-13.43-12.56-54.26q2.32-11,4.43-22.76a92.19,92.19,0,0,1,9,26.52c0-19.12-1-34.54-2.79-47.53,1.66,1,3.72,2.11,6.39,3.53C580.09,351,575.47,345.39,573.28,331.86ZM376.16,217.53c-14.31,0-25.9-16.78-25.9-37.47s11.59-37.48,25.9-37.48,25.9,16.78,25.9,37.48S390.46,217.53,376.16,217.53Zm89.57,0c-14.3,0-25.9-16.78-25.9-37.47s11.6-37.48,25.9-37.48,25.9,16.78,25.9,37.48S480,217.53,465.73,217.53Z" transform="translate(-256.73 -42.17)"/></svg>