<svg width="1400" height="1400" viewBox="0 0 1400 1400" fill="none" xmlns="http://www.w3.org/2000/svg">
<rect width="1400" height="1400" rx="20" fill="url(#paint0_linear_55_80)"/>
<path fill-rule="evenodd" clip-rule="evenodd" d="M813.467 937.834C855.816 885.85 883 805.297 883 714.869C883 558.093 801.292 431 700.5 431C599.708 431 518 558.093 518 714.869C518 800.801 542.547 877.814 581.33 929.87C613.849 863.292 653.159 824.363 695.5 824.363C739.503 824.363 780.232 866.407 813.467 937.834Z" fill="#7180B9"/>
<mask id="path-3-inside-1_55_80" fill="white">
<path fill-rule="evenodd" clip-rule="evenodd" d="M843.148 1010C893.138 945.809 925 848.68 925 739.977C925 546.69 824.264 390 700 390C575.736 390 475 546.69 475 739.977C475 848.68 506.862 945.809 556.851 1010C597.401 924.897 646.757 874.967 700 874.967C753.243 874.967 802.599 924.897 843.148 1010Z"/>
</mask>
<path d="M843.148 1010L816.066 1022.9L836.965 1066.77L866.818 1028.43L843.148 1010ZM556.851 1010L533.182 1028.43L563.035 1066.77L583.934 1022.9L556.851 1010ZM895 739.977C895 843.349 864.609 933.616 819.479 991.567L866.818 1028.43C921.667 958.001 955 854.012 955 739.977H895ZM700 420C748.465 420 796.491 450.598 833.864 508.729C871.031 566.54 895 648.216 895 739.977H955C955 638.45 928.601 545.138 884.334 476.282C840.273 407.747 775.799 360 700 360V420ZM505 739.977C505 648.216 528.969 566.54 566.136 508.729C603.509 450.598 651.535 420 700 420V360C624.201 360 559.727 407.747 515.666 476.282C471.399 545.138 445 638.45 445 739.977H505ZM580.521 991.567C535.391 933.616 505 843.349 505 739.977H445C445 854.012 478.333 958.001 533.182 1028.43L580.521 991.567ZM583.934 1022.9C603.312 982.236 623.91 951.939 644.451 932.203C664.854 912.599 683.442 904.967 700 904.967V844.967C663.314 844.967 630.603 862.301 602.88 888.938C575.295 915.442 550.94 952.662 529.769 997.096L583.934 1022.9ZM700 904.967C716.558 904.967 735.146 912.599 755.549 932.203C776.09 951.939 796.688 982.236 816.066 1022.9L870.231 997.096C849.06 952.662 824.705 915.442 797.12 888.938C769.397 862.301 736.686 844.967 700 844.967V904.967Z" fill="#000F3D" mask="url(#path-3-inside-1_55_80)"/>
<ellipse cx="640.5" cy="571.5" rx="44.5" ry="66.5" fill="#000F3D"/>
<ellipse cx="759.5" cy="571.5" rx="44.5" ry="66.5" fill="#000F3D"/>
<path fill-rule="evenodd" clip-rule="evenodd" d="M295.126 542.505C295.122 542.509 295.125 542.516 295.13 542.516H295.137C295.142 542.516 295.146 542.52 295.146 542.525V690.253C295.146 690.806 295.594 691.253 296.146 691.253H443C443.552 691.253 444 690.806 444 690.253V543.016C444 542.74 444.224 542.516 444.5 542.516C444.776 542.516 445 542.74 445 543.016V841.491C445 841.767 444.776 841.991 444.5 841.991C444.224 841.991 444 841.767 444 841.491V695.665C444 694.775 442.923 694.328 442.293 694.958L295.838 841.3L295.146 841.991L295.142 841.996C295.135 842.002 295.125 842.002 295.119 841.996C295.116 841.993 295.112 841.991 295.108 841.991H294.83C294.453 841.991 294.146 841.685 294.146 841.307C294.146 841.126 294.074 840.952 293.946 840.823L145.293 692.253C144.902 691.863 144.902 691.23 145.293 690.84L294.07 542.146C294.265 541.951 294.581 541.951 294.777 542.146L295.126 542.495C295.128 542.498 295.128 542.502 295.126 542.505ZM294.146 837.197C294.146 838.087 293.07 838.534 292.44 837.904L146.708 692.254C146.317 691.863 146.317 691.23 146.708 690.839L292.44 545.189C293.07 544.56 294.146 545.006 294.146 545.897V690.253C294.146 690.806 293.699 691.253 293.146 691.253H220.72C220.444 691.253 220.22 691.477 220.22 691.753C220.22 692.03 220.444 692.253 220.72 692.253H293.146C293.699 692.253 294.146 692.701 294.146 693.253V837.197ZM441.876 693.961C442.507 693.331 442.061 692.253 441.169 692.253H296.146C295.594 692.253 295.146 692.701 295.146 693.253V838.164C295.146 839.055 296.223 839.501 296.853 838.872L441.876 693.961ZM1254.98 707.814C1255.18 708.009 1255.5 708.01 1255.69 707.814C1255.89 707.619 1255.89 707.302 1255.69 707.107L1106.91 558.414C1106.52 558.023 1105.89 558.024 1105.5 558.414C1105.4 558.414 1105.3 558.373 1105.22 558.299L1105.13 558.207C1104.85 557.931 1104.41 557.931 1104.13 558.207L955.293 706.961C955.017 707.237 955.017 707.685 955.293 707.961L955.449 708.117C955.482 708.149 955.5 708.194 955.5 708.24C955.5 708.336 955.578 708.414 955.674 708.414H1101.51C1102.4 708.414 1102.84 709.492 1102.21 710.121L955.147 857.107C954.951 857.302 954.951 857.619 955.147 857.814C955.342 858.009 955.658 858.009 955.853 857.814L1102.79 710.957C1103.42 710.327 1104.5 710.774 1104.5 711.664V857.914C1104.5 858.19 1104.72 858.414 1105 858.414C1105.28 858.414 1105.5 858.19 1105.5 857.914V709.414C1105.5 708.862 1105.95 708.414 1106.5 708.414H1180C1180.28 708.414 1180.5 708.19 1180.5 707.914C1180.5 707.638 1180.28 707.414 1180 707.414H1106.5C1105.95 707.414 1105.5 706.966 1105.5 706.414V558.414L1254.98 707.814ZM958.669 707.414C957.778 707.414 957.332 706.337 957.962 705.707L1102.79 560.957C1103.42 560.327 1104.5 560.774 1104.5 561.664V706.414C1104.5 706.966 1104.05 707.414 1103.5 707.414H958.669Z" fill="#000F3D"/>
<path d="M295.126 542.505L284.527 531.89L284.521 531.896L284.516 531.901L295.126 542.505ZM442.293 694.958L431.691 684.347L431.691 684.347L442.293 694.958ZM295.838 841.3L285.235 830.689L285.234 830.691L295.838 841.3ZM295.146 841.991L305.736 852.615L305.743 852.607L305.75 852.6L295.146 841.991ZM295.142 841.996L305.722 852.628L305.731 852.619L295.142 841.996ZM295.119 841.996L284.486 852.575L284.506 852.595L284.525 852.615L295.119 841.996ZM293.946 840.823L283.342 851.433L283.343 851.434L293.946 840.823ZM145.293 692.253L155.897 681.644L155.897 681.644L145.293 692.253ZM145.293 690.84L155.897 701.449L155.897 701.449L145.293 690.84ZM294.07 542.146L283.466 531.537L283.466 531.537L294.07 542.146ZM294.777 542.146L284.173 552.756L284.173 552.756L294.777 542.146ZM295.126 542.495L284.522 553.105L284.527 553.109L295.126 542.495ZM292.44 837.904L303.043 827.294L303.043 827.294L292.44 837.904ZM146.708 692.254L136.104 702.863L136.104 702.863L146.708 692.254ZM146.708 690.839L157.311 701.449L157.312 701.449L146.708 690.839ZM292.44 545.189L281.836 534.58L281.836 534.58L292.44 545.189ZM441.876 693.961L452.479 704.572L452.479 704.571L441.876 693.961ZM296.853 838.872L307.456 849.483L307.456 849.482L296.853 838.872ZM1255.69 707.814L1245.09 697.204L1245.09 697.206L1255.69 707.814ZM1254.98 707.814L1265.59 697.206L1265.59 697.205L1254.98 707.814ZM1255.69 707.107L1245.09 717.717L1245.09 717.718L1255.69 707.107ZM1106.91 558.414L1096.31 569.023L1096.31 569.023L1106.91 558.414ZM1105.22 558.299L1115.83 547.69L1115.83 547.689L1105.22 558.299ZM1105.13 558.207L1094.53 568.817L1094.53 568.817L1105.13 558.207ZM1104.13 558.207L1114.73 568.817L1114.73 568.817L1104.13 558.207ZM955.293 706.961L944.689 696.351L944.689 696.352L955.293 706.961ZM955.293 707.961L944.689 718.57L944.689 718.57L955.293 707.961ZM955.449 708.117L944.845 718.726L944.847 718.728L955.449 708.117ZM1102.21 710.121L1091.61 699.512L1091.61 699.512L1102.21 710.121ZM955.147 857.107L944.543 846.498L944.542 846.498L955.147 857.107ZM955.147 857.814L944.542 868.423L944.543 868.424L955.147 857.814ZM955.853 857.814L966.457 868.424L966.457 868.424L955.853 857.814ZM1102.79 710.957L1092.19 700.347L1092.19 700.348L1102.79 710.957ZM957.962 705.707L968.566 716.317L968.566 716.316L957.962 705.707ZM1102.79 560.957L1092.19 550.347L1092.19 550.348L1102.79 560.957ZM295.13 527.516C308.471 527.516 315.187 543.651 305.735 553.108L284.516 531.901C275.056 541.366 281.778 557.516 295.13 557.516V527.516ZM295.137 527.516H295.13V557.516H295.137V527.516ZM310.146 542.525C310.146 534.237 303.427 527.516 295.137 527.516V557.516C286.857 557.516 280.146 550.804 280.146 542.525H310.146ZM310.146 690.253V542.525H280.146V690.253H310.146ZM296.146 676.253C303.878 676.253 310.146 682.522 310.146 690.253H280.146C280.146 699.09 287.31 706.253 296.146 706.253V676.253ZM443 676.253H296.146V706.253H443V676.253ZM429 690.253C429 682.521 435.268 676.253 443 676.253V706.253C451.837 706.253 459 699.09 459 690.253H429ZM429 543.016V690.253H459V543.016H429ZM444.5 527.516C435.939 527.516 429 534.456 429 543.016H459C459 551.024 452.508 557.516 444.5 557.516V527.516ZM460 543.016C460 534.456 453.061 527.516 444.5 527.516V557.516C436.492 557.516 430 551.024 430 543.016H460ZM460 841.491V543.016H430V841.491H460ZM444.5 856.991C453.06 856.991 460 850.051 460 841.491H430C430 833.483 436.492 826.991 444.5 826.991V856.991ZM429 841.491C429 850.051 435.94 856.991 444.5 856.991V826.991C452.508 826.991 459 833.483 459 841.491H429ZM429 695.665V841.491H459V695.665H429ZM452.895 705.569C444.075 714.383 429 708.136 429 695.665H459C459 681.414 441.772 674.274 431.691 684.347L452.895 705.569ZM306.44 851.911L452.896 705.569L431.691 684.347L285.235 830.689L306.44 851.911ZM305.75 852.6L306.442 851.909L285.234 830.691L284.542 831.382L305.75 852.6ZM305.731 852.619L305.736 852.615L284.557 831.367L284.552 831.372L305.731 852.619ZM284.525 852.615C290.394 858.469 299.871 858.451 305.722 852.628L284.561 831.363C290.4 825.553 299.857 825.535 305.713 831.376L284.525 852.615ZM295.108 856.991C291.155 856.991 287.322 855.426 284.486 852.575L305.752 831.416C302.91 828.559 299.069 826.991 295.108 826.991V856.991ZM294.83 856.991H295.108V826.991H294.83V856.991ZM279.146 841.307C279.146 849.969 286.168 856.991 294.83 856.991V826.991C302.737 826.991 309.146 833.401 309.146 841.307H279.146ZM283.343 851.434C280.656 848.748 279.146 845.105 279.146 841.307H309.146C309.146 837.146 307.493 833.155 304.549 830.213L283.343 851.434ZM134.689 702.863L283.342 851.433L304.55 830.214L155.897 681.644L134.689 702.863ZM134.689 680.23C128.437 686.479 128.437 696.614 134.689 702.863L155.897 681.644C161.368 687.112 161.368 695.981 155.897 701.449L134.689 680.23ZM283.466 531.537L134.689 680.23L155.897 701.449L304.673 552.756L283.466 531.537ZM305.381 531.537C299.328 525.487 289.518 525.488 283.466 531.537L304.673 552.756C299.011 558.415 289.835 558.415 284.173 552.756L305.381 531.537ZM305.729 531.886L305.38 531.537L284.173 552.756L284.522 553.105L305.729 531.886ZM305.725 553.119C311.595 547.257 311.595 537.743 305.725 531.881L284.527 553.109C278.661 547.252 278.661 537.748 284.527 531.89L305.725 553.119ZM281.836 848.513C291.917 858.589 309.146 851.449 309.146 837.197H279.146C279.146 824.726 294.222 818.478 303.043 827.294L281.836 848.513ZM136.104 702.863L281.836 848.513L303.043 827.294L157.312 681.644L136.104 702.863ZM136.104 680.23C129.852 686.479 129.852 696.614 136.104 702.863L157.312 681.644C162.783 687.112 162.783 695.981 157.311 701.449L136.104 680.23ZM281.836 534.58L136.104 680.23L157.312 701.449L303.043 555.799L281.836 534.58ZM309.146 545.897C309.146 531.644 291.917 524.505 281.836 534.58L303.043 555.799C294.223 564.614 279.146 558.368 279.146 545.897H309.146ZM309.146 690.253V545.897H279.146V690.253H309.146ZM293.146 706.253C301.983 706.253 309.146 699.09 309.146 690.253H279.146C279.146 682.521 285.414 676.253 293.146 676.253V706.253ZM220.72 706.253H293.146V676.253H220.72V706.253ZM235.22 691.753C235.22 699.761 228.728 706.253 220.72 706.253V676.253C212.159 676.253 205.22 683.193 205.22 691.753H235.22ZM220.72 677.253C228.728 677.253 235.22 683.746 235.22 691.753H205.22C205.22 700.314 212.159 707.253 220.72 707.253V677.253ZM293.146 677.253H220.72V707.253H293.146V677.253ZM309.146 693.253C309.146 684.417 301.983 677.253 293.146 677.253V707.253C285.414 707.253 279.146 700.985 279.146 693.253H309.146ZM309.146 837.197V693.253H279.146V837.197H309.146ZM441.169 707.253C428.694 707.253 422.45 692.168 431.274 683.35L452.479 704.571C462.564 694.494 455.427 677.253 441.169 677.253V707.253ZM296.146 707.253H441.169V677.253H296.146V707.253ZM310.146 693.253C310.146 700.986 303.878 707.253 296.146 707.253V677.253C287.31 677.253 280.146 684.417 280.146 693.253H310.146ZM310.146 838.164V693.253H280.146V838.164H310.146ZM286.251 828.261C295.072 819.447 310.146 825.695 310.146 838.164H280.146C280.146 852.416 297.374 859.556 307.456 849.483L286.251 828.261ZM431.274 683.35L286.251 828.261L307.456 849.482L452.479 704.572L431.274 683.35ZM1245.09 697.206C1250.75 691.545 1259.93 691.546 1265.59 697.206L1244.38 718.423C1250.43 724.473 1260.24 724.474 1266.3 718.423L1245.09 697.206ZM1245.09 717.718C1239.42 712.054 1239.42 702.867 1245.09 697.204L1266.29 718.425C1272.35 712.371 1272.35 702.55 1266.29 696.496L1245.09 717.718ZM1096.31 569.023L1245.09 717.717L1266.29 696.497L1117.52 547.804L1096.31 569.023ZM1116.1 569.024C1110.64 574.479 1101.79 574.495 1096.31 569.023L1117.52 547.805C1111.26 541.552 1101.14 541.569 1094.9 547.804L1116.1 569.024ZM1105.5 543.414C1109.37 543.414 1113.09 544.951 1115.83 547.69L1094.62 568.908C1097.51 571.794 1101.42 573.414 1105.5 573.414V543.414ZM1115.83 547.689L1115.73 547.597L1094.53 568.817L1094.62 568.909L1115.83 547.689ZM1115.73 547.598C1109.6 541.468 1099.66 541.467 1093.53 547.598L1114.73 568.817C1109.15 574.395 1100.11 574.394 1094.53 568.817L1115.73 547.598ZM1093.53 547.597L944.689 696.351L965.896 717.57L1114.73 568.817L1093.53 547.597ZM944.689 696.352C938.551 702.486 938.551 712.435 944.689 718.57L965.897 697.351C971.482 702.934 971.482 711.988 965.897 717.57L944.689 696.352ZM944.689 718.57L944.845 718.726L966.052 697.507L965.896 697.351L944.689 718.57ZM944.847 718.728C942.062 715.946 940.5 712.172 940.5 708.24H970.5C970.5 704.216 968.901 700.353 966.051 697.505L944.847 718.728ZM940.5 708.24C940.5 716.623 947.296 723.414 955.674 723.414V693.414C963.86 693.414 970.5 700.049 970.5 708.24H940.5ZM955.674 723.414H1101.51V693.414H955.674V723.414ZM1101.51 723.414C1089.03 723.414 1082.79 708.33 1091.61 699.512L1112.82 720.731C1122.9 710.653 1115.76 693.414 1101.51 693.414V723.414ZM1091.61 699.512L944.543 846.498L965.75 867.717L1112.82 720.731L1091.61 699.512ZM944.542 846.498C938.486 852.552 938.486 862.37 944.542 868.423L965.751 847.205C971.416 852.868 971.416 862.053 965.751 867.716L944.542 846.498ZM944.543 868.424C950.596 874.473 960.404 874.473 966.457 868.424L945.25 847.204C950.912 841.546 960.088 841.546 965.75 847.204L944.543 868.424ZM966.457 868.424L1113.4 721.567L1092.19 700.348L945.25 847.205L966.457 868.424ZM1113.4 721.567C1104.58 730.382 1089.5 724.135 1089.5 711.664H1119.5C1119.5 697.412 1102.27 690.273 1092.19 700.347L1113.4 721.567ZM1089.5 711.664V857.914H1119.5V711.664H1089.5ZM1089.5 857.914C1089.5 866.475 1096.44 873.414 1105 873.414V843.414C1113.01 843.414 1119.5 849.905 1119.5 857.914H1089.5ZM1105 873.414C1113.56 873.414 1120.5 866.475 1120.5 857.914H1090.5C1090.5 849.905 1096.99 843.414 1105 843.414V873.414ZM1120.5 857.914V709.414H1090.5V857.914H1120.5ZM1120.5 709.414C1120.5 717.146 1114.23 723.414 1106.5 723.414V693.414C1097.66 693.414 1090.5 700.578 1090.5 709.414H1120.5ZM1106.5 723.414H1180V693.414H1106.5V723.414ZM1180 723.414C1188.56 723.414 1195.5 716.475 1195.5 707.914H1165.5C1165.5 699.906 1171.99 693.414 1180 693.414V723.414ZM1195.5 707.914C1195.5 699.353 1188.56 692.414 1180 692.414V722.414C1171.99 722.414 1165.5 715.923 1165.5 707.914H1195.5ZM1180 692.414H1106.5V722.414H1180V692.414ZM1106.5 692.414C1114.23 692.414 1120.5 698.682 1120.5 706.414H1090.5C1090.5 715.25 1097.66 722.414 1106.5 722.414V692.414ZM1120.5 706.414V558.414H1090.5V706.414H1120.5ZM1265.59 697.205L1116.1 547.805L1094.9 569.024L1244.38 718.424L1265.59 697.205ZM947.359 695.097C937.274 705.175 944.413 722.414 958.669 722.414V692.414C971.143 692.414 977.389 707.498 968.566 716.317L947.359 695.097ZM1092.19 550.348L947.359 695.097L968.566 716.316L1113.4 571.567L1092.19 550.348ZM1119.5 561.664C1119.5 547.412 1102.27 540.273 1092.19 550.347L1113.4 571.567C1104.58 580.382 1089.5 574.135 1089.5 561.664H1119.5ZM1119.5 706.414V561.664H1089.5V706.414H1119.5ZM1103.5 722.414C1112.34 722.414 1119.5 715.25 1119.5 706.414H1089.5C1089.5 698.682 1095.77 692.414 1103.5 692.414V722.414ZM958.669 722.414H1103.5V692.414H958.669V722.414Z" fill="#000F3D"/>
<defs>
<linearGradient id="paint0_linear_55_80" x1="700" y1="0" x2="700" y2="1400" gradientUnits="userSpaceOnUse">
<stop stop-color="#D7DBEA"/>
<stop offset="1" stop-color="white"/>
</linearGradient>
</defs>
</svg>
