<svg id="Layer_1" data-name="Layer 1" xmlns="http://www.w3.org/2000/svg" viewBox="0 0 776.677 510.935"><defs><style>.cls-1{fill:#c2d1ff;}.cls-2{font-size:185px;fill:#fff;letter-spacing:-0.085em;}.cls-2,.cls-3{font-family:Roboto-Bold, Roboto;font-weight:700;}.cls-3{font-size:83px;fill:#ffc2d1;letter-spacing:-0.083em;}.cls-4{letter-spacing:-0.089em;}</style></defs><path class="cls-1" d="M388.415,355.724c3.551-24.994,11.874-85.05,11.874-101.442,0-102.117-71.986-185.235-161.766-188.162v-.087c-.818,0-1.632.021-2.448.035-.816-.014-1.63-.035-2.449-.035v.087C143.847,69.047,71.86,152.165,71.86,254.282c0,16.392,8.324,76.448,11.875,101.442-2.188,13.526-6.8,19.094-6.8,19.094,2.664-1.419,4.73-2.558,6.385-3.523-1.839,12.989-2.784,28.4-2.786,47.529A92.038,92.038,0,0,1,89.5,392.3q2.1,11.7,4.429,22.757c2.3,40.831-12.563,54.258-12.563,54.258,11.719-4.349,13.282-5.483,16.995-8.381.657,3.576,1.654,6.509,6.362,16.423,0,0-.4-4.446,2.035-11.978-.94,6.468,8.818,40.933,14.366,51.141-.684-1.974-3.719-27.79.515-29.358,9.288-.582,6.706,30.7,2.572,39.917,3.216-4.388,9.162-12.341,11.313-15.652-.009,7.422,16.179,46.66,27.732,62.218a95.907,95.907,0,0,1-5.045-25.664c1.96,3.223,3.589,5.927,4.565,7.6,0,0-5.75-24.934,1.584-37.927,1.853,7.534,3.694,15.092,4.957,20.193,0,0,.271-5.782,1.487-13.795,7.7,2.929,10.427,44.545,2.2,52.91,4.045-2.9,14.82-11.238,27.8-26.319a68.183,68.183,0,0,1-3.957,17.32S207.206,555.4,218.5,531.635c1.757,17.224,4.673,27.085,4.673,27.085a68.26,68.26,0,0,1,3.125-17.49c6.054,18.953,12.714,30.841,15.305,35.089-2.452-6.221,2.594-20.99,8.91-32.488a65.857,65.857,0,0,1,6.508,14.9,153.8,153.8,0,0,0-1.428-23.007l.024-.033c10.5,21.138,19.685,32.281,19.685,32.281a68.183,68.183,0,0,1-3.957-17.32c12.977,15.081,23.753,23.422,27.8,26.319-8.225-8.365-5.5-49.981,2.2-52.91,1.217,8.013,1.488,13.795,1.488,13.795,1.263-5.1,3.1-12.659,4.956-20.193,7.335,12.993,1.585,37.927,1.585,37.927.976-1.676,2.6-4.38,4.565-7.6a95.953,95.953,0,0,1-5.045,25.664c11.553-15.558,27.741-54.8,27.732-62.218,2.151,3.311,8.1,11.264,11.312,15.652-4.134-9.214-6.715-40.5,2.572-39.917,4.235,1.568,1.2,27.384.516,29.358,5.547-10.208,15.306-44.673,14.365-51.141,2.433,7.532,2.036,11.978,2.036,11.978,4.707-9.914,5.7-12.847,6.362-16.423,3.712,2.9,5.276,4.032,16.994,8.381,0,0-14.865-13.427-12.562-54.258q2.327-11.04,4.428-22.757a92.023,92.023,0,0,1,8.97,26.522c0-19.124-.947-34.54-2.786-47.529,1.654.965,3.72,2.1,6.385,3.523C395.217,374.818,390.6,369.25,388.415,355.724ZM191.288,241.394c-14.306,0-25.9-16.778-25.9-37.475s11.6-37.475,25.9-37.475,25.9,16.778,25.9,37.475S205.6,241.394,191.288,241.394Zm89.573,0c-14.306,0-25.9-16.778-25.9-37.475s11.6-37.475,25.9-37.475,25.9,16.778,25.9,37.475S295.167,241.394,280.861,241.394Z" transform="translate(-71.86 -66.033)"/><text class="cls-2" transform="translate(351.14 283.352)">Ghost</text><text class="cls-3" transform="translate(355.14 363.352)">D<tspan class="cls-4" x="47.053" y="0">e</tspan><tspan x="84.501" y="0">velopment</tspan></text></svg>