<svg id="Laag_1" data-name="Laag 1" xmlns="http://www.w3.org/2000/svg" viewBox="0 0 1870.74 940.41"><defs><style>.cls-1,.cls-3{fill:none;stroke:#000;stroke-miterlimit:10;}.cls-1{stroke-width:6px;}.cls-2{fill:#600;}.cls-3{stroke-width:10px;}</style></defs><path class="cls-1" d="M853.22,329.41" transform="translate(-24.27 -69.91)"/><path class="cls-2" d="M1871.53,497.61h0l-436-406h0a58.19,58.19,0,0,0-79.32,0h0L1018,406.54V133.87c0-32.65-26.54-59.6-59.18-58.95a58,58,0,0,0-56.82,58V482H582V134c0-30.31-24.71-57.25-55-58.88a58,58,0,0,0-42.9,15.56h0l-436.37,407h0a58.09,58.09,0,0,0,0,85h0l436.37,407h0a58.18,58.18,0,0,0,79.38,0h0L902,674V946.14c0,31.27,25.55,58.28,56.81,59a57.87,57.87,0,0,0,41-15.62l.44-.41L1338,673.84V946.13c0,32.64,26.53,59.6,59.17,59a58,58,0,0,0,56.83-58V598h159c32.65,0,59.61-26.54,59-59.18A58.07,58.07,0,0,0,1613.87,482H1454V267.48L1791.76,582l.45.42a58.05,58.05,0,1,0,79.32-84.79ZM466,482H307.47c-32.65,0-59.6,26.54-59,59.18a58,58,0,0,0,58,56.82H466V812.52L174,540,466,267.48ZM582,813.07V598H812.43Zm756-546.14V482H1107.57ZM1018,813.07V598h230.42Z" transform="translate(-24.27 -69.91)"/><path class="cls-3" d="M1871.53,497.61h0l-436-406h0a58.19,58.19,0,0,0-79.32,0h0L1018,406.54V133.87c0-32.65-26.54-59.6-59.18-58.95a58,58,0,0,0-56.82,58V482H582V134c0-30.31-24.71-57.25-55-58.88a58,58,0,0,0-42.9,15.56h0l-436.37,407h0a58.09,58.09,0,0,0,0,85h0l436.37,407h0a58.18,58.18,0,0,0,79.38,0h0L902,674V946.14c0,31.27,25.55,58.28,56.81,59a57.87,57.87,0,0,0,41-15.62l.44-.41L1338,673.84V946.13c0,32.64,26.53,59.6,59.17,59a58,58,0,0,0,56.83-58V598h159c32.65,0,59.61-26.54,59-59.18A58.07,58.07,0,0,0,1613.87,482H1454V267.48L1791.76,582l.45.42a58.05,58.05,0,1,0,79.32-84.79ZM466,482H307.47c-32.65,0-59.6,26.54-59,59.18a58,58,0,0,0,58,56.82H466V812.52L174,540,466,267.48ZM582,813.07V598H812.43Zm756-546.14V482H1107.57ZM1018,813.07V598h230.42Z" transform="translate(-24.27 -69.91)"/></svg>