<svg id="Layer_1" data-name="Layer 1" xmlns="http://www.w3.org/2000/svg" viewBox="0 0 465.186 232.602"><defs><style>.cls-1{fill:#7180b9;}</style></defs><path class="cls-1" d="M739.974,310.874l0,0-109-101.494,0,0a14.547,14.547,0,0,0-19.829,0l0,0-84.55,78.728V219.939A14.655,14.655,0,0,0,511.8,205.2a14.5,14.5,0,0,0-14.2,14.5v87.273h-80V219.958a14.924,14.924,0,0,0-13.742-14.719,14.5,14.5,0,0,0-10.727,3.89l0,0L284.028,310.882l0,0a14.522,14.522,0,0,0,0,21.251l0,0L393.12,433.891l0,0a14.541,14.541,0,0,0,19.846,0l0,0,84.621-78.93v68.047a14.829,14.829,0,0,0,14.2,14.743,14.478,14.478,0,0,0,10.247-3.9l.111-.105,84.44-78.808v68.072a14.657,14.657,0,0,0,14.792,14.738,14.5,14.5,0,0,0,14.208-14.5V335.972h39.761a14.5,14.5,0,1,0,.205-29H635.591v-53.63l84.441,78.626.111.1a14.514,14.514,0,1,0,19.831-21.2Zm-351.383-3.9H348.958a14.655,14.655,0,0,0-14.737,14.8,14.5,14.5,0,0,0,14.5,14.2h39.873V389.6L315.6,321.472l73-68.13Zm29,82.767V335.972H475.2Zm189-136.534v53.767H548.983Zm-80,136.534V335.972H584.2Z" transform="translate(-279.407 -205.199)"/></svg>