<svg id="Layer_1" data-name="Layer 1" xmlns="http://www.w3.org/2000/svg" xmlns:xlink="http://www.w3.org/1999/xlink" viewBox="0 0 1125 2436"><defs><style>.cls-1{fill:url(#radial-gradient);}.cls-2,.cls-3{fill:none;stroke:#000;stroke-miterlimit:10;}.cls-2{stroke-width:10px;}.cls-3{stroke-width:6px;}</style><radialGradient id="radial-gradient" cx="562.5" cy="1218" r="948.66" gradientUnits="userSpaceOnUse"><stop offset="0" stop-color="#f63"/><stop offset="0.02" stop-color="#fa6432"/><stop offset="0.39" stop-color="#903a1d"/><stop offset="0.69" stop-color="#431b0d"/><stop offset="0.9" stop-color="#130704"/><stop offset="1"/></radialGradient></defs><rect class="cls-1" width="1125" height="2436"/><path class="cls-2" d="M546,982.93" transform="translate(-1 0)"/><path class="cls-3" d="M936.8,2316.8" transform="translate(-1 0)"/><path class="cls-3" d="M773.44,1851.67" transform="translate(-1 0)"/><path d="M733.36,1864.52h0l-81.12-76.44h0a10.73,10.73,0,0,0-14.76,0h0l-62.93,59.3v-50.72a11.06,11.06,0,0,0-9.07-11,10.93,10.93,0,0,0-12.77,10.77v65.17H492.39v-65a11,11,0,0,0-18.44-8.23h0l-82.25,76.19h0a10.82,10.82,0,0,0,0,15.92h0l82.25,76.19h0a11,11,0,0,0,15,0h0l63.8-59.1v50.74c0,5.88,4.81,11.13,10.69,11.2a10.76,10.76,0,0,0,7.51-2.9l.08-.08,62.84-58.65v50.67a11.09,11.09,0,0,0,9.08,11,10.92,10.92,0,0,0,12.76-10.77v-65.34h29.41a11.05,11.05,0,0,0,11-9.07,10.9,10.9,0,0,0-10.67-12.77H655.67v-40.39l62.85,59.22.08.08a10.79,10.79,0,0,0,17.9-5.38A11,11,0,0,0,733.36,1864.52Zm-261.77-2.94H441.82a11.07,11.07,0,0,0-11,9.08,10.92,10.92,0,0,0,10.77,12.76h30v40.39l-55-51.31,55-51.31Zm21.84,62.1v-40.26h43.14Zm141.44-102.36v40.26H591.74Zm-60.32,102.36v-40.26h43.14Z" transform="translate(-1 0)"/></svg>