<svg id="Layer_1" data-name="Layer 1" xmlns="http://www.w3.org/2000/svg" viewBox="0 0 510 253"><defs><style>.cls-1{fill:#1f7a00;}</style></defs><path class="cls-1" d="M739.5,353h-480a15,15,0,0,0-15,15V591a15,15,0,0,0,15,15h480a15,15,0,0,0,15-15V368A15,15,0,0,0,739.5,353ZM349.84,498.77H314.07V452.58H349v8.57H324.7v10h21.44v8.31H324.7v10.69h25.14Zm37.16,0-11.16-16-10.95,16H352.62l17.09-23.49-16.24-22.7h12.15l10.62,15,10.43-15h11.55l-16.11,22.3,17.23,23.89Zm52.33,0H403.57V452.58h34.91v8.57H414.19v10h21.45v8.31H414.19v10.69h25.14Zm38,0-8.91-12.87h-9.84v12.87H447.85V452.58h20c12.34,0,20.06,6.4,20.06,16.76,0,6.93-3.5,12-9.5,14.58l10.36,14.85Zm41.77-8.31A14.73,14.73,0,0,0,530.68,485l6.86,6.33c-4.35,5.35-11,8.25-19.07,8.25-14.32,0-25-10-25-23.89s10.69-23.89,25.08-23.89c8,0,14.65,2.91,19,8.19l-6.86,6.33a14.88,14.88,0,0,0-11.62-5.41c-8.64,0-14.78,6.07-14.78,14.78S510.42,490.46,519.06,490.46Zm36.37,8.31H544.74V452.58h10.69Zm26.13.79c-7.32,0-14.71-2.17-18.81-5.34l3.63-8.05A27.27,27.27,0,0,0,581.63,491c6.33,0,8.91-2.11,8.91-5,0-8.64-26.86-2.7-26.86-19.86,0-7.85,6.33-14.39,19.47-14.39,5.81,0,11.74,1.39,16,4.1l-3.3,8.11a26.11,26.11,0,0,0-12.8-3.63c-6.33,0-8.78,2.38-8.78,5.28,0,8.52,26.86,2.64,26.86,19.6C601.16,493,594.76,499.56,581.56,499.56Zm62.7-.79H608.49V452.58H643.4v8.57H619.12v10h21.45v8.31H619.12v10.69h25.14Zm23.7.79c-7.33,0-14.72-2.17-18.81-5.34l3.63-8.05A27.21,27.21,0,0,0,668,491c6.34,0,8.91-2.11,8.91-5,0-8.64-26.86-2.7-26.86-19.86,0-7.85,6.34-14.39,19.47-14.39,5.81,0,11.75,1.39,16,4.1l-3.3,8.11a26.11,26.11,0,0,0-12.81-3.63c-6.33,0-8.77,2.38-8.77,5.28,0,8.52,26.86,2.64,26.86,19.6C687.56,493,681.16,499.56,668,499.56Z" transform="translate(-244.5 -353)"/><path class="cls-1" d="M467.25,461.29h-8.71v16.1h8.71c6.54,0,9.84-3,9.84-8.05S473.79,461.29,467.25,461.29Z" transform="translate(-244.5 -353)"/></svg>