<svg id="Layer_1" data-name="Layer 1" xmlns="http://www.w3.org/2000/svg" xmlns:xlink="http://www.w3.org/1999/xlink" viewBox="0 0 1366 775"><defs><style>.cls-1{fill:url(#radial-gradient);}</style><radialGradient id="radial-gradient" cx="683" cy="387.5" r="555.27" gradientUnits="userSpaceOnUse"><stop offset="0" stop-color="#fe3366"/><stop offset="0.12" stop-color="#cf2a53"/><stop offset="0.3" stop-color="#911d3a"/><stop offset="0.48" stop-color="#5d1325"/><stop offset="0.64" stop-color="#350b15"/><stop offset="0.78" stop-color="#18050a"/><stop offset="0.91" stop-color="#060103"/><stop offset="1"/></radialGradient></defs><rect class="cls-1" width="1366" height="775"/><path d="M1083.43,406.86h0l-46.8-44.36h0a6.19,6.19,0,0,0-8.52,0h0l-36.3,34.41V367.35a6.82,6.82,0,0,0-4.95-6.39,6.34,6.34,0,0,0-7.72,6.19v38H944V367.29a6.38,6.38,0,0,0-10.74-4.79h0l-47.87,44.36h0a6.31,6.31,0,0,0,0,9.27h0l47.87,44.35h0a6.4,6.4,0,0,0,8.71,0h0l37.13-34.4v29.3a6.51,6.51,0,0,0,6.31,6.55,6.22,6.22,0,0,0,4.18-1.68l0-.05,36.26-33.83v29.29a6.83,6.83,0,0,0,4.94,6.4,6.35,6.35,0,0,0,7.73-6.19v-38h16.85a6.71,6.71,0,0,0,6.5-5.53,6.3,6.3,0,0,0-6.19-7.14h-17.16V381.72l36.26,34.36,0,.05a6.3,6.3,0,0,0,7,1.09,5.63,5.63,0,0,0,2.82-2.81A6.53,6.53,0,0,0,1083.43,406.86Zm-152.07-1.7H914.14a6.82,6.82,0,0,0-6.4,4.94,6.35,6.35,0,0,0,6.19,7.73h17.43v23.44l-31.9-29.78,31.9-29.77ZM944,441.27V417.83h25.11Zm82.87-59.55v23.44H1001.8Zm-35.1,59.55V417.83h25.11Z" transform="translate(-3 -3)"/><path d="M842.35,422.56c3.59-25.25,12-85.91,12-102.47,0-105-75.37-190.15-168.35-190.15S517.65,215.07,517.65,320.09c0,16.61,7.66,76.61,10,97.85-3.53,9-7.48,12.62-7.48,12.62,2.78-1,5-1.88,6.79-2.61-2.56,14.45-3.87,32-3.88,54.69a93.17,93.17,0,0,1,8.78-26.24c1.49,12.48,3,24.13,4.48,34.74C532.87,524.05,523.08,532,523.08,532c13.3-4.94,9.3-2,18.15-7.45,2.68,17.54,4.53,28.62,4.52,30.89a92.31,92.31,0,0,1,6-21c4.26,16.84,12.2,35.4,26.16,59.37a97.36,97.36,0,0,1-5.23-28.59c41,31.35,20.16,85.86,20.16,85.86,15.21-26.13,23.27-45.82,27.23-63.86,3.08,6.11,6.61,12.58,10.64,19.5a97.86,97.86,0,0,1-5.15-36.29c28.49,55.88,63.11,77.91,63.11,77.91-14.22-17.39-25.85-67.69-22.78-105.11,2.29,15.36,6.88,33.2,14.62,55.76,0,0-4.48-23.54,3-45,18.06,30.59,3.9,67.71,3.9,67.71a320.24,320.24,0,0,0,16.33-31.5c35.75,65.08,70.61,60.8,70.61,60.8-25.22-16.55-25.64-39.92-20.84-72.3,13.12,18.75,3.87,43,3.87,43,1-1.74,20.73-21.18,29.79-37.61a128.22,128.22,0,0,0,14.53-42.9,39.41,39.41,0,0,1,3.39,14.69c.36,12.47-5.63,25.52-5.63,25.53a102,102,0,0,0,19.64-48.09c2.45,7.61,2,12.1,2,12.1,4.76-10,5.76-13,6.43-16.59,3.75,2.93,5.33,4.07,17.16,8.47,0,0-15-13.56-12.69-54.81,1.57-7.43,3.06-15.11,4.48-23a93.2,93.2,0,0,1,9.06,26.79c0-19.31-1-34.88-2.82-48,1.67,1,3.76,2.12,6.45,3.55C849.22,441.84,844.56,436.22,842.35,422.56ZM638.29,307.07c-14.45,0-26.17-16.95-26.17-37.85s11.72-37.85,26.17-37.85,26.16,16.94,26.16,37.85S652.74,307.07,638.29,307.07Zm95.42,0c-14.45,0-26.16-16.95-26.16-37.85s11.71-37.85,26.16-37.85,26.17,16.94,26.17,37.85S748.16,307.07,733.71,307.07Z" transform="translate(-3 -3)"/></svg>