<svg id="Layer_1" data-name="Layer 1" xmlns="http://www.w3.org/2000/svg" xmlns:xlink="http://www.w3.org/1999/xlink" viewBox="0 0 1366 775"><defs><style>.cls-1{fill:url(#radial-gradient);}</style><radialGradient id="radial-gradient" cx="683" cy="387.5" r="555.27" gradientUnits="userSpaceOnUse"><stop offset="0" stop-color="#fe3366"/><stop offset="0.12" stop-color="#cf2a53"/><stop offset="0.3" stop-color="#911d3a"/><stop offset="0.48" stop-color="#5d1325"/><stop offset="0.64" stop-color="#350b15"/><stop offset="0.78" stop-color="#18050a"/><stop offset="0.91" stop-color="#060103"/><stop offset="1"/></radialGradient></defs><rect class="cls-1" width="1366" height="775"/><path d="M1083.43,406.86h0l-46.8-44.36h0a6.19,6.19,0,0,0-8.52,0h0l-36.3,34.41V367.35a6.82,6.82,0,0,0-4.95-6.39,6.34,6.34,0,0,0-7.72,6.19v38H944V367.29a6.38,6.38,0,0,0-10.74-4.79h0l-47.87,44.36h0a6.31,6.31,0,0,0,0,9.27h0l47.87,44.35h0a6.4,6.4,0,0,0,8.71,0h0l37.13-34.4v29.3a6.51,6.51,0,0,0,6.31,6.55,6.22,6.22,0,0,0,4.18-1.68l0-.05,36.26-33.83v29.29a6.83,6.83,0,0,0,4.94,6.4,6.35,6.35,0,0,0,7.73-6.19v-38h16.85a6.71,6.71,0,0,0,6.5-5.53,6.3,6.3,0,0,0-6.19-7.14h-17.16V381.72l36.26,34.36,0,.05a6.3,6.3,0,0,0,7,1.09,5.63,5.63,0,0,0,2.82-2.81A6.53,6.53,0,0,0,1083.43,406.86Zm-152.07-1.7H914.14a6.82,6.82,0,0,0-6.4,4.94,6.35,6.35,0,0,0,6.19,7.73h17.43v23.44l-31.9-29.78,31.9-29.77ZM944,441.27V417.83h25.11Zm82.87-59.55v23.44H1001.8Zm-35.1,59.55V417.83h25.11Z" transform="translate(-3 -3)"/><path d="M842.35,422.56c3.59-25.25,12-85.91,12-102.47,0-105-75.37-190.15-168.35-190.15S517.65,215.07,517.65,320.09c0,16.61,7.66,76.61,10,97.85-3.53,9-7.48,12.62-7.48,12.62,2.78-1,5-1.88,6.79-2.61-2.56,14.45-3.87,32-3.88,54.69a93.17,93.17,0,0,1,8.78-26.24c1.49,12.48,3,24.13,4.48,34.74C532.87,524.05,523.08,532,523.08,532c13.3-4.94,9.3-2,18.15-7.45,2.68,17.54,4.53,28.62,4.52,30.89a92.31,92.31,0,0,1,6-21c4.26,16.84,12.2,35.4,26.16,59.37a97.36,97.36,0,0,1-5.23-28.59c13.47,3.53,16.52,41,13.82,51.7q5.16-9,9.22-17.08c6.74,26-2.88,51.24-2.88,51.24,10.63-18.25,17.76-33.36,22.44-47,3.53,7.28,7.7,15.07,12.64,23.54a97.83,97.83,0,0,1-5.26-30.34c3.94,5.24,8.33,10.73,13.25,16.54a96.25,96.25,0,0,1-9.26-23.58c-.19-1.24-.38-2.53-.54-3.88,13.15,31.2,26.86,47.83,26.86,47.83-2.77-6.93-4.3-16.26-4.7-26.94,21.42,29,40.4,41.05,40.4,41.05-7.13-8.72-13.6-25.71-17.9-45.21,10.45,17.67,19,27.42,19,27.42-4.58-9.79-6.42-23.83-5.73-39.19,16,21.21,17,47.72,17,47.72,2.2-17.37,3-31.81,2.67-44.42C716,622.27,728.1,637,728.1,637a69.12,69.12,0,0,1-4-17.5c16.71,19.42,29.81,27.78,29.81,27.78-4.28-3.71-7.31-14.2-8.69-25.87,2.29,5.59,4.89,11.48,7.84,17.74-.15-.51-5-13.15-2.09-35.61,0,0,1.94-7.33,3.43-10.9,1.23,8.09,1.5,13.94,1.5,13.94,1.28-5.16,3.14-12.79,5-20.4,7.41,13.12,1.6,38.31,1.6,38.31,1-1.7,2.63-4.43,4.61-7.68A96.87,96.87,0,0,1,762,642.68c11.67-15.71,28-55.35,28-62.85,3.57,5.51,7.7,11.35,12.49,17.65-5.17-6.9-10.33-47.58,1.53-42.15,4.44,1.64,1,29.66.46,29.78,5.59-10.16,15.53-45.23,14.58-51.79,2.45,7.61,2,12.1,2,12.1,4.76-10,5.76-13,6.43-16.59,3.75,2.93,5.33,4.07,17.16,8.47,0,0-15-13.56-12.69-54.81,1.57-7.43,3.06-15.11,4.48-23a93.2,93.2,0,0,1,9.06,26.79c0-19.31-1-34.88-2.82-48,1.67,1,3.76,2.12,6.45,3.55C849.22,441.84,844.56,436.22,842.35,422.56ZM638.29,307.07c-14.45,0-26.17-16.95-26.17-37.85s11.72-37.85,26.17-37.85,26.16,16.94,26.16,37.85S652.74,307.07,638.29,307.07Zm95.42,0c-14.45,0-26.16-16.95-26.16-37.85s11.71-37.85,26.16-37.85,26.17,16.94,26.17,37.85S748.16,307.07,733.71,307.07Z" transform="translate(-3 -3)"/></svg>